<svg xmlns="http://www.w3.org/2000/svg" width="1280" height="640" aria-label="winsmux: One control desk for every AI coding agent on Windows"><defs><radialGradient id="b" cx="50%" cy="50%" r="60%"><stop offset="55%" stop-opacity="0"/><stop offset="100%" stop-opacity=".4"/></radialGradient><pattern id="a" width="40" height="40" x="0" y="0" patternUnits="userSpaceOnUse"><circle cx="20" cy="20" r="1" fill="#13161b"/></pattern></defs><path fill="#0b0d10" d="M0 0h1280v640H0z"/><path fill="url(#a)" d="M0 0h1280v640H0z"/><path fill="url(#b)" d="M0 0h1280v640H0z"/><path stroke="#5eead4" d="M80 130.4h32"/><path fill="#5c6370" d="m125.42 134.04-1.09-9.49h1.11l.72 7.02q.02.29.05.59.03.31.05.58t.02.45q.02-.18.04-.45t.05-.58q.04-.3.07-.59l.89-7.02h1.21l.8 7.02q.04.29.07.59.04.31.07.58l.05.45q.01-.18.03-.45t.05-.58l.06-.59.74-7.02h1.06l-1.11 9.49h-1.47l-.81-7.15q-.02-.3-.06-.59-.03-.28-.05-.53-.03-.25-.04-.4-.02.15-.05.4t-.06.53q-.02.29-.06.59l-.87 7.15Zm9.83 0v-1.07h1.93v-7.35h-1.93v-1.07h5.06v1.07h-1.93v7.35h1.93v1.07Zm9.68 0v-9.49h1.56l2.9 8.12q-.03-.32-.06-.79-.03-.48-.05-1.01-.02-.52-.02-.99v-5.33h1.13v9.49h-1.56l-2.89-8.13q.03.32.06.79l.04 1q.02.53.02 1.01v5.33Zm12.66.13q-.93 0-1.6-.31t-1.04-.9q-.36-.58-.37-1.39h1.17q0 .71.48 1.13.49.42 1.36.42.82 0 1.28-.41.46-.4.46-1.11 0-.58-.3-1.01-.31-.42-.88-.59l-1.29-.41q-.97-.3-1.5-1-.52-.7-.52-1.65 0-.77.34-1.33.34-.57.97-.88.62-.32 1.47-.32 1.25 0 2 .69.75.7.77 1.85h-1.17q0-.7-.43-1.09-.42-.4-1.19-.4-.75 0-1.17.36-.42.37-.42 1.02 0 .58.31 1.01t.89.61l1.3.42q.95.3 1.47 1.01.52.72.52 1.68 0 .78-.36 1.36-.36.59-1.02.91-.66.33-1.53.33m6.92-.13v-9.49h1.53l.99 3.07q.14.41.26.82t.17.63l.17-.63q.1-.41.23-.84l.94-3.05h1.53v9.49h-1.14v-3.45q0-.57.04-1.3.04-.72.1-1.48.07-.76.14-1.46t.12-1.22l-1.53 4.75h-1.24l-1.55-4.75q.07.51.13 1.18.07.67.12 1.42t.09 1.49.04 1.37v3.45Zm12.79.13q-1.33 0-2.03-.73-.7-.74-.7-2v-6.89h1.17v6.89q0 .78.38 1.23.39.46 1.18.46.78 0 1.17-.46.39-.45.39-1.23v-6.89h1.17v6.89q0 1.27-.7 2-.69.73-2.03.73m6.5-.13 2.73-4.81-2.59-4.68h1.35l1.47 2.81q.12.22.24.47.13.26.21.4.06-.14.18-.4.13-.25.24-.47l1.5-2.81h1.29l-2.59 4.6 2.73 4.89h-1.34l-1.62-3.02q-.12-.22-.24-.47-.13-.25-.19-.41-.07.16-.19.4-.13.25-.24.47l-1.64 3.03Zm23.14-3.38q-.49 0-.79-.29-.29-.28-.29-.76 0-.51.29-.81.3-.3.79-.3t.79.3q.29.3.29.81 0 .48-.29.76-.3.29-.79.29m18.95 3.38-2.44-9.49h1.21l1.61 6.45q.17.67.29 1.25.11.58.17.88.05-.3.16-.88t.28-1.25l1.6-6.45h1.18l-2.46 9.49Zm10.69.13q-.87 0-1.51-.34-.65-.35-1-.98t-.35-1.48v-4.16q0-.85.35-1.48.35-.62 1-.97.64-.34 1.51-.34.88 0 1.52.34.64.35.99.97.35.63.35 1.48v4.16q0 .85-.35 1.48t-1 .98q-.64.34-1.51.34m0-1q.78 0 1.25-.5.48-.5.48-1.3v-4.16q0-.79-.48-1.29-.47-.5-1.25-.5t-1.25.5q-.48.5-.48 1.29v4.16q0 .8.48 1.3.47.5 1.25.5m0-3.11q-.35 0-.57-.22-.21-.22-.21-.58t.21-.57q.22-.21.57-.21t.57.21q.21.21.21.57t-.21.58q-.22.22-.57.22m9.88 4.11q-.49 0-.79-.29-.29-.28-.29-.76 0-.51.29-.81.3-.3.79-.3t.79.3q.29.3.29.81 0 .48-.29.76-.3.29-.79.29m9.74 0q-.86 0-1.5-.34-.65-.35-1-.96t-.35-1.43h1.17q0 .79.45 1.24t1.24.45q.81 0 1.25-.47t.44-1.22v-.68q0-.8-.44-1.24-.44-.45-1.25-.45h-.98v-1.17l2.36-2.28h-3.85v-1.07h5.03v1.17l-2.53 2.46v-.15q1.3 0 2.06.74.77.75.77 1.99v.68q0 .82-.36 1.43t-1.01.96q-.65.34-1.5.34m10.03 0q-.91 0-1.59-.38-.68-.39-1.06-1.08t-.38-1.6q0-.71.21-1.4.2-.69.6-1.33l2.38-3.83h1.3l-2.69 4.32.05.03q.25-.36.68-.55.42-.2.96-.2.78 0 1.35.36.57.37.88 1.03.32.66.32 1.57t-.38 1.6-1.05 1.08q-.67.38-1.58.38m-.01-1.04q.83 0 1.34-.55.51-.56.51-1.47t-.51-1.46-1.34-.55-1.34.55-.51 1.46.51 1.47q.51.55 1.34.55m9.88 1.04q-.49 0-.79-.29-.29-.28-.29-.76 0-.51.29-.81.3-.3.79-.3t.79.3q.29.3.29.81 0 .48-.29.76-.3.29-.79.29m7.18-.13v-1.2l2.89-3.08q.75-.79 1.08-1.41.34-.62.34-1.19 0-.79-.43-1.25-.44-.45-1.19-.45-.84 0-1.31.47t-.47 1.28h-1.17q.02-.85.39-1.48t1.03-.97 1.53-.34q.85 0 1.49.33.63.33.96.94.34.61.34 1.46 0 .81-.43 1.6t-1.4 1.81l-2.34 2.41h4.33v1.07Zm9.88 0v-1.2l2.89-3.08q.75-.79 1.08-1.41.34-.62.34-1.19 0-.79-.43-1.25-.44-.45-1.19-.45-.84 0-1.31.47t-.47 1.28h-1.17q.02-.85.39-1.48t1.03-.97 1.53-.34q.85 0 1.49.33.63.33.96.94.34.61.34 1.46 0 .81-.43 1.6t-1.4 1.81l-2.34 2.41h4.33v1.07Zm22.46-3.38q-.49 0-.79-.29-.29-.28-.29-.76 0-.51.29-.81.3-.3.79-.3t.79.3q.29.3.29.81 0 .48-.29.76-.3.29-.79.29m16.51 3.38 2.47-9.49h1.57l2.46 9.49h-1.18l-.63-2.52h-2.87l-.62 2.52Zm2.05-3.51h2.4l-.73-2.93q-.21-.83-.33-1.39-.11-.56-.14-.72-.03.16-.14.72-.12.56-.33 1.38Zm8.38 3.51v-9.49h3.05q.88 0 1.53.34.65.35 1.01.97.36.63.36 1.48t-.36 1.48-1.01.98q-.65.34-1.53.34h-1.88v3.9Zm1.17-4.95h1.88q.77 0 1.23-.48.46-.47.46-1.27t-.46-1.27-1.23-.47h-1.88Zm8.16 4.95 2.47-9.49h1.57l2.46 9.49h-1.18l-.63-2.52h-2.87l-.62 2.52Zm2.05-3.51h2.4l-.73-2.93q-.21-.83-.33-1.39-.11-.56-.14-.72-.03.16-.14.72-.12.56-.33 1.38Zm11.13 3.64q-.86 0-1.49-.33-.63-.32-.97-.94-.35-.62-.35-1.46v-4.29q0-.86.35-1.47.34-.61.97-.94.63-.32 1.49-.32t1.48.33q.63.33.97.94.33.61.33 1.46h-1.17q0-.81-.42-1.24-.42-.44-1.19-.44t-1.2.43q-.44.43-.44 1.24v4.3q0 .81.44 1.24.43.44 1.2.44t1.19-.44q.42-.43.42-1.24h1.17q0 .83-.33 1.45-.34.62-.97.95-.62.33-1.48.33m7.14-.13v-9.49h1.17v4.06h3.04v-4.06h1.17v9.49h-1.17v-4.37h-3.04v4.37Zm9.97 0v-9.49h5.46v1.07h-4.3v2.93h3.84v1.06h-3.84v3.36h4.3v1.07Zm19.66 0v-1.2l2.89-3.08q.75-.79 1.08-1.41.34-.62.34-1.19 0-.79-.43-1.25-.44-.45-1.19-.45-.84 0-1.31.47t-.47 1.28h-1.17q.02-.85.39-1.48t1.03-.97 1.53-.34q.85 0 1.49.33.63.33.96.94.34.61.34 1.46 0 .81-.43 1.6t-1.4 1.81l-2.34 2.41h4.33v1.07Zm12.58.13q-.49 0-.79-.29-.29-.28-.29-.76 0-.51.29-.81.3-.3.79-.3t.79.3q.29.3.29.81 0 .48-.29.76-.3.29-.79.29m9.88 0q-.87 0-1.51-.34-.65-.35-1-.98t-.35-1.48v-4.16q0-.85.35-1.48.35-.62 1-.97.64-.34 1.51-.34.88 0 1.52.34.64.35.99.97.35.63.35 1.48v4.16q0 .85-.35 1.48t-1 .98q-.64.34-1.51.34m0-1q.78 0 1.25-.5.48-.5.48-1.3v-4.16q0-.79-.48-1.29-.47-.5-1.25-.5t-1.25.5q-.48.5-.48 1.29v4.16q0 .8.48 1.3.47.5 1.25.5m0-3.11q-.35 0-.57-.22-.21-.22-.21-.58t.21-.57q.22-.21.57-.21t.57.21q.21.21.21.57t-.21.58q-.22.22-.57.22"/><path fill="#e8e8ec" d="M106.93 221.9q-7.03 0-12.55-3.35-5.52-3.36-8.68-9.43-3.17-6.06-3.17-14.22 0-8.19 3.17-14.29 3.16-6.1 8.68-9.44t12.55-3.34 12.53 3.34 8.69 9.44q3.18 6.1 3.18 14.29 0 8.16-3.18 14.24-3.19 6.08-8.69 9.42t-12.53 3.34m0-8.33q4.29 0 7.68-2.18t5.36-6.36 1.97-10.13q0-5.97-1.97-10.17-1.97-4.21-5.36-6.38-3.39-2.18-7.68-2.18-4.25 0-7.66 2.18-3.41 2.17-5.4 6.38-1.99 4.2-1.99 10.17 0 5.95 1.99 10.13t5.4 6.36 7.66 2.18m37.24-13.5v20.99h-8.9v-37.13h8.72v9.43h-1.76q1.83-4.96 5.08-7.56t8.07-2.6q3.9 0 6.89 1.67t4.68 4.94q1.68 3.27 1.68 8.05v23.2h-8.89v-21.8q0-4.08-1.95-6.18-1.95-2.11-5.5-2.11-2.36 0-4.19.95-1.82.94-2.88 2.97-1.05 2.02-1.05 5.18m46.22 21.83q-5.62 0-9.67-2.49-4.04-2.5-6.25-6.88-2.22-4.37-2.22-10 0-5.69 2.27-10.05t6.27-6.88q4.01-2.51 9.22-2.51 4 0 7.27 1.39t5.63 3.99q2.35 2.6 3.62 6.13 1.26 3.54 1.26 7.79v2.43h-32.02v-6.12h27.59l-4 1.62q0-3.1-1.11-5.4t-3.18-3.55q-2.08-1.25-4.92-1.25-2.85 0-4.91 1.25t-3.18 3.53q-1.13 2.29-1.13 5.45v3.83q0 3.2 1.13 5.63 1.12 2.43 3.27 3.78 2.14 1.35 5.24 1.35 2.21 0 3.94-.68 1.72-.69 2.88-1.88 1.16-1.2 1.62-2.78l8.33-.04q-.71 3.66-3.08 6.44-2.37 2.77-5.96 4.34-3.58 1.56-7.91 1.56m51.09 0q-5.45 0-9.54-2.46-4.1-2.46-6.37-6.82-2.26-4.36-2.26-10.05 0-5.73 2.26-10.14 2.27-4.42 6.37-6.88 4.09-2.46 9.54-2.46 3.45 0 6.42 1.04t5.18 2.93q2.22 1.9 3.57 4.47 1.36 2.57 1.64 5.69h-8.69q-.24-1.47-.88-2.72-.63-1.25-1.67-2.15-1.03-.89-2.4-1.38-1.37-.5-3.1-.5-2.88 0-4.97 1.5-2.09 1.49-3.18 4.18t-1.09 6.38q0 3.66 1.09 6.37 1.09 2.7 3.16 4.16t4.99 1.46q1.76 0 3.1-.47 1.33-.48 2.3-1.37.97-.9 1.62-2.15t.96-2.79h8.79q-.28 3.05-1.6 5.64-1.32 2.58-3.57 4.48t-5.22 2.97-6.45 1.07m36.83 0q-5.48 0-9.61-2.44t-6.42-6.78q-2.28-4.35-2.28-10.11 0-5.8 2.28-10.2 2.29-4.39 6.42-6.84 4.13-2.44 9.61-2.44 5.49 0 9.6 2.44 4.11 2.45 6.42 6.84 2.3 4.4 2.3 10.2 0 5.76-2.3 10.11-2.31 4.34-6.42 6.78t-9.6 2.44m0-7.38q2.85 0 4.94-1.46t3.24-4.15q1.14-2.69 1.14-6.38 0-3.72-1.14-6.41-1.15-2.69-3.24-4.15t-4.94-1.46-4.94 1.46-3.23 4.15-1.14 6.41q0 3.73 1.14 6.4t3.21 4.13q2.08 1.46 4.96 1.46m30.82-14.45v20.99h-8.9v-37.13h8.72v9.43h-1.76q1.83-4.96 5.08-7.56 3.26-2.6 8.07-2.6 3.9 0 6.89 1.67t4.68 4.94 1.69 8.05v23.2h-8.9v-21.8q0-4.08-1.95-6.18-1.95-2.11-5.5-2.11-2.36 0-4.19.95-1.82.94-2.88 2.97-1.05 2.02-1.05 5.18m49.42-16.14v7.14H335.6v-7.14Zm-16.45-10.12h8.86v36.6q0 1.97.81 2.76t2.95.79q.88 0 2-.02 1.13-.02 1.83-.02v7.14h-5.34q-5.73 0-8.42-2.3-2.69-2.31-2.69-7.09Zm19.48 47.25v-37.13h8.54v6.16h.14q.99-3.2 3.19-4.85 2.19-1.66 5.78-1.66.88 0 1.62.04.73.03 1.3.07v7.87q-.49-.03-1.69-.14-1.2-.1-2.53-.1-2.08 0-3.78.96-1.71.97-2.69 2.9-.98 1.94-.98 4.82v21.06Zm39.26.84q-5.49 0-9.62-2.44t-6.41-6.78q-2.29-4.35-2.29-10.11 0-5.8 2.29-10.2 2.28-4.39 6.41-6.84 4.13-2.44 9.62-2.44 5.48 0 9.6 2.44 4.11 2.45 6.41 6.84 2.3 4.4 2.3 10.2 0 5.76-2.3 10.11-2.3 4.34-6.41 6.78-4.12 2.44-9.6 2.44m0-7.38q2.85 0 4.94-1.46t3.23-4.15 1.14-6.38q0-3.72-1.14-6.41t-3.23-4.15-4.94-1.46-4.94 1.46-3.24 4.15q-1.14 2.69-1.14 6.41 0 3.73 1.14 6.4 1.15 2.67 3.22 4.13t4.96 1.46m30.81-45.84v52.38h-8.89v-52.38Zm33.42 53.12q-4.85 0-8.47-2.41t-5.61-6.77q-1.98-4.36-1.98-10.16 0-5.69 2.02-10.05t5.64-6.79q3.62-2.42 8.33-2.42 2.47 0 4.56.66 2.09.67 3.78 1.97 1.68 1.3 2.84 3.34h.07v-20.49h8.9v52.38h-8.75v-5.66h-.08q-1.16 2.14-2.88 3.57-1.72 1.42-3.83 2.13-2.11.7-4.54.7m2.11-7.42q2.89 0 5.03-1.46 2.15-1.46 3.34-4.15 1.2-2.69 1.2-6.31t-1.18-6.27q-1.18-2.66-3.34-4.15-2.16-1.5-5.05-1.5-2.74 0-4.81 1.39-2.08 1.39-3.24 4.05-1.16 2.65-1.16 6.48t1.16 6.49q1.16 2.65 3.24 4.04 2.07 1.39 4.81 1.39m39.7 7.52q-5.62 0-9.66-2.49-4.05-2.5-6.26-6.88-2.22-4.37-2.22-10 0-5.69 2.27-10.05t6.28-6.88q4-2.51 9.21-2.51 4.01 0 7.27 1.39 3.27 1.39 5.63 3.99t3.62 6.13q1.27 3.54 1.27 7.79v2.43h-32.03v-6.12h27.6l-4.01 1.62q0-3.1-1.11-5.4t-3.18-3.55-4.92-1.25-4.91 1.25q-2.05 1.25-3.18 3.53-1.12 2.29-1.12 5.45v3.83q0 3.2 1.12 5.63 1.13 2.43 3.27 3.78 2.15 1.35 5.24 1.35 2.21 0 3.94-.68 1.72-.69 2.88-1.88 1.16-1.2 1.62-2.78l8.33-.04q-.7 3.66-3.08 6.44-2.37 2.77-5.96 4.34-3.58 1.56-7.91 1.56m35.47.07q-4.57 0-8.14-1.42-3.56-1.42-5.74-4.2T526 209.6l8.76-.04q.28 2.75 2.18 4.24t5.24 1.49q3.2 0 5.04-1.26 1.85-1.27 1.85-3.24 0-1.68-1.36-2.7-1.35-1.02-3.71-1.51l-6.36-1.31q-5.31-1.12-8.05-3.81t-2.74-6.91q0-3.41 1.83-5.97 1.82-2.57 5.2-4.01 3.37-1.44 7.94-1.44 4.5 0 7.92 1.51 3.41 1.51 5.36 4.27t2.05 6.56l-8.33.03q-.03-2.49-1.9-4.13-1.86-1.63-4.92-1.63-2.92 0-4.62 1.31-1.71 1.32-1.71 3.22 0 1.65 1.34 2.71 1.33 1.05 3.62 1.54l6.68 1.38q5.52 1.16 8.12 3.65 2.6 2.5 2.6 6.54 0 3.66-2 6.31-2.01 2.66-5.56 4.12-3.55 1.45-8.12 1.45m27.36-12.48v-10.51h.85l14.45-15.05h10.65l-17.23 18.32h-1.79Zm-8.12 11.57v-52.38h8.9v52.38Zm24.4 0-12.87-16.84 5.98-6.19 17.47 23.03Zm45.22-37.13v7.14h-23.13v-7.14Zm-16.45 37.13v-42.54q0-3.23 1.28-5.4 1.29-2.16 3.82-3.3t6.18-1.14h5.17v7.13h-3.41q-2.25 0-3.2.97t-.95 3.22v41.06Zm35.17.84q-5.48 0-9.61-2.44t-6.42-6.78q-2.28-4.35-2.28-10.11 0-5.8 2.28-10.2 2.29-4.39 6.42-6.84 4.13-2.44 9.61-2.44 5.49 0 9.6 2.44 4.11 2.45 6.42 6.84 2.3 4.4 2.3 10.2 0 5.76-2.3 10.11-2.31 4.34-6.42 6.78t-9.6 2.44m0-7.38q2.85 0 4.94-1.46 2.1-1.46 3.24-4.15t1.14-6.38q0-3.72-1.14-6.41t-3.24-4.15q-2.09-1.46-4.94-1.46-2.84 0-4.94 1.46-2.09 1.46-3.23 4.15t-1.14 6.41q0 3.73 1.14 6.4t3.22 4.13q2.07 1.46 4.95 1.46m21.92 6.54v-37.13h8.55v6.16h.14q.98-3.2 3.18-4.85 2.2-1.66 5.78-1.66.88 0 1.62.04.74.03 1.3.07v7.87q-.49-.03-1.69-.14-1.19-.1-2.53-.1-2.07 0-3.78.96-1.7.97-2.69 2.9-.98 1.94-.98 4.82v21.06Zm53.29.84q-5.62 0-9.66-2.49-4.05-2.5-6.26-6.88-2.22-4.37-2.22-10 0-5.69 2.27-10.05t6.28-6.88q4-2.51 9.21-2.51 4.01 0 7.27 1.39 3.27 1.39 5.63 3.99t3.62 6.13q1.27 3.54 1.27 7.79v2.43h-32.03v-6.12h27.6l-4.01 1.62q0-3.1-1.11-5.4t-3.18-3.55-4.92-1.25-4.91 1.25q-2.05 1.25-3.18 3.53-1.12 2.29-1.12 5.45v3.83q0 3.2 1.12 5.63 1.13 2.43 3.27 3.78 2.15 1.35 5.24 1.35 2.21 0 3.94-.68 1.72-.69 2.88-1.88 1.16-1.2 1.62-2.78l8.33-.04q-.7 3.66-3.08 6.44-2.37 2.77-5.96 4.34-3.58 1.56-7.91 1.56m30.2-.84-13.95-37.13h9.38l6.75 19.34q1.06 3.09 2.01 6.17t1.86 6.14h-2.14q.98-3.06 1.9-6.14.91-3.08 1.93-6.17l6.64-19.34H779l-13.99 37.13Zm40.79.84q-5.63 0-9.67-2.49-4.04-2.5-6.26-6.88-2.21-4.37-2.21-10 0-5.69 2.27-10.05 2.26-4.36 6.27-6.88 4.01-2.51 9.21-2.51 4.01 0 7.28 1.39t5.62 3.99q2.36 2.6 3.63 6.13 1.26 3.54 1.26 7.79v2.43H781.5v-6.12h27.6l-4.01 1.62q0-3.1-1.1-5.4-1.11-2.3-3.19-3.55-2.07-1.25-4.92-1.25t-4.9 1.25q-2.06 1.25-3.18 3.53-1.13 2.29-1.13 5.45v3.83q0 3.2 1.13 5.63 1.12 2.43 3.27 3.78 2.14 1.35 5.23 1.35 2.22 0 3.94-.68 1.72-.69 2.88-1.88 1.16-1.2 1.62-2.78l8.33-.04q-.7 3.66-3.07 6.44-2.38 2.77-5.96 4.34-3.59 1.56-7.91 1.56m20.88-.84v-37.13h8.54v6.16h.14q.99-3.2 3.18-4.85 2.2-1.66 5.79-1.66.87 0 1.61.04.74.03 1.3.07v7.87q-.49-.03-1.68-.14-1.2-.1-2.54-.1-2.07 0-3.77.96-1.71.97-2.69 2.9-.99 1.94-.99 4.82v21.06Zm24.7 14.7v-7.25h4.36q1.2 0 2.02-.4.83-.41 1.44-1.32.62-.91 1.15-2.36l1.33-3.58-14.31-36.92h9.39l6.82 19.34q1.06 3.09 2.02 6.17.97 3.08 1.88 6.14h-2.42q.84-3.06 1.83-6.14.98-3.08 2.03-6.17l6.75-19.34h9.29l-16.6 43.25q-1.09 2.88-2.67 4.8-1.58 1.91-3.71 2.84-2.13.94-4.83.94z"/><path fill="#e8e8ec" d="m80.46 296.66 18.7-52.38h11.64l18.66 52.38h-10.23l-9.17-27.53q-1.41-4.36-2.9-9.28-1.5-4.92-3.43-11.56h2.57q-1.97 6.67-3.48 11.58-1.52 4.9-2.92 9.26l-9.46 27.53Zm11.11-12.52v-7.62h26.82v7.62Zm49.5-39.86v52.38h-9.32v-52.38Zm35.95 53.22q-5.45 0-9.54-2.46-4.1-2.46-6.37-6.82-2.26-4.36-2.26-10.05 0-5.73 2.26-10.14 2.27-4.42 6.37-6.88 4.09-2.46 9.54-2.46 3.45 0 6.42 1.04t5.18 2.93q2.22 1.9 3.57 4.47t1.64 5.69h-8.69q-.24-1.47-.88-2.72-.63-1.25-1.67-2.15-1.03-.89-2.4-1.38-1.38-.5-3.1-.5-2.88 0-4.97 1.5-2.09 1.49-3.18 4.18t-1.09 6.38q0 3.66 1.09 6.37 1.09 2.7 3.16 4.16t4.99 1.46q1.76 0 3.1-.47 1.33-.48 2.3-1.37.96-.9 1.62-2.15.65-1.25.96-2.79h8.79q-.28 3.05-1.6 5.64-1.32 2.58-3.57 4.48t-5.22 2.97-6.45 1.07m36.83 0q-5.48 0-9.61-2.44-4.14-2.44-6.42-6.78-2.29-4.35-2.29-10.11 0-5.8 2.29-10.2 2.28-4.39 6.42-6.84 4.13-2.44 9.61-2.44 5.49 0 9.6 2.44 4.11 2.45 6.41 6.84 2.31 4.4 2.31 10.2 0 5.76-2.31 10.11-2.3 4.34-6.41 6.78t-9.6 2.44m0-7.38q2.85 0 4.94-1.46t3.23-4.15q1.15-2.69 1.15-6.38 0-3.72-1.15-6.41-1.14-2.69-3.23-4.15t-4.94-1.46-4.94 1.46-3.23 4.15q-1.15 2.69-1.15 6.41 0 3.73 1.15 6.4 1.14 2.67 3.21 4.13 2.08 1.46 4.96 1.46m36.26 7.28q-4.85 0-8.47-2.41t-5.61-6.77q-1.98-4.36-1.98-10.16 0-5.69 2.02-10.05t5.64-6.79q3.62-2.42 8.33-2.42 2.47 0 4.56.66 2.09.67 3.78 1.97 1.68 1.3 2.84 3.34h.07v-20.49h8.9v52.38h-8.75V291h-.08q-1.16 2.14-2.88 3.57-1.72 1.42-3.83 2.13-2.11.7-4.54.7m2.11-7.42q2.89 0 5.03-1.46 2.15-1.46 3.34-4.15 1.2-2.69 1.2-6.31t-1.18-6.27q-1.18-2.66-3.34-4.15-2.16-1.5-5.05-1.5-2.74 0-4.81 1.39-2.08 1.39-3.24 4.05-1.16 2.65-1.16 6.48t1.16 6.49q1.16 2.65 3.24 4.04 2.07 1.39 4.81 1.39m23.29 6.68v-37.12h8.89v37.12Zm4.39-42.64q-2.25 0-3.76-1.46t-1.51-3.57q0-2.15 1.51-3.61 1.51-1.45 3.76-1.45 2.29 0 3.8 1.45 1.51 1.46 1.51 3.57 0 2.15-1.51 3.61t-3.8 1.46m18.71 21.65v20.99h-8.89v-37.12h8.72v9.42h-1.76q1.83-4.96 5.08-7.56t8.07-2.6q3.9 0 6.89 1.67t4.68 4.94q1.68 3.27 1.68 8.05v23.2h-8.89v-21.8q0-4.07-1.95-6.18t-5.5-2.11q-2.36 0-4.19.95-1.83.94-2.88 2.97-1.06 2.02-1.06 5.18m46.65 36.18q-4.88 0-8.45-1.43-3.57-1.42-5.68-4.06-2.11-2.63-2.6-6.25l8.68-.04q.42 1.62 1.55 2.71 1.12 1.09 2.78 1.65 1.65.56 3.72.56 4.15 0 6.45-2.25 2.31-2.25 2.31-6.5v-5.63h-.04q-1.16 2.11-2.86 3.52-1.71 1.41-3.8 2.09-2.09.69-4.55.69-4.82 0-8.46-2.43t-5.62-6.7q-1.99-4.27-1.99-9.86 0-5.66 2.02-9.97 2.02-4.3 5.63-6.73 3.6-2.42 8.35-2.42 2.42 0 4.53.66 2.11.67 3.83 2.06 1.73 1.39 2.92 3.53h.07v-5.51h8.76v36.14q0 5.76-2.29 9.31-2.28 3.55-6.26 5.21-3.97 1.65-9 1.65m-.38-22.26q2.88 0 5.02-1.46 2.15-1.45 3.34-4.11 1.2-2.65 1.2-6.2t-1.2-6.21q-1.19-2.65-3.34-4.11-2.14-1.46-5.02-1.46-2.75 0-4.82 1.37t-3.23 3.99q-1.17 2.62-1.17 6.42 0 3.79 1.17 6.41 1.16 2.62 3.23 3.99t4.82 1.37m48.36 7.67q-3.69 0-6.59-1.25-2.91-1.25-4.56-3.73t-1.65-6.13q0-3.2 1.18-5.28 1.18-2.07 3.21-3.3 2.04-1.23 4.68-1.86 2.64-.64 5.52-.92 3.41-.38 5.43-.68t2.88-.88q.87-.58.87-1.88v-.25q0-1.58-.8-2.81-.79-1.23-2.32-1.93-1.52-.71-3.63-.71-2.15 0-3.78.71-1.64.7-2.59 1.91t-1.09 2.8h-8.51q.22-3.7 2.2-6.45 1.99-2.76 5.54-4.29t8.4-1.53q3.62 0 6.49.86 2.86.86 4.85 2.51t3.02 3.97q1.04 2.32 1.04 5.21v25.31h-8.75v-5.24h-.11q-.91 1.62-2.28 2.95-1.38 1.34-3.49 2.11-2.1.78-5.16.78m2.18-6.58q2.91 0 4.88-1.05 1.97-1.06 2.97-2.8 1.01-1.74 1.01-3.92v-4q-.43.24-1.23.49-.81.24-1.9.47t-2.41.46-2.66.4q-1.86.29-3.48.88-1.61.6-2.56 1.67-.95 1.08-.95 2.76 0 1.44.77 2.48.78 1.04 2.2 1.6t3.36.56m39.78 21.17q-4.89 0-8.46-1.43-3.57-1.42-5.68-4.06-2.1-2.63-2.6-6.25l8.69-.04q.42 1.62 1.54 2.71 1.13 1.09 2.78 1.65t3.73.56q4.15 0 6.45-2.25t2.3-6.5v-5.63h-.03q-1.16 2.11-2.87 3.52-1.7 1.41-3.8 2.09-2.09.69-4.55.69-4.81 0-8.45-2.43t-5.63-6.7q-1.98-4.27-1.98-9.86 0-5.66 2.02-9.97 2.02-4.3 5.62-6.73 3.61-2.42 8.35-2.42 2.43 0 4.54.66 2.11.67 3.83 2.06t2.92 3.53h.07v-5.51h8.75v36.14q0 5.76-2.28 9.31-2.29 3.55-6.26 5.21-3.97 1.65-9 1.65m-.39-22.26q2.88 0 5.03-1.46 2.14-1.45 3.34-4.11 1.19-2.65 1.19-6.2t-1.19-6.21q-1.2-2.65-3.34-4.11-2.15-1.46-5.03-1.46-2.74 0-4.82 1.37-2.07 1.37-3.23 3.99t-1.16 6.42q0 3.79 1.16 6.41t3.23 3.99q2.08 1.37 4.82 1.37m39.7 7.91q-5.62 0-9.67-2.49-4.04-2.5-6.26-6.88-2.21-4.37-2.21-10 0-5.69 2.27-10.05t6.27-6.88q4.01-2.51 9.21-2.51 4.01 0 7.28 1.39t5.63 3.99q2.35 2.6 3.62 6.13 1.26 3.54 1.26 7.79v2.43h-32.02v-6.12h27.59l-4 1.62q0-3.1-1.11-5.4t-3.18-3.55q-2.08-1.25-4.93-1.25-2.84 0-4.9 1.25t-3.18 3.53q-1.13 2.29-1.13 5.45v3.84q0 3.19 1.13 5.62 1.12 2.43 3.27 3.78 2.14 1.35 5.24 1.35 2.21 0 3.93-.68 1.73-.69 2.89-1.88 1.16-1.2 1.61-2.78l8.34-.04q-.71 3.66-3.08 6.44-2.37 2.77-5.96 4.34-3.59 1.56-7.91 1.56m29.77-21.83v20.99h-8.89v-37.12h8.72v9.42h-1.76q1.83-4.96 5.08-7.56t8.07-2.6q3.9 0 6.89 1.67t4.68 4.94q1.68 3.27 1.68 8.05v23.2h-8.89v-21.8q0-4.07-1.95-6.18t-5.51-2.11q-2.35 0-4.18.95-1.83.94-2.88 2.97-1.06 2.02-1.06 5.18m49.43-16.13v7.13h-22.96v-7.13Zm-16.45-10.13h8.86v36.6q0 1.97.8 2.76.81.79 2.96.79.88 0 2-.02 1.13-.02 1.83-.02v7.14h-5.34q-5.74 0-8.42-2.3-2.69-2.31-2.69-7.09Z"/><path fill="#5eead4" d="M587.09 297.5q-5.48 0-9.61-2.44-4.14-2.44-6.42-6.78-2.29-4.35-2.29-10.11 0-5.8 2.29-10.2 2.28-4.39 6.42-6.84 4.13-2.44 9.61-2.44t9.6 2.44q4.11 2.45 6.41 6.84 2.31 4.4 2.31 10.2 0 5.76-2.31 10.11-2.3 4.34-6.41 6.78-4.12 2.44-9.6 2.44m0-7.38q2.85 0 4.94-1.46t3.23-4.15q1.15-2.69 1.15-6.38 0-3.72-1.15-6.41-1.14-2.69-3.23-4.15t-4.94-1.46-4.94 1.46-3.23 4.15q-1.15 2.69-1.15 6.41 0 3.73 1.15 6.4 1.14 2.67 3.21 4.13 2.08 1.46 4.96 1.46m30.82-14.45v20.99h-8.9v-37.12h8.72v9.42h-1.76q1.83-4.96 5.08-7.56t8.07-2.6q3.9 0 6.89 1.67t4.68 4.94q1.68 3.27 1.68 8.05v23.2h-8.89v-21.8q0-4.07-1.95-6.18t-5.5-2.11q-2.36 0-4.19.95-1.83.94-2.88 2.97-1.05 2.02-1.05 5.18m54.21 20.99-14.13-52.38h9.81l6.93 28.23q.7 3.02 1.35 6.03.65 3 1.25 5.99t1.12 6.01h-1.65q.6-3.02 1.21-6.01.62-2.99 1.3-5.99.69-3.01 1.43-6.03l7.21-28.23h9.77l7.17 28.23q.77 3.02 1.46 6.03.69 3 1.32 5.99t1.26 6.01h-1.79q.56-3.02 1.18-6.01.61-2.99 1.26-5.99.65-3.01 1.36-6.03l6.89-28.23h9.88l-14.17 52.38h-10.51l-8.02-30.3q-.88-3.27-1.65-6.98t-1.72-8.11h2.39q-.95 4.4-1.73 8.11-.77 3.71-1.65 6.98l-7.98 30.3Zm57.45 0v-37.12h8.9v37.12Zm4.4-42.64q-2.25 0-3.76-1.46t-1.51-3.57q0-2.15 1.51-3.61 1.51-1.45 3.76-1.45 2.28 0 3.8 1.45 1.51 1.46 1.51 3.57 0 2.15-1.51 3.61-1.52 1.46-3.8 1.46m18.71 21.65v20.99h-8.89v-37.12h8.72v9.42h-1.76q1.83-4.96 5.08-7.56t8.07-2.6q3.9 0 6.89 1.67t4.67 4.94q1.69 3.27 1.69 8.05v23.2h-8.89v-21.8q0-4.07-1.95-6.18-1.96-2.11-5.51-2.11-2.35 0-4.18.95-1.83.94-2.88 2.97-1.06 2.02-1.06 5.18m44.15 21.73q-4.85 0-8.47-2.41t-5.61-6.77q-1.98-4.36-1.98-10.16 0-5.69 2.02-10.05t5.64-6.79q3.62-2.42 8.33-2.42 2.47 0 4.56.66 2.09.67 3.78 1.97 1.68 1.3 2.84 3.34h.07v-20.49h8.9v52.38h-8.75V291h-.08q-1.16 2.14-2.88 3.57-1.72 1.42-3.83 2.13-2.11.7-4.54.7m2.11-7.42q2.89 0 5.03-1.46 2.15-1.46 3.34-4.15 1.2-2.69 1.2-6.31t-1.18-6.27q-1.18-2.66-3.34-4.15-2.16-1.5-5.05-1.5-2.74 0-4.81 1.39-2.08 1.39-3.24 4.05-1.16 2.65-1.16 6.48t1.16 6.49q1.16 2.65 3.24 4.04 2.07 1.39 4.81 1.39m39.88 7.52q-5.48 0-9.62-2.44-4.13-2.44-6.41-6.78-2.29-4.35-2.29-10.11 0-5.8 2.29-10.2 2.28-4.39 6.41-6.84 4.14-2.44 9.62-2.44t9.6 2.44q4.11 2.45 6.41 6.84 2.31 4.4 2.31 10.2 0 5.76-2.31 10.11-2.3 4.34-6.41 6.78-4.12 2.44-9.6 2.44m0-7.38q2.85 0 4.94-1.46t3.23-4.15q1.15-2.69 1.15-6.38 0-3.72-1.15-6.41-1.14-2.69-3.23-4.15t-4.94-1.46-4.94 1.46-3.23 4.15q-1.15 2.69-1.15 6.41 0 3.73 1.15 6.4 1.14 2.67 3.21 4.13 2.08 1.46 4.96 1.46m28.99 6.54-11.46-37.12h9.32l3.83 14.06q1.02 3.94 1.97 8.1.95 4.17 1.93 8.17h-1.19q.98-4.04 2.02-8.19 1.03-4.14 2.12-8.08l3.94-14.06h8.19l3.9 14.06q1.09 3.94 2.1 8.1 1 4.17 2.02 8.17h-1.23q.95-4.04 1.91-8.17.97-4.13 1.99-8.1l3.83-14.06h9.42l-11.46 37.12h-9.24l-4.5-15.43q-.67-2.32-1.29-4.7-.61-2.37-1.21-4.78t-1.23-4.73h1.79q-.63 2.36-1.24 4.75-.62 2.39-1.22 4.78t-1.3 4.68l-4.57 15.43Zm61.24.91q-4.57 0-8.13-1.42-3.57-1.42-5.75-4.2t-2.46-6.75l8.75-.04q.28 2.75 2.18 4.24t5.24 1.49q3.2 0 5.04-1.26 1.85-1.27 1.85-3.24 0-1.68-1.35-2.7-1.36-1.02-3.71-1.51l-6.37-1.31q-5.31-1.12-8.05-3.81t-2.74-6.91q0-3.41 1.83-5.97 1.83-2.57 5.2-4.01 3.38-1.44 7.95-1.44 4.5 0 7.91 1.51t5.36 4.27 2.05 6.56l-8.33.03q-.03-2.49-1.9-4.13-1.86-1.63-4.92-1.63-2.92 0-4.62 1.31-1.71 1.32-1.71 3.22 0 1.65 1.34 2.71 1.34 1.05 3.62 1.54l6.68 1.38q5.52 1.16 8.12 3.65 2.6 2.5 2.6 6.54 0 3.66-2 6.31-2 2.66-5.55 4.12-3.56 1.45-8.13 1.45m23.81-.28q-2.25 0-3.85-1.6t-1.6-3.88q0-2.25 1.6-3.83 1.6-1.59 3.85-1.59 2.29 0 3.87 1.59 1.58 1.58 1.58 3.83 0 2.28-1.58 3.88t-3.87 1.6"/><path fill="#9ba1ab" d="M81.78 369.26v-16.01h5.69q1.78 0 2.99.62 1.22.62 1.83 1.73.62 1.1.62 2.55 0 1.46-.64 2.56-.64 1.09-1.86 1.7-1.23.61-3.01.61h-4.51v-1.77h4.51q1.19 0 1.98-.38.78-.38 1.17-1.07t.39-1.65q0-.95-.4-1.66-.39-.7-1.17-1.09-.79-.38-1.99-.38h-3.61v14.24Zm9.25 0-3.86-7.21h2.24l3.93 7.21Zm8.68.18q-1.18 0-2.12-.5-.93-.5-1.46-1.51t-.53-2.51v-7.37h1.88v7.22q0 1.42.72 2.19.73.76 1.98.76.85 0 1.53-.35.67-.36 1.08-1.08.4-.73.4-1.8v-6.94h1.89v11.71h-1.84v-2.84h.38q-.56 1.62-1.57 2.32t-2.34.7m10.34-7.13v6.95h-1.88v-11.71H110v2.84h-.38q.55-1.61 1.56-2.32 1.01-.7 2.36-.7 1.18 0 2.11.5t1.46 1.5.53 2.52v7.37h-1.88v-7.22q0-1.43-.72-2.2-.72-.76-1.97-.76-.85 0-1.53.36t-1.09 1.07q-.4.71-.4 1.8m23.41 7.19q-2.11 0-3.75-1.03-1.63-1.03-2.55-2.87-.93-1.85-.93-4.33 0-2.49.92-4.35.92-1.85 2.56-2.88 1.64-1.02 3.75-1.02 1.24 0 2.33.36 1.09.37 1.95 1.07.87.69 1.45 1.68.58.98.79 2.23h-2.01q-.18-.85-.6-1.5-.42-.64-1.01-1.09-.6-.45-1.33-.67-.74-.22-1.57-.22-1.54 0-2.73.76-1.19.77-1.86 2.21-.67 1.43-.67 3.42 0 1.97.67 3.4t1.86 2.2q1.2.77 2.73.77.83 0 1.56-.23.73-.22 1.33-.66t1.02-1.09.6-1.49h2.01q-.2 1.23-.78 2.22-.58.98-1.45 1.67-.87.7-1.96 1.07-1.08.37-2.33.37m11.03-16.25v16.01h-1.88v-16.01Zm6.5 16.25q-1.14 0-2.05-.42-.92-.41-1.45-1.21t-.53-1.96q0-1.01.39-1.64.4-.63 1.06-.99.67-.36 1.48-.54.82-.18 1.67-.29 1.07-.15 1.73-.23.65-.07.95-.25t.3-.61v-.08q0-.7-.29-1.2t-.84-.78q-.56-.28-1.38-.28-.83 0-1.44.27t-.98.69q-.37.43-.5.91l-1.86-.34q.28-1.07.98-1.77t1.67-1.06q.98-.35 2.1-.35.77 0 1.55.2t1.43.65q.65.46 1.04 1.24t.39 1.93v7.87h-1.85v-1.62h-.09q-.2.41-.63.84-.43.44-1.13.73t-1.72.29m.3-1.68q1.08 0 1.81-.41.73-.42 1.08-1.08.36-.66.36-1.39v-1.56q-.11.12-.46.22-.35.11-.82.19-.47.09-.94.15-.48.07-.85.11-.67.09-1.28.3-.6.2-.96.6-.37.39-.37 1.07 0 .58.31.98.3.4.85.61t1.27.21m12.33 1.62q-1.18 0-2.11-.5-.94-.5-1.47-1.51t-.53-2.51v-7.37h1.88v7.22q0 1.42.72 2.19.73.76 1.98.76.85 0 1.53-.35.68-.36 1.08-1.08.4-.73.4-1.8v-6.94h1.89v11.71h-1.83v-2.84h.37q-.56 1.62-1.57 2.32t-2.34.7m12.89.06q-1.48 0-2.62-.76-1.13-.75-1.76-2.12t-.63-3.2.64-3.19q.63-1.37 1.76-2.12 1.14-.74 2.62-.74.98 0 1.66.3.68.31 1.13.77.44.45.71.92h.1v-6.11h1.89v16.01h-1.84v-1.79h-.13q-.29.47-.74.94-.46.46-1.14.77-.69.32-1.65.32m.29-1.69q1.07 0 1.83-.55.77-.56 1.16-1.55.4-.99.4-2.3 0-1.32-.4-2.29-.39-.98-1.16-1.52-.76-.55-1.83-.55-1.08 0-1.83.55-.76.54-1.16 1.52-.4.97-.4 2.29t.41 2.31q.4.98 1.16 1.54.75.55 1.82.55m13.18 1.71q-1.71 0-2.93-.77-1.23-.77-1.88-2.13-.66-1.37-.66-3.15 0-1.79.66-3.17.67-1.38 1.86-2.17 1.19-.78 2.77-.78 1.05 0 1.99.36.94.37 1.66 1.11.72.75 1.14 1.87.41 1.13.41 2.64v.67h-9.33v-1.6h8.29l-.85.58q0-1.18-.39-2.07t-1.13-1.38q-.74-.5-1.79-.5t-1.82.5q-.76.5-1.17 1.36-.41.85-.41 1.91v.95q0 1.26.44 2.17.44.92 1.24 1.42.81.49 1.9.49.75 0 1.35-.22.6-.23 1.01-.66t.61-1.04l1.86.29q-.26.99-.93 1.73-.68.75-1.67 1.17t-2.23.42m20.21-.02q-2.12 0-3.75-1.03t-2.56-2.87q-.92-1.85-.92-4.33 0-2.49.92-4.35.91-1.85 2.55-2.88 1.64-1.02 3.76-1.02 1.23 0 2.32.36 1.09.37 1.96 1.07.86.69 1.44 1.68.58.98.8 2.23h-2.01q-.18-.85-.6-1.5-.42-.64-1.02-1.09-.59-.45-1.33-.67t-1.56-.22q-1.55 0-2.74.76-1.18.77-1.86 2.21-.67 1.43-.67 3.42 0 1.97.67 3.4.68 1.43 1.87 2.2t2.73.77q.82 0 1.55-.23.74-.22 1.34-.66t1.02-1.09.6-1.49h2.01q-.21 1.23-.79 2.22-.58.98-1.45 1.67-.87.7-1.95 1.07-1.09.37-2.33.37m13.93.02q-1.6 0-2.8-.77-1.21-.77-1.89-2.13-.68-1.37-.68-3.16 0-1.83.68-3.2.68-1.38 1.89-2.15 1.2-.76 2.8-.76 1.63 0 2.83.76 1.21.77 1.89 2.15.68 1.37.68 3.2 0 1.79-.68 3.16-.68 1.36-1.89 2.13-1.2.77-2.83.77m0-1.7q1.16 0 1.94-.58.77-.58 1.16-1.57.38-.99.38-2.21 0-1.25-.38-2.25-.39-.99-1.16-1.58-.78-.59-1.94-.59-1.13 0-1.9.59t-1.16 1.58q-.39 1-.39 2.25 0 1.22.39 2.21t1.16 1.57 1.9.58m12.33 1.68q-1.48 0-2.61-.76-1.14-.75-1.76-2.12-.63-1.37-.63-3.2t.63-3.19q.64-1.37 1.77-2.12 1.13-.74 2.61-.74.98 0 1.66.3.69.31 1.13.77.45.45.72.92h.09v-6.11h1.89v16.01h-1.83v-1.79h-.13q-.29.47-.75.94-.45.46-1.14.77-.68.32-1.65.32m.29-1.69q1.08 0 1.84-.55.76-.56 1.16-1.55t.4-2.3q0-1.32-.4-2.29-.4-.98-1.16-1.52-.76-.55-1.84-.55-1.07 0-1.83.55-.75.54-1.15 1.52-.4.97-.4 2.29t.4 2.31q.41.98 1.16 1.54.76.55 1.82.55m13.19 1.71q-1.71 0-2.93-.77-1.23-.77-1.88-2.13-.66-1.37-.66-3.15 0-1.79.66-3.17t1.85-2.17q1.2-.78 2.78-.78 1.05 0 1.99.36.94.37 1.66 1.11.72.75 1.13 1.87.41 1.13.41 2.64v.67h-9.32v-1.6h8.28l-.85.58q0-1.18-.38-2.07-.39-.89-1.13-1.38-.74-.5-1.79-.5-1.06 0-1.82.5t-1.17 1.36q-.41.85-.41 1.91v.95q0 1.26.44 2.17.43.92 1.24 1.42.8.49 1.9.49.75 0 1.35-.22.59-.23 1.01-.66.41-.43.6-1.04l1.86.29q-.26.99-.93 1.73-.67.75-1.66 1.17-1 .42-2.23.42m6.96 3.22.95-5.71h2.1l-1.63 5.71Zm18.91-3.24q-2.11 0-3.75-1.03-1.63-1.03-2.55-2.87-.93-1.85-.93-4.33 0-2.49.92-4.35.92-1.85 2.56-2.88 1.64-1.02 3.75-1.02 1.24 0 2.33.36 1.09.37 1.95 1.07.87.69 1.45 1.68.58.98.79 2.23h-2.01q-.18-.85-.6-1.5-.42-.64-1.01-1.09-.6-.45-1.33-.67-.74-.22-1.57-.22-1.54 0-2.73.76-1.19.77-1.86 2.21-.67 1.43-.67 3.42 0 1.97.67 3.4t1.86 2.2q1.2.77 2.73.77.83 0 1.56-.23.73-.22 1.33-.66t1.02-1.09.6-1.49h2.01q-.2 1.23-.78 2.22-.58.98-1.45 1.67-.87.7-1.96 1.07-1.08.37-2.33.37m13.94.02q-1.6 0-2.81-.77t-1.88-2.13q-.68-1.37-.68-3.16 0-1.83.68-3.2.67-1.38 1.88-2.15 1.21-.76 2.81-.76 1.62 0 2.83.76 1.21.77 1.89 2.15.67 1.37.67 3.2 0 1.79-.67 3.16-.68 1.36-1.89 2.13t-2.83.77m0-1.7q1.16 0 1.93-.58.78-.58 1.16-1.57.39-.99.39-2.21 0-1.25-.39-2.25-.38-.99-1.16-1.58-.77-.59-1.93-.59-1.14 0-1.91.59-.76.59-1.16 1.58-.39 1-.39 2.25 0 1.22.39 2.21.4.99 1.16 1.57.77.58 1.91.58m12.33 1.68q-1.48 0-2.62-.76-1.13-.75-1.76-2.12t-.63-3.2.64-3.19q.63-1.37 1.76-2.12 1.14-.74 2.62-.74.98 0 1.66.3.68.31 1.13.77.44.45.71.92h.1v-6.11h1.89v16.01h-1.84v-1.79h-.13q-.29.47-.74.94-.46.46-1.14.77-.68.32-1.65.32m.29-1.69q1.07 0 1.84-.55.76-.56 1.16-1.55.39-.99.39-2.3 0-1.32-.39-2.29-.4-.98-1.16-1.52-.77-.55-1.84-.55t-1.83.55q-.76.54-1.16 1.52-.39.97-.39 2.29t.4 2.31q.4.98 1.16 1.54.76.55 1.82.55m13.18 1.71q-1.7 0-2.93-.77-1.22-.77-1.88-2.13-.65-1.37-.65-3.15 0-1.79.66-3.17t1.85-2.17q1.19-.78 2.77-.78 1.05 0 1.99.36.94.37 1.66 1.11.72.75 1.14 1.87.41 1.13.41 2.64v.67h-9.32v-1.6h8.28l-.85.58q0-1.18-.39-2.07-.38-.89-1.12-1.38-.75-.5-1.8-.5t-1.81.5q-.77.5-1.17 1.36-.41.85-.41 1.91v.95q0 1.26.43 2.17.44.92 1.24 1.42.81.49 1.9.49.76 0 1.35-.22.6-.23 1.01-.66.42-.43.61-1.04l1.86.29q-.26.99-.93 1.73-.67.75-1.67 1.17-.99.42-2.23.42m5.9-.26 4.75-6.72-.01 1.45-4.49-6.44h2.21l1.52 2.29q.52.79.95 1.52t.88 1.43h-.95q.46-.7.87-1.43t.94-1.52l1.54-2.29h2.17l-4.5 6.49v-1.43l4.69 6.65h-2.2l-1.77-2.64q-.52-.78-.94-1.48-.43-.7-.87-1.38h.98q-.44.68-.85 1.38t-.92 1.48l-1.81 2.64Zm12.14 3.48.94-5.71h2.11l-1.64 5.71Zm10.92-3.48 5.86-16.01h2.29l5.86 16.01h-2.11l-3.38-9.56q-.32-.91-.73-2.19-.42-1.28-1.03-3.3h.46q-.6 2.03-1.02 3.32t-.73 2.17l-3.36 9.56Zm2.98-4.48v-1.75h8.06v1.75Zm14.86-2.47v6.95h-1.88v-11.71h1.83v2.84h-.38q.55-1.61 1.56-2.32 1.01-.7 2.36-.7 1.19 0 2.11.5.93.5 1.47 1.5.53 1 .53 2.52v7.37h-1.88v-7.22q0-1.43-.72-2.2-.72-.76-1.98-.76-.85 0-1.53.36t-1.08 1.07q-.41.71-.41 1.8m15.51-4.76v1.61h-6.17v-1.61Zm-4.27-2.96h1.88v11.72q0 .74.31 1.06.3.32 1.03.32.22 0 .5-.02.29-.02.52-.05l.22 1.61q-.29.05-.65.08-.36.04-.7.04-1.51 0-2.31-.75-.8-.74-.8-2.12Zm6.49 14.67v-11.71h1.88v11.71Zm.95-13.79q-.53 0-.92-.37-.38-.37-.38-.89 0-.53.38-.9.39-.37.92-.37.54 0 .93.37.38.37.38.9 0 .52-.38.89-.39.37-.93.37m8.84 18.5q-1.31 0-2.31-.37-.99-.37-1.64-1.02t-.92-1.5l1.7-.57q.21.47.61.88t1.02.66q.63.26 1.54.26 1.46 0 2.35-.74.89-.73.89-2.19v-2.11h-.1q-.31.49-.75.94-.45.45-1.12.74-.68.3-1.66.3-1.46 0-2.59-.71-1.14-.71-1.78-2.03-.63-1.32-.63-3.14 0-1.81.63-3.16t1.77-2.1q1.14-.74 2.62-.74.97 0 1.66.3.68.3 1.14.77.46.48.75.96h.11v-1.85h1.83v11.88q0 1.6-.7 2.61-.69 1-1.86 1.46-1.17.47-2.56.47m-.09-6.41q1.08 0 1.84-.51t1.16-1.46.4-2.24-.4-2.25-1.16-1.5q-.75-.55-1.84-.55-1.07 0-1.83.54t-1.16 1.51q-.4.96-.4 2.25 0 1.3.4 2.25.4.94 1.17 1.45.76.51 1.82.51m8.3 1.7v-11.71h1.8v1.82h.1q.32-.91 1.1-1.45.77-.54 1.84-.54.23 0 .49.01t.4.03v1.89q-.09-.02-.42-.07t-.72-.05q-.75 0-1.37.33t-.98.95q-.36.63-.36 1.51v7.28Zm11 .24q-1.13 0-2.05-.42-.91-.41-1.44-1.21t-.53-1.96q0-1.01.39-1.64t1.06-.99q.66-.36 1.48-.54t1.66-.29q1.08-.15 1.73-.23.66-.07.96-.25t.3-.61v-.08q0-.7-.29-1.2t-.85-.78-1.37-.28q-.83 0-1.44.27t-.99.69q-.37.43-.49.91l-1.86-.34q.28-1.07.97-1.77.7-.7 1.68-1.06.98-.35 2.09-.35.78 0 1.56.2t1.43.65q.65.46 1.04 1.24t.39 1.93v7.87h-1.86v-1.62h-.08q-.21.41-.64.84-.43.44-1.13.73-.69.29-1.72.29m.31-1.68q1.08 0 1.81-.41.72-.42 1.08-1.08t.36-1.39v-1.56q-.12.12-.47.22-.35.11-.81.19-.47.09-.95.15-.48.07-.84.11-.68.09-1.28.3-.6.2-.97.6-.36.39-.36 1.07 0 .58.3.98.31.4.86.61t1.27.21m11.21 1.44-4.5-11.71h2.06l2.51 6.85q.36.98.65 1.96.28.98.57 1.91h-.59q.3-.93.58-1.91t.63-1.96l2.5-6.85h2.04l-4.5 11.71Zm8.46 0v-11.71h1.88v11.71Zm.94-13.79q-.52 0-.91-.37t-.39-.89q0-.53.39-.9t.91-.37q.55 0 .93.37t.38.9q0 .52-.38.89t-.93.37m8.95 2.08v1.61h-6.17v-1.61Zm-4.27-2.96h1.88v11.72q0 .74.3 1.06.31.32 1.04.32.21 0 .5-.02.28-.02.52-.05l.21 1.61q-.29.05-.65.08-.36.04-.69.04-1.51 0-2.31-.75-.8-.74-.8-2.12Zm6.94 19.09.28-1.66.61.03q.48.09.88-.01.39-.11.7-.47.31-.35.56-1.04l.46-1.28-4.5-11.7h2.06l2.5 6.85q.37.99.65 1.96.29.98.58 1.91h-.6q.29-.93.58-1.91t.64-1.96l2.5-6.85h2.03l-5.25 13.64q-.34.87-.83 1.45t-1.13.87q-.64.28-1.43.28-.41 0-.74-.03-.34-.04-.55-.08m10.27-.94.95-5.71h2.1l-1.63 5.71Zm15.47-3.24q-1.13 0-2.05-.42-.91-.41-1.44-1.21t-.53-1.96q0-1.01.39-1.64t1.06-.99q.66-.36 1.48-.54t1.66-.29q1.08-.15 1.73-.23.66-.07.96-.25t.3-.61v-.08q0-.7-.29-1.2t-.85-.78-1.37-.28q-.83 0-1.44.27t-.99.69q-.37.43-.49.91l-1.86-.34q.28-1.07.97-1.77.7-.7 1.68-1.06.98-.35 2.09-.35.78 0 1.56.2t1.43.65q.65.46 1.04 1.24t.39 1.93v7.87h-1.86v-1.62h-.08q-.21.41-.64.84-.43.44-1.13.73-.69.29-1.72.29m.31-1.68q1.08 0 1.81-.41.72-.42 1.08-1.08t.36-1.39v-1.56q-.12.12-.47.22-.35.11-.81.19-.47.09-.95.15-.48.07-.84.11-.68.09-1.28.3-.6.2-.97.6-.36.39-.36 1.07 0 .58.3.98.31.4.86.61t1.27.21m10.09-5.51v6.95h-1.88v-11.71h1.83v2.84h-.38q.55-1.61 1.56-2.32 1.01-.7 2.36-.7 1.19 0 2.12.5.92.5 1.46 1.5.53 1 .53 2.52v7.37h-1.88v-7.22q0-1.43-.72-2.2-.72-.76-1.98-.76-.85 0-1.53.36t-1.08 1.07q-.41.71-.41 1.8m15.12 7.19q-1.48 0-2.62-.76-1.13-.75-1.76-2.12t-.63-3.2.64-3.19q.63-1.37 1.76-2.12 1.14-.74 2.62-.74.98 0 1.66.3.68.31 1.13.77.44.45.71.92h.1v-6.11h1.89v16.01h-1.84v-1.79h-.13q-.29.47-.74.94-.46.46-1.14.77-.69.32-1.65.32m.29-1.69q1.07 0 1.83-.55.77-.56 1.16-1.55.4-.99.4-2.3 0-1.32-.4-2.29-.39-.98-1.16-1.52-.76-.55-1.83-.55-1.08 0-1.83.55-.76.54-1.16 1.52-.4.97-.4 2.29t.41 2.31q.4.98 1.16 1.54.75.55 1.82.55m21.02 1.69q-2.14 0-3.77-1.03-1.62-1.03-2.54-2.88t-.92-4.32q0-2.49.92-4.35.92-1.85 2.53-2.88 1.62-1.02 3.7-1.02 1.28 0 2.39.38 1.1.39 1.98 1.1t1.46 1.69q.58.97.79 2.16h-2.04q-.21-.8-.63-1.43-.42-.64-1.01-1.1-.58-.46-1.32-.7-.75-.24-1.61-.24-1.49 0-2.66.76-1.18.77-1.86 2.2-.67 1.43-.67 3.43 0 1.97.67 3.4.68 1.43 1.87 2.2t2.72.77q1.35 0 2.41-.59 1.06-.58 1.67-1.65.61-1.06.61-2.49l.62.08h-4.78v-1.75h6.12v1.74q0 1.93-.87 3.4-.87 1.46-2.37 2.29t-3.41.83m9.42-.24v-11.71h1.8v1.82h.1q.32-.91 1.09-1.45.78-.54 1.85-.54.23 0 .49.01.25.01.39.03v1.89q-.08-.02-.41-.07t-.73-.05q-.75 0-1.37.33-.61.33-.97.95-.36.63-.36 1.51v7.28Zm12.24.26q-1.6 0-2.81-.77t-1.88-2.13q-.68-1.37-.68-3.16 0-1.83.68-3.2.67-1.38 1.88-2.15 1.21-.76 2.81-.76 1.62 0 2.83.76 1.21.77 1.89 2.15.67 1.37.67 3.2 0 1.79-.67 3.16-.68 1.36-1.89 2.13t-2.83.77m0-1.7q1.16 0 1.94-.58.77-.58 1.16-1.57.38-.99.38-2.21 0-1.25-.38-2.25-.39-.99-1.16-1.58-.78-.59-1.94-.59-1.14 0-1.9.59-.77.59-1.16 1.58-.4 1-.4 2.25 0 1.22.4 2.21.39.99 1.16 1.57.76.58 1.9.58m9.67-2.77v-2.29h.26l5.19-5.21h2.39l-5.54 5.55h-.2Zm-1.76 4.21v-16.01h1.88v16.01Zm7.56 0-4.61-5.74 1.34-1.32 5.67 7.06Zm10.22 0v-16.01h5.72q1.65 0 2.77.56 1.12.55 1.69 1.51.57.95.57 2.18 0 .99-.35 1.66-.34.67-.93 1.09-.58.43-1.34.65v.1q.83.1 1.57.56t1.21 1.29.47 2.05q0 1.27-.59 2.25-.58.99-1.8 1.55t-3.13.56Zm1.99-1.76h3.84q1.84 0 2.71-.71.87-.7.87-1.87 0-.85-.41-1.51t-1.19-1.04-1.88-.38h-3.94Zm0-7.22h3.71q.92 0 1.62-.33.7-.34 1.09-.94.4-.61.4-1.43 0-1.12-.78-1.84t-2.3-.72h-3.74Zm16.13 9.16q-1.18 0-2.12-.5-.93-.5-1.46-1.51-.54-1.01-.54-2.51v-7.37h1.88v7.22q0 1.42.73 2.19.72.76 1.98.76.85 0 1.53-.35.67-.36 1.08-1.08.4-.73.4-1.8v-6.94h1.89v11.71h-1.84v-2.84h.38q-.56 1.62-1.57 2.32t-2.34.7m8.46-.18v-11.71h1.88v11.71Zm.94-13.79q-.52 0-.91-.37t-.39-.89q0-.53.39-.9t.91-.37q.55 0 .93.37t.38.9q0 .52-.38.89t-.93.37m5.91-2.22v16.01h-1.88v-16.01Zm7.52 16.25q-1.48 0-2.61-.76-1.14-.75-1.76-2.12-.63-1.37-.63-3.2t.63-3.19q.64-1.37 1.77-2.12 1.13-.74 2.61-.74.98 0 1.66.3.69.31 1.13.77.45.45.72.92h.09v-6.11h1.89v16.01h-1.83v-1.79h-.13q-.29.47-.75.94-.46.46-1.14.77-.68.32-1.65.32m.29-1.69q1.08 0 1.84-.55.76-.56 1.16-1.55t.4-2.3q0-1.32-.4-2.29-.4-.98-1.16-1.52-.76-.55-1.84-.55-1.07 0-1.83.55-.76.54-1.15 1.52-.4.97-.4 2.29t.4 2.31q.41.98 1.16 1.54.76.55 1.82.55m14.18 1.45v-11.71h1.88v11.71Zm.95-13.79q-.53 0-.92-.37-.38-.37-.38-.89 0-.53.38-.9.39-.37.92-.37.54 0 .93.37.38.37.38.9 0 .52-.38.89-.39.37-.93.37m5.91 6.84v6.95h-1.88v-11.71h1.82v2.84h-.37q.54-1.61 1.55-2.32 1.01-.7 2.37-.7 1.18 0 2.11.5t1.46 1.5.53 2.52v7.37h-1.88v-7.22q0-1.43-.72-2.2-.72-.76-1.97-.76-.85 0-1.54.36-.68.36-1.08 1.07t-.4 1.8m16.57 6.95v-11.71h1.8v1.82h.1q.32-.91 1.09-1.45.78-.54 1.85-.54.23 0 .49.01.25.01.39.03v1.89q-.08-.02-.41-.07t-.73-.05q-.75 0-1.37.33-.61.33-.97.95-.36.63-.36 1.51v7.28Zm12.34.26q-1.71 0-2.93-.77-1.23-.77-1.88-2.13-.66-1.37-.66-3.15 0-1.79.66-3.17t1.85-2.17q1.2-.78 2.78-.78 1.05 0 1.99.36.94.37 1.66 1.11.72.75 1.13 1.87.42 1.13.42 2.64v.67h-9.33v-1.6h8.28l-.85.58q0-1.18-.38-2.07-.39-.89-1.13-1.38-.74-.5-1.79-.5-1.06 0-1.82.5t-1.17 1.36q-.41.85-.41 1.91v.95q0 1.26.44 2.17.43.92 1.24 1.42.8.49 1.9.49.75 0 1.35-.22.59-.23 1.01-.66.41-.43.6-1.04l1.86.29q-.26.99-.93 1.73-.67.75-1.66 1.17-1 .42-2.23.42m11.05-.02q-1.14 0-2.05-.42-.91-.41-1.45-1.21-.53-.8-.53-1.96 0-1.01.39-1.64.4-.63 1.06-.99.67-.36 1.49-.54.81-.18 1.66-.29 1.07-.15 1.73-.23.66-.07.96-.25t.3-.61v-.08q0-.7-.29-1.2t-.85-.78-1.38-.28-1.44.27q-.61.27-.98.69-.37.43-.5.91l-1.86-.34q.28-1.07.98-1.77t1.68-1.06q.97-.35 2.09-.35.77 0 1.55.2t1.43.65q.65.46 1.04 1.24.4.78.4 1.93v7.87h-1.86v-1.62h-.09q-.2.41-.63.84-.43.44-1.13.73t-1.72.29m.3-1.68q1.09 0 1.81-.41.73-.42 1.09-1.08t.36-1.39v-1.56q-.12.12-.47.22-.35.11-.82.19-.46.09-.94.15-.48.07-.85.11-.67.09-1.27.3-.61.2-.97.6-.37.39-.37 1.07 0 .58.31.98t.85.61q.55.21 1.27.21m10.1-14.57v16.01h-1.88v-16.01Zm13.8 4.3v1.61h-6.18v-1.61Zm-4.28-2.96h1.88v11.72q0 .74.31 1.06t1.04.32q.21 0 .5-.02.28-.02.52-.05l.21 1.61q-.29.05-.65.08-.36.04-.69.04-1.52 0-2.32-.75-.8-.74-.8-2.12Zm11.17 14.93q-1.71 0-2.93-.77-1.23-.77-1.88-2.13-.66-1.37-.66-3.15 0-1.79.66-3.17t1.85-2.17q1.2-.78 2.78-.78 1.05 0 1.99.36.94.37 1.66 1.11.72.75 1.13 1.87.42 1.13.42 2.64v.67h-9.33v-1.6h8.28l-.85.58q0-1.18-.38-2.07-.39-.89-1.13-1.38-.74-.5-1.79-.5-1.06 0-1.82.5t-1.17 1.36q-.41.85-.41 1.91v.95q0 1.26.44 2.17.43.92 1.24 1.42.8.49 1.9.49.75 0 1.35-.22.59-.23 1.01-.66.41-.43.6-1.04l1.86.29q-.26.99-.93 1.73-.67.75-1.66 1.17-1 .42-2.23.42m7.48-.26v-11.71h1.8v1.82h.1q.32-.91 1.1-1.45.77-.54 1.84-.54.23 0 .49.01t.39.03v1.89q-.08-.02-.41-.07t-.72-.05q-.76 0-1.37.33-.62.33-.98.95-.36.63-.36 1.51v7.28Zm7.94 0v-11.71h1.84v2.51h-.18q.29-.9.82-1.5.54-.61 1.24-.92.71-.3 1.48-.3 1.32 0 2.19.78.86.78 1.1 1.97h-.31q.22-.82.77-1.44t1.34-.96q.8-.35 1.75-.35 1.05 0 1.91.45t1.36 1.36.5 2.31v7.8h-1.88v-7.78q0-1.3-.73-1.86-.74-.57-1.7-.57-.82 0-1.41.34t-.91.94q-.33.59-.33 1.37v7.56h-1.89v-7.97q0-1.01-.67-1.62-.67-.62-1.7-.62-.7 0-1.32.33-.63.33-1.01.99-.38.65-.38 1.62v7.27Zm18.91 0v-11.71h1.88v11.71Zm.95-13.79q-.53 0-.92-.37-.38-.37-.38-.89 0-.53.38-.9.39-.37.92-.37.54 0 .93.37.38.37.38.9 0 .52-.38.89-.39.37-.93.37m5.91 6.84v6.95h-1.88v-11.71h1.82v2.84h-.37q.54-1.61 1.55-2.32 1.01-.7 2.37-.7 1.18 0 2.11.5t1.46 1.5.53 2.52v7.37h-1.88v-7.22q0-1.43-.72-2.2-.72-.76-1.98-.76-.84 0-1.53.36-.68.36-1.08 1.07t-.4 1.8m14.09 7.19q-1.14 0-2.05-.42-.92-.41-1.45-1.21t-.53-1.96q0-1.01.39-1.64.4-.63 1.06-.99.67-.36 1.48-.54.82-.18 1.67-.29 1.07-.15 1.73-.23.65-.07.95-.25.31-.18.31-.61v-.08q0-.7-.29-1.2t-.85-.78-1.38-.28q-.83 0-1.44.27t-.98.69q-.37.43-.5.91l-1.86-.34q.28-1.07.98-1.77t1.67-1.06q.98-.35 2.1-.35.77 0 1.55.2t1.43.65q.65.46 1.04 1.24t.39 1.93v7.87h-1.85v-1.62h-.09q-.2.41-.63.84-.43.44-1.13.73t-1.72.29m.3-1.68q1.09 0 1.81-.41.73-.42 1.09-1.08t.36-1.39v-1.56q-.12.12-.47.22-.35.11-.82.19-.47.09-.94.15-.48.07-.85.11-.67.09-1.28.3-.6.2-.96.6-.37.39-.37 1.07 0 .58.31.98.3.4.85.61t1.27.21m10.1-14.57v16.01h-1.88v-16.01Zm8.97 20.5v-16.2h1.83v1.81h.13q.28-.47.73-.92.45-.46 1.14-.77.69-.3 1.66-.3 1.5 0 2.63.74 1.12.75 1.76 2.12.63 1.36.63 3.19t-.63 3.2q-.64 1.37-1.76 2.12-1.13.76-2.63.76-.95 0-1.63-.32-.68-.31-1.13-.77-.46-.47-.75-.94h-.1v6.28Zm5.21-5.94q1.07 0 1.82-.55.75-.56 1.15-1.54.41-.99.41-2.31t-.4-2.29q-.4-.98-1.15-1.52-.76-.55-1.83-.55-1.08 0-1.84.55-.77.54-1.16 1.52-.4.97-.4 2.29 0 1.31.4 2.3.41.99 1.17 1.55.76.55 1.83.55m11.38 1.69q-1.14 0-2.05-.42-.92-.41-1.45-1.21t-.53-1.96q0-1.01.39-1.64.4-.63 1.06-.99.67-.36 1.48-.54.82-.18 1.67-.29 1.07-.15 1.73-.23.65-.07.95-.25.31-.18.31-.61v-.08q0-.7-.29-1.2t-.85-.78-1.38-.28q-.83 0-1.44.27t-.98.69q-.37.43-.5.91l-1.86-.34q.28-1.07.98-1.77t1.67-1.06q.98-.35 2.1-.35.77 0 1.55.2t1.43.65q.65.46 1.04 1.24t.39 1.93v7.87h-1.85v-1.62h-.09q-.2.41-.63.84-.43.44-1.13.73t-1.72.29m.3-1.68q1.09 0 1.81-.41.73-.42 1.09-1.08t.36-1.39v-1.56q-.12.12-.47.22-.35.11-.82.19-.47.09-.94.15-.48.07-.85.11-.67.09-1.28.3-.6.2-.96.6-.37.39-.37 1.07 0 .58.31.98.3.4.85.61t1.27.21m10.1-5.51v6.95h-1.88v-11.71h1.82v2.84h-.37q.55-1.61 1.56-2.32 1.01-.7 2.36-.7 1.18 0 2.11.5t1.46 1.5.53 2.52v7.37h-1.88v-7.22q0-1.43-.72-2.2-.72-.76-1.97-.76-.85 0-1.53.36-.69.36-1.09 1.07t-.4 1.8m15.57 7.21q-1.7 0-2.93-.77-1.22-.77-1.88-2.13-.65-1.37-.65-3.15 0-1.79.66-3.17t1.85-2.17q1.19-.78 2.77-.78 1.05 0 1.99.36.94.37 1.66 1.11.72.75 1.14 1.87.41 1.13.41 2.64v.67h-9.32v-1.6h8.28l-.85.58q0-1.18-.39-2.07-.38-.89-1.12-1.38-.75-.5-1.8-.5t-1.81.5q-.77.5-1.17 1.36-.41.85-.41 1.91v.95q0 1.26.43 2.17.44.92 1.24 1.42.81.49 1.9.49.76 0 1.35-.22.6-.23 1.01-.66.42-.43.61-1.04l1.86.29q-.26.99-.93 1.73-.67.75-1.67 1.17-.99.42-2.23.42m11.5 0q-1.22 0-2.19-.38-.98-.37-1.59-1.13-.62-.76-.77-1.88l1.81-.24q.2 1 .89 1.49.7.49 1.83.49 1.21 0 1.93-.51.72-.52.72-1.27 0-.62-.45-1.02-.45-.41-1.29-.6l-1.92-.45q-1.6-.39-2.41-1.19-.8-.81-.8-2.07 0-1 .55-1.77.56-.77 1.53-1.21.97-.43 2.23-.43 1.2 0 2.1.4t1.45 1.13q.54.72.71 1.7l-1.77.25q-.14-.77-.75-1.32-.62-.55-1.74-.55-1.07 0-1.74.5t-.67 1.24q0 .65.48 1.05t1.42.62l1.83.43q1.63.39 2.4 1.18.78.79.78 2.03 0 1.05-.59 1.84-.58.79-1.61 1.23-1.04.44-2.37.44"/><path fill="#9ba1ab" d="M102 394.69v1.75H80v-1.75Zm12.22 7.83q-1.6 0-2.81-.77t-1.88-2.13q-.68-1.37-.68-3.16 0-1.83.68-3.2.67-1.38 1.88-2.15 1.21-.76 2.81-.76 1.62 0 2.83.76 1.21.77 1.89 2.15.67 1.37.67 3.2 0 1.79-.67 3.16-.68 1.36-1.89 2.13t-2.83.77m0-1.7q1.16 0 1.93-.58.78-.58 1.16-1.57.39-.99.39-2.21 0-1.25-.39-2.25-.38-.99-1.16-1.58-.77-.59-1.93-.59-1.14 0-1.91.59-.76.59-1.16 1.58-.39 1-.39 2.25 0 1.22.39 2.21.4.99 1.16 1.57.77.58 1.91.58m7.9 1.44v-11.71h1.81v1.82h.1q.32-.91 1.09-1.45t1.85-.54q.22 0 .48.01t.4.03v1.89q-.09-.02-.41-.07-.33-.05-.73-.05-.75 0-1.37.33t-.98.95q-.36.63-.36 1.51v7.28Zm17.04.24q-1.14 0-2.05-.42-.91-.41-1.44-1.21-.54-.8-.54-1.96 0-1.01.4-1.64.39-.63 1.06-.99.66-.36 1.48-.54.81-.18 1.66-.29 1.08-.15 1.73-.23.66-.07.96-.25t.3-.61v-.08q0-.7-.29-1.2t-.85-.78-1.37-.28q-.83 0-1.44.27-.62.27-.99.69-.37.43-.5.91l-1.86-.34q.28-1.07.98-1.77t1.68-1.06q.98-.35 2.09-.35.78 0 1.56.2.77.2 1.42.65.65.46 1.05 1.24.39.78.39 1.93v7.87h-1.86v-1.62h-.09q-.2.41-.63.84-.43.44-1.13.73t-1.72.29m.3-1.68q1.09 0 1.81-.41.73-.42 1.09-1.08t.36-1.39v-1.56q-.12.12-.47.22-.35.11-.81.19-.47.09-.95.15-.48.07-.84.11-.68.09-1.28.3-.6.2-.97.6-.36.39-.36 1.07 0 .58.3.98.31.4.86.61.54.21 1.26.21m10.1-5.51v6.95h-1.88v-11.71h1.83v2.84h-.38q.55-1.61 1.56-2.32 1.01-.7 2.36-.7 1.18 0 2.11.5t1.46 1.5q.54 1 .54 2.52v7.37h-1.88v-7.22q0-1.43-.72-2.2-.72-.76-1.98-.76-.85 0-1.53.36t-1.09 1.07q-.4.71-.4 1.8m10.2 11.37.28-1.66.61.03q.48.09.87-.01.4-.11.71-.47.31-.35.56-1.04l.46-1.28-4.5-11.7h2.06l2.5 6.85q.37.99.65 1.96.29.98.58 1.91h-.6q.29-.93.58-1.91t.64-1.96l2.5-6.85h2.03l-5.25 13.64q-.34.87-.83 1.45t-1.13.87q-.64.28-1.43.28-.41 0-.74-.03-.34-.04-.55-.08m24.62-4.18q-2.08 0-3.7-1.03t-2.55-2.88-.93-4.32q0-2.49.93-4.34t2.55-2.88 3.7-1.03q2.09 0 3.71 1.03 1.61 1.03 2.54 2.88.92 1.85.92 4.34 0 2.47-.92 4.32-.93 1.85-2.54 2.88-1.62 1.03-3.71 1.03m0-1.86q1.44 0 2.62-.73t1.88-2.16q.71-1.43.71-3.48 0-2.08-.71-3.5-.7-1.43-1.88-2.16t-2.62-.73-2.63.73q-1.18.74-1.88 2.17t-.7 3.49q0 2.05.7 3.47.7 1.43 1.88 2.16 1.19.74 2.63.74m9.88 6.11v-16.2h1.82v1.81h.13q.28-.47.73-.92.45-.46 1.14-.77.69-.3 1.67-.3 1.49 0 2.62.74 1.12.75 1.76 2.12.63 1.36.63 3.19t-.63 3.2q-.64 1.37-1.76 2.12-1.13.76-2.62.76-.96 0-1.64-.32-.67-.31-1.13-.77-.46-.47-.75-.94h-.09v6.28Zm5.21-5.94q1.06 0 1.81-.55.75-.56 1.16-1.54.4-.99.4-2.31t-.4-2.29q-.4-.98-1.15-1.52-.76-.55-1.82-.55-1.09 0-1.85.55-.76.54-1.16 1.52-.4.97-.4 2.29 0 1.31.4 2.3.41.99 1.17 1.55.76.55 1.84.55m12.69 1.71q-1.71 0-2.94-.77-1.22-.77-1.88-2.13-.65-1.37-.65-3.15 0-1.79.66-3.17t1.85-2.17q1.19-.78 2.77-.78 1.06 0 2 .36.94.37 1.66 1.11.72.75 1.13 1.87.41 1.13.41 2.64v.67h-9.32v-1.6h8.28l-.85.58q0-1.18-.38-2.07-.39-.89-1.13-1.38-.74-.5-1.8-.5-1.05 0-1.81.5t-1.17 1.36q-.41.85-.41 1.91v.95q0 1.26.43 2.17.44.92 1.24 1.42.81.49 1.91.49.75 0 1.34-.22.6-.23 1.01-.66.42-.43.61-1.04l1.86.29q-.26.99-.93 1.73-.67.75-1.66 1.17-1 .42-2.23.42m9.36-7.21v6.95h-1.88v-11.71h1.82v2.84h-.37q.54-1.61 1.55-2.32 1.01-.7 2.37-.7 1.18 0 2.11.5t1.46 1.5.53 2.52v7.37h-1.88v-7.22q0-1.43-.72-2.2-.72-.76-1.98-.76-.84 0-1.53.36-.68.36-1.08 1.07t-.4 1.8m10.92 6.95v-16.01h5.68q1.79 0 3 .62t1.83 1.73q.62 1.1.62 2.55 0 1.46-.64 2.56-.64 1.09-1.86 1.7-1.23.61-3.01.61h-4.51v-1.77h4.51q1.19 0 1.98-.38.78-.38 1.17-1.07.38-.69.38-1.65 0-.95-.39-1.66-.39-.7-1.17-1.09-.79-.38-1.99-.38h-3.61v14.24Zm9.25 0-3.87-7.21h2.25l3.93 7.21Zm8.98.26q-1.6 0-2.8-.77-1.21-.77-1.89-2.13-.68-1.37-.68-3.16 0-1.83.68-3.2.68-1.38 1.89-2.15 1.2-.76 2.8-.76 1.63 0 2.83.76 1.21.77 1.89 2.15.68 1.37.68 3.2 0 1.79-.68 3.16-.68 1.36-1.89 2.13-1.2.77-2.83.77m0-1.7q1.16 0 1.94-.58.77-.58 1.16-1.57.38-.99.38-2.21 0-1.25-.38-2.25-.39-.99-1.16-1.58-.78-.59-1.94-.59-1.13 0-1.9.59t-1.16 1.58q-.39 1-.39 2.25 0 1.22.39 2.21t1.16 1.57 1.9.58m12.02 1.62q-1.18 0-2.11-.5-.94-.5-1.47-1.51t-.53-2.51v-7.37h1.88v7.22q0 1.42.72 2.19.73.76 1.99.76.84 0 1.52-.35.68-.36 1.08-1.08.4-.73.4-1.8v-6.94h1.89v11.71h-1.83v-2.84h.37q-.56 1.62-1.57 2.32t-2.34.7m13.29-11.89v1.61h-6.18v-1.61Zm-4.28-2.96h1.88v11.72q0 .74.31 1.06.3.32 1.03.32.22 0 .5-.02.29-.02.52-.05l.22 1.61q-.29.05-.65.08-.36.04-.69.04-1.52 0-2.32-.75-.8-.74-.8-2.12Zm11.17 14.93q-1.71 0-2.94-.77-1.22-.77-1.88-2.13-.65-1.37-.65-3.15 0-1.79.66-3.17t1.85-2.17q1.19-.78 2.77-.78 1.06 0 2 .36.94.37 1.65 1.11.72.75 1.14 1.87.41 1.13.41 2.64v.67h-9.32v-1.6h8.28l-.85.58q0-1.18-.39-2.07-.38-.89-1.12-1.38-.74-.5-1.8-.5-1.05 0-1.81.5-.77.5-1.17 1.36-.41.85-.41 1.91v.95q0 1.26.43 2.17.44.92 1.24 1.42.81.49 1.91.49.75 0 1.34-.22.6-.23 1.01-.66.42-.43.61-1.04l1.86.29q-.26.99-.93 1.73-.67.75-1.67 1.17-.99.42-2.22.42m7.48-.26v-11.71h1.8v1.82h.1q.32-.91 1.09-1.45.78-.54 1.85-.54.23 0 .48.01.26.01.4.03v1.89q-.09-.02-.41-.07-.33-.05-.73-.05-.75 0-1.37.33t-.98.95q-.35.63-.35 1.51v7.28Zm13.63 0v-11.71h1.84v2.51h-.19q.29-.9.83-1.5.54-.61 1.24-.92.71-.3 1.48-.3 1.32 0 2.18.78.87.78 1.11 1.97h-.32q.23-.82.78-1.44t1.34-.96q.8-.35 1.75-.35 1.04 0 1.9.45t1.37 1.36q.5.91.5 2.31v7.8h-1.88v-7.78q0-1.3-.73-1.86-.74-.57-1.71-.57-.81 0-1.4.34t-.92.94q-.32.59-.32 1.37v7.56h-1.89v-7.97q0-1.01-.67-1.62-.67-.62-1.7-.62-.7 0-1.32.33-.63.33-1.01.99-.38.65-.38 1.62v7.27Zm23.7.26q-1.6 0-2.81-.77t-1.89-2.13q-.67-1.37-.67-3.16 0-1.83.67-3.2.68-1.38 1.89-2.15 1.21-.76 2.81-.76 1.62 0 2.83.76 1.21.77 1.88 2.15.68 1.37.68 3.2 0 1.79-.68 3.16-.67 1.36-1.88 2.13t-2.83.77m0-1.7q1.16 0 1.93-.58.78-.58 1.16-1.57.39-.99.39-2.21 0-1.25-.39-2.25-.38-.99-1.16-1.58-.77-.59-1.93-.59-1.14 0-1.91.59t-1.16 1.58q-.39 1-.39 2.25 0 1.22.39 2.21t1.16 1.57 1.91.58m12.33 1.68q-1.48 0-2.62-.76-1.13-.75-1.76-2.12t-.63-3.2.64-3.19q.63-1.37 1.76-2.12 1.14-.74 2.62-.74.98 0 1.66.3.68.31 1.13.77.44.45.71.92h.1v-6.11h1.89v16.01h-1.84v-1.79h-.13q-.29.47-.74.94-.46.46-1.14.77-.68.32-1.65.32m.29-1.69q1.07 0 1.84-.55.76-.56 1.16-1.55.39-.99.39-2.3 0-1.32-.39-2.29-.4-.98-1.16-1.52-.77-.55-1.84-.55-1.08 0-1.83.55-.76.54-1.16 1.52-.4.97-.4 2.29t.41 2.31q.4.98 1.16 1.54.76.55 1.82.55m13.18 1.71q-1.71 0-2.93-.77t-1.88-2.13q-.65-1.37-.65-3.15 0-1.79.66-3.17t1.85-2.17q1.19-.78 2.77-.78 1.05 0 1.99.36.94.37 1.66 1.11.72.75 1.14 1.87.41 1.13.41 2.64v.67h-9.32v-1.6h8.28l-.85.58q0-1.18-.39-2.07-.38-.89-1.13-1.38-.74-.5-1.79-.5t-1.82.5q-.76.5-1.17 1.36-.4.85-.4 1.91v.95q0 1.26.43 2.17.44.92 1.24 1.42.81.49 1.9.49.75 0 1.35-.22.6-.23 1.01-.66t.61-1.04l1.86.29q-.26.99-.93 1.73-.67.75-1.67 1.17-.99.42-2.23.42m9.36-16.27v16.01h-1.88v-16.01Zm4.39 16.17q-.58 0-1-.41-.41-.42-.41-1t.41-.98q.42-.41 1-.41.59 0 .99.41.4.4.4.98t-.4 1q-.4.41-.99.41m17.1.08q-2.11 0-3.75-1.03-1.63-1.03-2.55-2.87-.93-1.85-.93-4.33 0-2.49.92-4.35.92-1.85 2.56-2.88 1.64-1.02 3.75-1.02 1.24 0 2.33.36 1.09.37 1.95 1.07.87.69 1.45 1.68.58.98.79 2.23h-2.01q-.18-.85-.6-1.5-.42-.64-1.01-1.09-.6-.45-1.33-.67-.74-.22-1.57-.22-1.54 0-2.73.76-1.19.77-1.86 2.21-.67 1.43-.67 3.42 0 1.97.67 3.4t1.86 2.2q1.2.77 2.73.77.83 0 1.56-.23.73-.22 1.33-.66t1.02-1.09.6-1.49h2.01q-.2 1.23-.78 2.22-.58.98-1.45 1.67-.87.7-1.96 1.07-1.08.37-2.33.37m13.94.02q-1.6 0-2.81-.77t-1.88-2.13q-.68-1.37-.68-3.16 0-1.83.68-3.2.67-1.38 1.88-2.15 1.21-.76 2.81-.76 1.62 0 2.83.76 1.21.77 1.89 2.15.67 1.37.67 3.2 0 1.79-.67 3.16-.68 1.36-1.89 2.13t-2.83.77m0-1.7q1.16 0 1.93-.58.78-.58 1.16-1.57.39-.99.39-2.21 0-1.25-.39-2.25-.38-.99-1.16-1.58-.77-.59-1.93-.59-1.14 0-1.91.59t-1.16 1.58q-.39 1-.39 2.25 0 1.22.39 2.21t1.16 1.57 1.91.58m7.9 1.44v-11.71h1.84v2.51h-.18q.29-.9.82-1.5.54-.61 1.25-.92.7-.3 1.47-.3 1.32 0 2.19.78.86.78 1.1 1.97h-.31q.22-.82.77-1.44t1.34-.96q.8-.35 1.76-.35 1.04 0 1.9.45t1.36 1.36q.51.91.51 2.31v7.8h-1.88v-7.78q0-1.3-.74-1.86-.74-.57-1.7-.57-.82 0-1.41.34t-.91.94q-.33.59-.33 1.37v7.56h-1.89v-7.97q0-1.01-.67-1.62-.67-.62-1.7-.62-.7 0-1.32.33t-1.01.99q-.38.65-.38 1.62v7.27Zm18.91 4.49v-16.2h1.83v1.81h.13q.28-.47.73-.92.45-.46 1.14-.77.68-.3 1.66-.3 1.49 0 2.62.74 1.13.75 1.76 2.12.64 1.36.64 3.19t-.64 3.2q-.63 1.37-1.76 2.12-1.13.76-2.62.76-.95 0-1.63-.32-.68-.31-1.13-.77-.46-.47-.75-.94h-.1v6.28Zm5.21-5.94q1.07 0 1.82-.55.75-.56 1.15-1.54.41-.99.41-2.31t-.4-2.29q-.4-.98-1.16-1.52-.75-.55-1.82-.55-1.08 0-1.85.55-.76.54-1.16 1.52-.39.97-.39 2.29 0 1.31.4 2.3t1.17 1.55q.76.55 1.83.55m11.38 1.69q-1.14 0-2.05-.42-.92-.41-1.45-1.21t-.53-1.96q0-1.01.39-1.64t1.06-.99q.66-.36 1.48-.54t1.67-.29q1.07-.15 1.73-.23.65-.07.95-.25t.3-.61v-.08q0-.7-.29-1.2t-.85-.78q-.55-.28-1.37-.28-.83 0-1.44.27t-.98.69q-.37.43-.5.91l-1.86-.34q.28-1.07.98-1.77.69-.7 1.67-1.06.98-.35 2.1-.35.77 0 1.55.2t1.43.65q.65.46 1.04 1.24t.39 1.93v7.87h-1.86v-1.62h-.08q-.21.41-.64.84-.43.44-1.12.73-.7.29-1.72.29m.3-1.68q1.08 0 1.81-.41.72-.42 1.08-1.08t.36-1.39v-1.56q-.12.12-.46.22-.35.11-.82.19-.47.09-.95.15-.47.07-.84.11-.68.09-1.28.3-.6.2-.96.6-.37.39-.37 1.07 0 .58.31.98.3.4.85.61t1.27.21m8.22 1.44v-11.71h1.8v1.82h.1q.32-.91 1.09-1.45.78-.54 1.85-.54.23 0 .48.01.26.01.4.03v1.89q-.09-.02-.41-.07-.33-.05-.73-.05-.75 0-1.37.33t-.97.95q-.36.63-.36 1.51v7.28Zm12.34.26q-1.71 0-2.94-.77-1.22-.77-1.88-2.13-.65-1.37-.65-3.15 0-1.79.66-3.17t1.85-2.17q1.2-.78 2.77-.78 1.06 0 2 .36.94.37 1.66 1.11.72.75 1.13 1.87.41 1.13.41 2.64v.67h-9.32v-1.6h8.28l-.85.58q0-1.18-.38-2.07-.39-.89-1.13-1.38-.74-.5-1.8-.5-1.05 0-1.81.5t-1.17 1.36q-.41.85-.41 1.91v.95q0 1.26.43 2.17.44.92 1.25 1.42.8.49 1.9.49.75 0 1.35-.22.59-.23 1-.66.42-.43.61-1.04l1.86.29q-.26.99-.93 1.73-.67.75-1.66 1.17-1 .42-2.23.42m13.36-.26v-11.71h1.8v1.82h.1q.32-.91 1.1-1.45.77-.54 1.84-.54.23 0 .49.01.25.01.39.03v1.89q-.08-.02-.41-.07t-.72-.05q-.76 0-1.37.33-.62.33-.98.95-.36.63-.36 1.51v7.28Zm11.87.18q-1.19 0-2.12-.5-.94-.5-1.47-1.51t-.53-2.51v-7.37h1.88v7.22q0 1.42.73 2.19.72.76 1.98.76.85 0 1.52-.35.68-.36 1.08-1.08.41-.73.41-1.8v-6.94h1.89v11.71h-1.84v-2.84h.38q-.56 1.62-1.57 2.32t-2.34.7m10.34-7.13v6.95h-1.88v-11.71h1.82v2.84h-.37q.54-1.61 1.55-2.32 1.01-.7 2.37-.7 1.18 0 2.11.5t1.46 1.5.53 2.52v7.37h-1.88v-7.22q0-1.43-.72-2.2-.72-.76-1.98-.76-.84 0-1.53.36-.68.36-1.08 1.07t-.4 1.8m14.7 7.21q-1.22 0-2.2-.38-.97-.37-1.59-1.13-.61-.76-.76-1.88l1.81-.24q.2 1 .89 1.49.7.49 1.83.49 1.21 0 1.93-.51.72-.52.72-1.27 0-.62-.45-1.02-.45-.41-1.29-.6l-1.92-.45q-1.6-.39-2.41-1.19-.8-.81-.8-2.07 0-1 .55-1.77t1.53-1.21q.97-.43 2.23-.43 1.2 0 2.1.4t1.45 1.13q.54.72.71 1.7l-1.77.25q-.14-.77-.75-1.32-.62-.55-1.74-.55-1.07 0-1.74.5t-.67 1.24q0 .65.48 1.05t1.42.62l1.83.43q1.63.39 2.4 1.18.78.79.78 2.03 0 1.05-.59 1.84-.58.79-1.62 1.23-1.03.44-2.36.44m15.56-.26-3.59-11.71h1.99l1.45 5.13q.31 1.1.64 2.39.32 1.29.65 2.76h-.29q.31-1.43.63-2.72.32-1.3.64-2.43l1.44-5.13h1.96l1.42 5.13q.31 1.12.63 2.41.31 1.29.63 2.74h-.32q.34-1.44.66-2.73.33-1.29.65-2.42l1.46-5.13H541l-3.59 11.71h-1.91l-1.54-5.31q-.22-.8-.44-1.63-.21-.84-.43-1.69-.21-.86-.42-1.73h.45q-.22.86-.43 1.72-.22.86-.44 1.7t-.44 1.63l-1.55 5.31Zm14.75 0v-11.71h1.88v11.71Zm.95-13.79q-.53 0-.92-.37-.38-.37-.38-.89 0-.53.38-.9.39-.37.92-.37.55 0 .93.37t.38.9q0 .52-.38.89t-.93.37m8.95 2.08v1.61h-6.18v-1.61Zm-4.28-2.96h1.88v11.72q0 .74.31 1.06.3.32 1.03.32.22 0 .5-.02.29-.02.52-.05l.22 1.61q-.29.05-.65.08-.36.04-.69.04-1.52 0-2.32-.75-.8-.74-.8-2.12Zm8.37 7.72v6.95h-1.88v-16.01h1.88v7.14h-.43q.55-1.61 1.56-2.32 1.01-.7 2.36-.7 1.19 0 2.11.5.93.5 1.47 1.5t.54 2.52v7.37h-1.89v-7.22q0-1.43-.72-2.2-.72-.76-1.98-.76-.85 0-1.53.36t-1.08 1.07q-.41.71-.41 1.8m21.47 7.21q-1.71 0-2.94-.77-1.22-.77-1.88-2.13-.65-1.37-.65-3.15 0-1.79.66-3.17t1.85-2.17q1.19-.78 2.77-.78 1.06 0 2 .36.94.37 1.66 1.11.72.75 1.13 1.87.41 1.13.41 2.64v.67h-9.32v-1.6h8.28l-.85.58q0-1.18-.38-2.07-.39-.89-1.13-1.38-.74-.5-1.8-.5-1.05 0-1.81.5t-1.17 1.36q-.41.85-.41 1.91v.95q0 1.26.43 2.17.44.92 1.25 1.42.8.49 1.9.49.75 0 1.34-.22.6-.23 1.01-.66.42-.43.61-1.04l1.86.29q-.26.99-.93 1.73-.67.75-1.66 1.17-1 .42-2.23.42m10.46-.26-4.5-11.71h2.06l2.51 6.85q.36.98.65 1.96.28.98.57 1.91h-.59q.3-.93.58-1.91t.63-1.96l2.5-6.85h2.04l-4.5 11.71Zm8.46 0v-11.71h1.88v11.71Zm.94-13.79q-.52 0-.91-.37t-.39-.89q0-.53.39-.9t.91-.37q.55 0 .93.37.39.37.39.9 0 .52-.39.89-.38.37-.93.37m8.46 14.03q-1.48 0-2.62-.76-1.13-.75-1.76-2.12t-.63-3.2.64-3.19q.63-1.37 1.76-2.12 1.14-.74 2.62-.74.98 0 1.66.3.68.31 1.13.77.44.45.71.92h.1v-6.11h1.89v16.01h-1.84v-1.79h-.13q-.29.47-.74.94-.46.46-1.14.77-.68.32-1.65.32m.29-1.69q1.07 0 1.84-.55.76-.56 1.16-1.55.39-.99.39-2.3 0-1.32-.39-2.29-.4-.98-1.16-1.52-.77-.55-1.84-.55t-1.83.55q-.76.54-1.16 1.52-.39.97-.39 2.29t.4 2.31q.4.98 1.16 1.54.76.55 1.82.55m13.18 1.71q-1.7 0-2.93-.77-1.22-.77-1.88-2.13-.65-1.37-.65-3.15 0-1.79.66-3.17t1.85-2.17q1.19-.78 2.77-.78 1.05 0 1.99.36.94.37 1.66 1.11.72.75 1.14 1.87.41 1.13.41 2.64v.67h-9.32v-1.6h8.28l-.85.58q0-1.18-.39-2.07-.38-.89-1.12-1.38-.75-.5-1.8-.5t-1.81.5q-.77.5-1.17 1.36-.41.85-.41 1.91v.95q0 1.26.43 2.17.44.92 1.24 1.42.81.49 1.9.49.76 0 1.35-.22.6-.23 1.01-.66.42-.43.61-1.04l1.86.29q-.26.99-.93 1.73-.67.75-1.67 1.17-.99.42-2.23.42m9.36-7.21v6.95h-1.88v-11.71h1.83v2.84h-.38q.55-1.61 1.56-2.32 1.01-.7 2.37-.7 1.18 0 2.11.5t1.46 1.5.53 2.52v7.37h-1.88v-7.22q0-1.43-.72-2.2-.72-.76-1.98-.76-.85 0-1.53.36t-1.08 1.07q-.41.71-.41 1.8m15.48 7.21q-1.6 0-2.81-.77-1.2-.77-1.88-2.13-.68-1.37-.68-3.16 0-1.83.68-3.2.68-1.38 1.88-2.15 1.21-.76 2.81-.76.92 0 1.71.25.8.26 1.43.74.63.47 1.07 1.13.43.66.63 1.48l-1.86.3q-.11-.49-.37-.89-.25-.4-.63-.7-.38-.29-.87-.45-.49-.17-1.11-.17-1.13 0-1.9.59t-1.16 1.58q-.4 1-.4 2.25 0 1.22.4 2.21.39.99 1.16 1.57t1.9.58q.63 0 1.12-.16.5-.16.87-.46t.62-.72q.26-.41.39-.9l1.86.29q-.18.81-.62 1.48-.43.67-1.07 1.16-.64.48-1.45.74-.8.27-1.72.27m12.2 0q-1.71 0-2.94-.77-1.22-.77-1.88-2.13-.65-1.37-.65-3.15 0-1.79.66-3.17t1.85-2.17q1.19-.78 2.77-.78 1.06 0 2 .36.94.37 1.66 1.11.72.75 1.13 1.87.41 1.13.41 2.64v.67h-9.32v-1.6h8.28l-.85.58q0-1.18-.38-2.07-.39-.89-1.13-1.38-.74-.5-1.8-.5-1.05 0-1.81.5t-1.17 1.36q-.41.85-.41 1.91v.95q0 1.26.43 2.17.44.92 1.24 1.42.81.49 1.91.49.75 0 1.34-.22.6-.23 1.01-.66.42-.43.61-1.04l1.86.29q-.26.99-.93 1.73-.67.75-1.66 1.17-1 .42-2.23.42m18.85-.02q-.96 0-1.64-.32-.68-.31-1.14-.77-.46-.47-.76-.94h-.13v1.79h-1.82v-16.01h1.88v6.11h.09q.28-.47.73-.92.45-.46 1.13-.77.68-.3 1.66-.3 1.49 0 2.62.74 1.13.75 1.76 2.12.63 1.36.63 3.19t-.63 3.2-1.76 2.12q-1.13.76-2.62.76m-.28-1.69q1.06 0 1.81-.55.76-.56 1.16-1.54.4-.99.4-2.31t-.4-2.29q-.39-.98-1.15-1.52-.76-.55-1.82-.55-1.09 0-1.85.55-.76.54-1.16 1.52-.4.97-.4 2.29 0 1.31.41 2.3.4.99 1.16 1.55.76.55 1.84.55m12.69 1.71q-1.71 0-2.93-.77-1.23-.77-1.88-2.13-.66-1.37-.66-3.15 0-1.79.66-3.17t1.85-2.17q1.2-.78 2.78-.78 1.05 0 1.99.36.94.37 1.66 1.11.72.75 1.13 1.87.41 1.13.41 2.64v.67h-9.32v-1.6h8.28l-.85.58q0-1.18-.38-2.07-.39-.89-1.13-1.38-.74-.5-1.79-.5-1.06 0-1.82.5t-1.17 1.36q-.41.85-.41 1.91v.95q0 1.26.44 2.17.43.92 1.24 1.42.8.49 1.9.49.75 0 1.35-.22.59-.23 1.01-.66.41-.43.6-1.04l1.86.29q-.26.99-.93 1.73-.67.75-1.66 1.17-1 .42-2.23.42m12.79-11.97v1.61h-6.67v-1.61ZM697 402.26v-13.5q0-.94.43-1.59.43-.66 1.16-1 .74-.33 1.63-.33.55 0 .95.06.39.06.55.12l-.3 1.61q-.11-.03-.4-.07-.28-.03-.6-.03-.81 0-1.18.39-.36.4-.36 1.2v13.14Zm10.99.26q-1.6 0-2.81-.77-1.2-.77-1.88-2.13-.68-1.37-.68-3.16 0-1.83.68-3.2.68-1.38 1.88-2.15 1.21-.76 2.81-.76 1.63 0 2.83.76 1.21.77 1.89 2.15.68 1.37.68 3.2 0 1.79-.68 3.16-.68 1.36-1.89 2.13-1.2.77-2.83.77m0-1.7q1.16 0 1.94-.58.77-.58 1.16-1.57.38-.99.38-2.21 0-1.25-.38-2.25-.39-.99-1.16-1.58-.78-.59-1.94-.59-1.14 0-1.9.59-.77.59-1.16 1.58-.4 1-.4 2.25 0 1.22.4 2.21.39.99 1.16 1.57.76.58 1.9.58m7.91 1.44v-11.71h1.8v1.82h.1q.32-.91 1.09-1.45.78-.54 1.85-.54.23 0 .49.01.25.01.39.03v1.89q-.08-.02-.41-.07t-.73-.05q-.75 0-1.37.33-.61.33-.97.95-.36.63-.36 1.51v7.28Zm12.34.26q-1.71 0-2.93-.77-1.23-.77-1.88-2.13-.66-1.37-.66-3.15 0-1.79.66-3.17t1.85-2.17q1.2-.78 2.78-.78 1.05 0 1.99.36.94.37 1.66 1.11.72.75 1.13 1.87.42 1.13.42 2.64v.67h-9.33v-1.6h8.28l-.85.58q0-1.18-.38-2.07-.39-.89-1.13-1.38-.74-.5-1.79-.5-1.06 0-1.82.5t-1.17 1.36q-.41.85-.41 1.91v.95q0 1.26.44 2.17.43.92 1.24 1.42.8.49 1.9.49.75 0 1.35-.22.59-.23 1.01-.66.41-.43.6-1.04l1.86.29q-.26.99-.93 1.73-.67.75-1.66 1.17-1 .42-2.23.42m13.29 4.16.27-1.66.62.03q.48.09.87-.01.39-.11.71-.47.31-.35.55-1.04l.47-1.28-4.5-11.7h2.06l2.5 6.85q.37.99.65 1.96.29.98.58 1.91h-.61q.29-.93.58-1.91t.65-1.96l2.5-6.85h2.03l-5.25 13.64q-.34.87-.83 1.45t-1.13.87q-.64.28-1.44.28-.4 0-.74-.03-.33-.04-.54-.08m16.3-4.16q-1.6 0-2.8-.77-1.21-.77-1.89-2.13-.68-1.37-.68-3.16 0-1.83.68-3.2.68-1.38 1.89-2.15 1.2-.76 2.8-.76 1.63 0 2.83.76 1.21.77 1.89 2.15.68 1.37.68 3.2 0 1.79-.68 3.16-.68 1.36-1.89 2.13-1.2.77-2.83.77m0-1.7q1.16 0 1.94-.58.77-.58 1.16-1.57.38-.99.38-2.21 0-1.25-.38-2.25-.39-.99-1.16-1.58-.78-.59-1.94-.59-1.13 0-1.9.59t-1.16 1.58q-.39 1-.39 2.25 0 1.22.39 2.21t1.16 1.57 1.9.58m12.02 1.62q-1.18 0-2.11-.5-.94-.5-1.47-1.51t-.53-2.51v-7.37h1.88v7.22q0 1.42.72 2.19.73.76 1.99.76.84 0 1.52-.35.68-.36 1.08-1.08.4-.73.4-1.8v-6.94h1.89v11.71h-1.83v-2.84h.37q-.56 1.62-1.57 2.32t-2.34.7m16.11-4.39v-2.29h.25l5.2-5.21h2.39l-5.54 5.55h-.2Zm-1.77 4.21v-16.01h1.88v16.01Zm7.57 0-4.61-5.74 1.34-1.32 5.67 7.06Zm8.5.26q-1.71 0-2.94-.77-1.22-.77-1.88-2.13-.65-1.37-.65-3.15 0-1.79.66-3.17t1.85-2.17q1.19-.78 2.77-.78 1.06 0 2 .36.94.37 1.66 1.11.72.75 1.13 1.87.41 1.13.41 2.64v.67h-9.32v-1.6h8.28l-.85.58q0-1.18-.38-2.07-.39-.89-1.13-1.38-.74-.5-1.8-.5-1.05 0-1.81.5t-1.17 1.36q-.41.85-.41 1.91v.95q0 1.26.43 2.17.44.92 1.25 1.42.8.49 1.9.49.75 0 1.34-.22.6-.23 1.01-.66.42-.43.61-1.04l1.86.29q-.26.99-.93 1.73-.67.75-1.66 1.17-1 .42-2.23.42m12.36 0q-1.7 0-2.93-.77-1.22-.77-1.88-2.13-.65-1.37-.65-3.15 0-1.79.66-3.17t1.85-2.17q1.19-.78 2.77-.78 1.05 0 1.99.36.94.37 1.66 1.11.72.75 1.14 1.87.41 1.13.41 2.64v.67h-9.32v-1.6h8.28l-.85.58q0-1.18-.39-2.07-.38-.89-1.12-1.38-.75-.5-1.8-.5t-1.81.5q-.77.5-1.17 1.36-.41.85-.41 1.91v.95q0 1.26.43 2.17.44.92 1.24 1.42.81.49 1.9.49.76 0 1.35-.22.6-.23 1.01-.66.42-.43.61-1.04l1.86.29q-.26.99-.93 1.73-.67.75-1.67 1.17-.99.42-2.23.42m7.48 4.23v-16.2h1.83v1.81h.13q.28-.47.73-.92.45-.46 1.14-.77.69-.3 1.66-.3 1.5 0 2.62.74 1.13.75 1.77 2.12.63 1.36.63 3.19t-.63 3.2q-.64 1.37-1.77 2.12-1.12.76-2.62.76-.95 0-1.63-.32-.68-.31-1.13-.77-.46-.47-.75-.94h-.1v6.28Zm5.21-5.94q1.07 0 1.82-.55.75-.56 1.15-1.54.41-.99.41-2.31t-.4-2.29q-.4-.98-1.15-1.52-.76-.55-1.83-.55-1.08 0-1.84.55-.77.54-1.16 1.52-.4.97-.4 2.29 0 1.31.4 2.3t1.17 1.55q.76.55 1.83.55"/><path fill="#9ba1ab" d="M84.95 435.5q-1.14 0-2.05-.42-.91-.41-1.44-1.21-.54-.8-.54-1.96 0-1.01.4-1.64.39-.63 1.05-.99.67-.36 1.49-.54.81-.18 1.66-.29 1.08-.15 1.73-.23.66-.07.96-.25t.3-.61v-.08q0-.7-.29-1.2t-.85-.78-1.38-.28-1.44.27q-.61.27-.98.69-.37.43-.5.91l-1.86-.34q.28-1.07.98-1.77t1.68-1.06q.97-.35 2.09-.35.78 0 1.55.2.78.2 1.43.65.65.46 1.04 1.24.4.78.4 1.93v7.87h-1.86v-1.62h-.09q-.2.41-.63.84-.43.44-1.13.73t-1.72.29m.3-1.68q1.09 0 1.81-.41.73-.42 1.09-1.08t.36-1.39v-1.56q-.12.12-.47.22-.35.11-.82.19-.46.09-.94.15-.48.07-.84.11-.68.09-1.28.3-.6.2-.97.6-.36.39-.36 1.07 0 .58.3.98.31.4.86.61.54.21 1.26.21m10.1-5.51v6.95h-1.88v-11.71h1.83v2.84h-.38q.55-1.61 1.56-2.32 1.01-.7 2.36-.7 1.18 0 2.11.5t1.46 1.5q.54 1 .54 2.52v7.37h-1.88v-7.22q0-1.43-.72-2.2-.72-.76-1.98-.76-.85 0-1.53.36t-1.09 1.07q-.4.71-.4 1.8m10.2 11.37.28-1.66.61.03q.48.09.87-.01.4-.11.71-.47.31-.35.56-1.04l.46-1.28-4.5-11.7h2.06l2.5 6.85q.37.99.65 1.96.29.98.58 1.91h-.61q.29-.93.58-1.91t.65-1.96l2.5-6.85h2.03l-5.25 13.64q-.34.87-.83 1.45t-1.13.87q-.64.28-1.43.28-.41 0-.75-.03-.33-.04-.54-.08m17.14-16.13v1.61h-6.18v-1.61Zm-4.28-2.96h1.88v11.72q0 .74.31 1.06.3.32 1.03.32.22 0 .5-.02.29-.02.52-.05l.22 1.61q-.29.05-.65.08-.36.04-.69.04-1.52 0-2.32-.75-.8-.74-.8-2.12Zm8.37 7.72v6.95h-1.88v-16.01h1.88v7.14h-.43q.55-1.61 1.56-2.32 1.01-.7 2.36-.7 1.19 0 2.12.5.92.5 1.46 1.5t.54 2.52v7.37h-1.89v-7.22q0-1.43-.72-2.2-.72-.76-1.98-.76-.85 0-1.53.36t-1.08 1.07q-.41.71-.41 1.8m10.7 6.95v-11.71h1.88v11.71Zm.94-13.79q-.52 0-.91-.37t-.39-.89q0-.53.39-.9t.91-.37q.55 0 .93.37t.38.9q0 .52-.38.89t-.93.37m5.91 6.84v6.95h-1.88v-11.71h1.83v2.84h-.38q.55-1.61 1.56-2.32 1.01-.7 2.36-.7 1.19 0 2.11.5.93.5 1.47 1.5.53 1 .53 2.52v7.37h-1.88v-7.22q0-1.43-.72-2.2-.72-.76-1.98-.76-.85 0-1.53.36t-1.08 1.07q-.41.71-.41 1.8m15.5 11.66q-1.31 0-2.3-.37t-1.64-1.02-.92-1.5l1.69-.57q.22.47.62.88.39.41 1.02.66.62.26 1.53.26 1.46 0 2.36-.74.89-.73.89-2.19v-2.11h-.11q-.3.49-.75.94-.44.45-1.12.74-.68.3-1.65.3-1.46 0-2.6-.71-1.13-.71-1.77-2.03t-.64-3.14q0-1.81.63-3.16.64-1.35 1.78-2.1 1.14-.74 2.62-.74.97 0 1.65.3.69.3 1.15.77.45.48.74.96h.11v-1.85h1.84v11.88q0 1.6-.7 2.61-.7 1-1.86 1.46-1.17.47-2.57.47m-.08-6.41q1.07 0 1.83-.51.77-.51 1.16-1.46.4-.95.4-2.24t-.4-2.25q-.39-.96-1.15-1.5-.76-.55-1.84-.55t-1.83.54q-.76.54-1.16 1.51-.41.96-.41 2.25 0 1.3.41 2.25.4.94 1.16 1.45t1.83.51m9.58 1.86q-.58 0-.99-.41-.41-.42-.41-1t.41-.98q.41-.41.99-.41.6 0 1 .41.4.4.4.98t-.4 1q-.4.41-1 .41m10.5-.16v-16.01h2.32l6.56 10.33q.23.36.58.95t.75 1.31q.41.72.78 1.5l-.23.17q-.07-.77-.11-1.58-.03-.81-.04-1.5-.02-.7-.02-1.13v-10.05h2v16.01h-2.35l-5.82-9.17-.74-1.19q-.4-.66-.93-1.57-.52-.91-1.22-2.13l.31-.23.09 2.22q.03.99.05 1.73.02.73.02 1.14v9.2Zm20.71.26q-1.6 0-2.81-.77t-1.89-2.13q-.67-1.37-.67-3.16 0-1.83.67-3.2.68-1.38 1.89-2.15 1.21-.76 2.81-.76 1.62 0 2.83.76 1.21.77 1.88 2.15.68 1.37.68 3.2 0 1.79-.68 3.16-.67 1.36-1.88 2.13t-2.83.77m0-1.7q1.16 0 1.93-.58.78-.58 1.16-1.57.39-.99.39-2.21 0-1.25-.39-2.25-.38-.99-1.16-1.58-.77-.59-1.93-.59-1.14 0-1.91.59t-1.16 1.58q-.39 1-.39 2.25 0 1.22.39 2.21t1.16 1.57 1.91.58m17.01 1.44-4.36-16.01h2.01l2.57 9.9q.21.78.39 1.58.18.79.35 1.6.18.8.33 1.63h-.24q.16-.83.33-1.63.17-.81.36-1.6.19-.8.39-1.58l2.61-9.9h2.29l2.59 9.9q.22.78.4 1.58.19.79.37 1.6.19.8.35 1.63h-.28q.16-.83.33-1.63.17-.81.37-1.6.19-.8.38-1.58l2.56-9.9h2.04l-4.38 16.01h-2.32l-2.77-10.22q-.28-1.03-.52-2.15-.25-1.12-.48-2.44h.42q-.23 1.26-.46 2.38-.23 1.11-.53 2.21l-2.77 10.22Zm23.52.27q-1.77 0-3.08-.6t-2.04-1.71q-.73-1.1-.79-2.58h2.05q.05 1.01.55 1.7.51.69 1.37 1.04t1.94.35q1.13 0 2-.34.86-.35 1.35-.99.5-.64.5-1.5 0-.72-.38-1.21t-1.09-.83q-.7-.34-1.7-.59l-1.87-.51q-2.16-.57-3.24-1.58-1.08-1.02-1.08-2.63 0-1.36.71-2.38t1.96-1.59q1.24-.56 2.84-.56 1.61 0 2.84.58 1.22.58 1.92 1.61.69 1.03.73 2.38h-1.95q-.12-1.31-1.1-2.04-.99-.74-2.5-.74-1.03 0-1.82.34t-1.23.94-.44 1.36q0 .75.43 1.23.43.49 1.14.81.7.32 1.54.54l1.7.44q.88.23 1.7.58.81.35 1.46.86.64.52 1.02 1.25.37.73.37 1.72 0 1.34-.7 2.39-.7 1.06-2 1.66t-3.11.6m8.66-.27v-16.01h1.99v14.25h7.55v1.76Zm11.68 0v-1.54l5.49-5.52q.95-.94 1.56-1.67.61-.72.91-1.39t.3-1.44q0-.9-.39-1.56-.4-.66-1.1-1.02-.7-.35-1.63-.35-.99 0-1.7.41-.72.41-1.1 1.15-.39.74-.39 1.75h-1.89q0-1.5.65-2.64.66-1.14 1.81-1.78t2.64-.64q1.47 0 2.59.6 1.13.61 1.77 1.66t.64 2.38q0 .93-.35 1.8-.34.86-1.12 1.85-.77.98-2.08 2.29l-3.88 3.82v.08h7.62v1.76Zm14.46.16q-.58 0-1-.41-.41-.42-.41-1t.41-.98q.42-.41 1-.41.59 0 .99.41.4.4.4.98t-.4 1q-.4.41-.99.41"/><path fill="#e8e8ec" d="m82.89 513.24-2.57-9.46h1.53l1.36 5.42q.13.5.24 1.04.1.54.21 1.1l.2 1.1h-.22q.11-.55.21-1.1.11-.56.23-1.1.11-.54.24-1.04l1.41-5.42h1.58l1.39 5.42q.14.5.25 1.04t.23 1.1q.11.55.21 1.1h-.23l.2-1.1q.1-.56.22-1.1l.23-1.04 1.37-5.42h1.53l-2.57 9.46h-1.67l-1.51-5.6q-.17-.67-.31-1.44-.15-.77-.3-1.7h.33q-.16.89-.29 1.64-.13.76-.33 1.5l-1.5 5.6Zm11.09 0v-7.1h1.39v7.1Zm.7-8.18q-.36 0-.62-.24t-.26-.59.26-.59.62-.24.62.24.26.59-.26.59-.62.24m3.97 3.98v4.2h-1.4v-7.1h1.33l.02 1.74h-.15q.31-.95.9-1.39t1.43-.44q.72 0 1.26.31.54.3.85.9.3.59.3 1.47v4.51h-1.4v-4.34q0-.76-.4-1.2-.4-.43-1.09-.43-.47 0-.85.21-.37.21-.59.6-.21.39-.21.96m9.06 4.34q-.87 0-1.54-.44t-1.05-1.26q-.38-.83-.38-1.97 0-1.15.38-1.97.39-.82 1.06-1.25.68-.44 1.53-.44.66 0 1.06.22t.63.51q.23.3.35.52h.08v-3.52h1.39v9.46h-1.35v-1.11h-.12q-.12.23-.35.52-.24.29-.64.51-.41.22-1.05.22m.3-1.19q.6 0 1.01-.31.41-.32.62-.88.21-.57.21-1.3 0-.74-.21-1.29t-.62-.86q-.4-.31-1.01-.31t-1.02.33q-.41.32-.62.87-.2.56-.2 1.26t.2 1.27q.21.56.63.89.41.33 1.01.33m8.08 1.2q-1 0-1.74-.46-.75-.46-1.16-1.28-.42-.83-.42-1.92 0-1.1.42-1.93.41-.83 1.16-1.29.74-.46 1.74-.46t1.75.46q.74.46 1.16 1.29.41.83.41 1.93 0 1.09-.41 1.92-.42.82-1.16 1.28-.75.46-1.75.46m0-1.18q.65 0 1.07-.34t.63-.91q.2-.56.2-1.23 0-.68-.2-1.25-.21-.57-.63-.91-.42-.33-1.07-.33-.64 0-1.06.33-.42.34-.63.91-.2.56-.2 1.25 0 .67.2 1.23.21.57.63.91t1.06.34m6.21 1.03-2.13-7.1h1.47l.78 2.94q.17.66.37 1.47.19.81.38 1.83h-.2q.18-.98.38-1.79.19-.82.37-1.51l.78-2.94h1.4l.77 2.94q.17.68.37 1.49.19.81.38 1.81h-.21q.19-.99.38-1.8t.36-1.5l.79-2.94h1.48l-2.14 7.1h-1.4l-.88-3.05q-.13-.47-.26-.97-.12-.51-.25-1.03-.12-.53-.24-1.05h.28q-.12.51-.24 1.04-.13.53-.25 1.05-.13.51-.26.96l-.88 3.05Zm11.76.15q-.76 0-1.36-.23-.6-.22-.99-.65-.38-.44-.51-1.07l1.32-.27q.14.55.54.82t1.02.27q.67 0 1.07-.29.4-.28.4-.67 0-.35-.24-.57-.25-.22-.76-.33l-1.19-.27q-.99-.22-1.47-.71t-.48-1.25q0-.64.35-1.11.36-.48.97-.74.62-.27 1.42-.27.77 0 1.32.23.54.22.88.62t.49.93l-1.25.27q-.14-.38-.47-.66t-.95-.28q-.58 0-.97.26t-.39.66q0 .35.26.57t.84.36l1.15.25q.98.22 1.46.7.47.47.47 1.22 0 .64-.37 1.14t-1.03.78q-.66.29-1.53.29m8.63-4.74v1.21h-4.2v-1.21Zm3.24.39v4.2h-1.39v-7.1h1.33l.01 1.74h-.14q.31-.95.9-1.39t1.42-.44q.73 0 1.27.31.54.3.84.9.31.59.31 1.47v4.51h-1.4v-4.34q0-.76-.4-1.2-.4-.43-1.1-.43-.47 0-.84.21-.38.21-.59.6-.22.39-.22.96m8.41 4.36q-.67 0-1.22-.25-.54-.25-.86-.74-.32-.48-.32-1.18 0-.6.23-.99.23-.38.63-.61t.88-.34q.49-.12.99-.18.63-.07 1.02-.12.4-.05.58-.16.19-.11.19-.36v-.04q0-.4-.15-.67t-.46-.42q-.3-.15-.75-.15-.46 0-.79.14-.34.15-.54.37-.21.22-.31.46l-1.32-.34q.25-.64.7-1.02.45-.39 1.03-.57t1.21-.18q.43 0 .91.11.48.1.91.36.42.27.69.75.27.49.27 1.26v4.71h-1.36v-.97h-.07q-.13.27-.41.53-.27.26-.69.43-.41.17-.99.17m.31-1.12q.57 0 .98-.23.4-.22.62-.59t.22-.78v-.91q-.08.08-.29.14t-.49.11q-.27.05-.52.08l-.42.05q-.4.05-.72.17-.33.12-.52.34-.2.23-.2.59 0 .34.18.57.17.23.47.34.3.12.69.12m8.12-6.14v1.14h-3.85v-1.14Zm-2.81-1.69h1.39v6.87q0 .43.18.63.19.2.6.2.11 0 .28-.03.18-.02.31-.05l.25 1.12q-.23.08-.48.11-.25.04-.5.04-.97 0-1.5-.5t-.53-1.4Zm4.2 8.79v-7.1h1.39v7.1Zm.7-8.18q-.36 0-.62-.24-.25-.24-.25-.59t.25-.59q.26-.24.62-.24t.62.24.26.59-.26.59-.62.24m4.6 8.18-2.68-7.1h1.51l1.41 4.03q.23.67.4 1.34.16.67.35 1.33h-.42q.18-.66.34-1.33.17-.67.39-1.34l1.41-4.03h1.49l-2.67 7.1Zm8.25.15q-1.04 0-1.81-.45-.76-.46-1.17-1.27-.41-.82-.41-1.93 0-1.09.41-1.92.4-.83 1.14-1.3.73-.47 1.72-.47.61 0 1.18.2.56.2 1.01.63.45.42.72 1.1.26.68.26 1.64v.5h-5.66v-1.04h4.94l-.65.34q0-.66-.2-1.15-.21-.5-.6-.78-.4-.28-1-.28-.59 0-1.01.29-.42.28-.63.75-.22.46-.22 1.02v.71q0 .73.25 1.23.25.51.7.76.45.26 1.05.26.39 0 .71-.11.31-.11.55-.34.23-.22.35-.55l1.31.31q-.17.54-.57.96-.41.42-1 .65-.6.24-1.37.24"/><path fill="#5c6370" d="M197.32 509.69q-.39 0-.66-.28-.28-.27-.28-.66t.28-.66q.27-.27.66-.27t.66.27q.28.27.28.66t-.28.66q-.27.28-.66.28"/><path fill="#e8e8ec" d="m213.62 513.24 3.36-9.46h1.78l3.43 9.46h-1.57l-1.84-5.26q-.22-.64-.48-1.51-.25-.87-.59-2.09h.29q-.32 1.23-.58 2.11t-.45 1.49l-1.79 5.26Zm1.82-2.49v-1.21h4.92v1.21Zm9.4-1.71v4.2h-1.39v-7.1h1.33l.01 1.74h-.14q.31-.95.9-1.39t1.43-.44q.72 0 1.26.31.54.3.84.9.31.59.31 1.47v4.51h-1.4v-4.34q0-.76-.4-1.2-.4-.43-1.1-.43-.47 0-.84.21-.38.21-.59.6-.22.39-.22.96m6.13 6.75.34-1.13.16.03q.36.1.65.05.29-.04.5-.27.21-.22.34-.68l.15-.52-2.69-7.13h1.51l1.4 4.03q.23.68.39 1.34.15.67.34 1.33h-.43q.18-.66.35-1.33t.4-1.34l1.43-4.03h1.5l-3.09 8.08q-.21.58-.53.96-.31.38-.74.57t-1.01.19q-.33 0-.59-.04-.26-.05-.38-.11m11.04-2.55v-7.1h1.32l.04 1.65h-.11q.15-.61.47-.99.32-.39.74-.58.43-.2.89-.2.78 0 1.25.48.48.48.65 1.34h-.18q.14-.59.48-.99.34-.41.83-.62.48-.21 1.04-.21.62 0 1.14.28.51.27.8.81.3.54.3 1.34v4.79h-1.39v-4.65q0-.71-.4-1.02-.4-.32-.94-.32-.43 0-.75.18-.32.19-.49.51-.17.33-.17.76v4.54h-1.38v-4.74q0-.57-.36-.91-.37-.34-.93-.34-.39 0-.72.18-.34.18-.54.53t-.2.87v4.41Zm14.52.15q-.99 0-1.74-.46-.74-.46-1.16-1.28-.41-.83-.41-1.92 0-1.1.41-1.93.42-.83 1.16-1.29.75-.46 1.74-.46 1.01 0 1.75.46.75.46 1.16 1.29t.41 1.93q0 1.09-.41 1.92-.41.82-1.16 1.28-.74.46-1.75.46m0-1.18q.65 0 1.07-.34.43-.34.63-.91.21-.56.21-1.23 0-.68-.21-1.25-.2-.57-.63-.91-.42-.33-1.07-.33-.64 0-1.06.33-.41.34-.62.91-.21.56-.21 1.25 0 .67.21 1.23.21.57.62.91.42.34 1.06.34m7.52 1.17q-.87 0-1.54-.44t-1.05-1.26q-.38-.83-.38-1.97 0-1.15.38-1.97.39-.82 1.06-1.25.68-.44 1.53-.44.66 0 1.06.22t.63.51q.23.3.35.52h.08v-3.52h1.39v9.46h-1.36v-1.11h-.11q-.12.23-.36.52-.23.29-.64.51-.4.22-1.04.22m.3-1.19q.6 0 1.01-.31.41-.32.62-.88.21-.57.21-1.3 0-.74-.21-1.29t-.62-.86-1.01-.31q-.62 0-1.02.33-.41.32-.62.87-.21.56-.21 1.26t.21 1.27q.21.56.62.89.42.33 1.02.33m8.15 1.2q-1.04 0-1.81-.45-.76-.46-1.17-1.27-.41-.82-.41-1.93 0-1.09.41-1.92.4-.83 1.14-1.3.73-.47 1.72-.47.61 0 1.18.2.56.2 1.01.63.45.42.72 1.1.26.68.26 1.64v.5h-5.66v-1.04h4.94l-.65.34q0-.66-.2-1.15-.21-.5-.6-.78-.4-.28-1-.28-.59 0-1.01.29-.42.28-.64.75-.21.46-.21 1.02v.71q0 .73.25 1.23.25.51.7.76.45.26 1.05.26.39 0 .71-.11.31-.11.55-.34.23-.22.35-.55l1.31.31q-.17.54-.57.96-.41.42-1.01.65-.6.24-1.36.24m5.97-9.61v9.46h-1.39v-9.46Z"/><path fill="#5c6370" d="M295.39 509.69q-.4 0-.67-.28-.27-.27-.27-.66t.27-.66.67-.27q.38 0 .66.27.27.27.27.66t-.27.66q-.28.28-.66.28"/><path fill="#e8e8ec" d="M316.38 513.37q-1.29 0-2.25-.59-.97-.59-1.51-1.68-.55-1.09-.55-2.58 0-1.51.55-2.6t1.51-1.68q.96-.58 2.18-.58.76 0 1.43.22.66.23 1.18.64.53.42.87.99.34.58.45 1.26h-1.48q-.13-.41-.35-.74-.22-.34-.53-.57-.31-.24-.7-.36t-.85-.12q-.8 0-1.44.4-.64.41-1.01 1.2t-.37 1.93.37 1.93 1.02 1.2q.64.41 1.48.41.76 0 1.33-.31t.88-.88q.32-.57.32-1.34l.37.06h-2.69v-1.19h3.73v1.09q0 1.19-.51 2.06t-1.4 1.35q-.88.48-2.03.48m5.63-.13v-7.1h1.4v7.1Zm.71-8.18q-.36 0-.62-.24t-.26-.59.26-.59.62-.24.62.24.26.59-.26.59-.62.24m5.6 1.08v1.14h-3.84v-1.14Zm-2.81-1.69h1.4v6.87q0 .43.18.63t.59.2q.11 0 .29-.03.17-.02.3-.05l.25 1.12q-.22.08-.48.11-.25.04-.5.04-.96 0-1.5-.5-.53-.5-.53-1.4Zm9.22 8.79-2.13-7.1h1.47l.78 2.94q.17.66.37 1.47.19.81.38 1.83h-.2q.18-.98.38-1.79.19-.82.37-1.51l.78-2.94h1.4l.77 2.94q.17.68.37 1.49.19.81.38 1.81h-.21q.19-.99.38-1.8t.36-1.5l.79-2.94h1.48l-2.14 7.1h-1.4l-.88-3.05q-.13-.47-.26-.97-.12-.51-.24-1.03-.13-.53-.25-1.05h.28q-.12.51-.24 1.04t-.25 1.05q-.13.51-.26.96l-.88 3.05Zm11.99.15q-1 0-1.74-.46-.75-.46-1.16-1.28-.42-.83-.42-1.92 0-1.1.42-1.93.41-.83 1.16-1.29.74-.46 1.74-.46t1.75.46q.74.46 1.15 1.29.42.83.42 1.93 0 1.09-.42 1.92-.41.82-1.15 1.28-.75.46-1.75.46m0-1.18q.65 0 1.07-.34t.63-.91q.2-.56.2-1.23 0-.68-.2-1.25-.21-.57-.63-.91-.42-.33-1.07-.33-.64 0-1.06.33-.42.34-.63.91-.2.56-.2 1.25 0 .67.2 1.23.21.57.63.91t1.06.34m4.87 1.03v-7.1h1.35v1.15h.08q.19-.59.68-.92t1.11-.33q.14 0 .31.01t.28.03v1.33q-.07-.02-.29-.05-.21-.02-.44-.02-.48 0-.87.2-.38.2-.6.56-.21.36-.21.83v4.31Zm6.52-2.39v-1.71h.23l2.8-3h1.68l-3.21 3.44h-.23Zm-1.29 2.39v-9.46h1.4v9.46Zm4.47 0-2.52-3.35.96-.99 3.28 4.34Zm5.83-7.1v1.14h-3.84v-1.14Zm-2.81-1.69h1.4v6.87q0 .43.18.63t.59.2q.11 0 .29-.03.18-.02.3-.05l.25 1.12q-.22.08-.48.11-.25.04-.5.04-.96 0-1.5-.5-.53-.5-.53-1.4Zm4.2 8.79v-7.1h1.35v1.15h.08q.2-.59.68-.92.49-.33 1.12-.33.13 0 .3.01t.29.03v1.33q-.08-.02-.3-.05-.21-.02-.43-.02-.49 0-.87.2-.39.2-.61.56-.21.36-.21.83v4.31Zm7.84.15q-1.05 0-1.81-.45-.76-.46-1.17-1.27-.41-.82-.41-1.93 0-1.09.4-1.92t1.14-1.3 1.73-.47q.61 0 1.17.2.57.2 1.02.63.45.42.71 1.1.27.68.27 1.64v.5h-5.66v-1.04h4.94l-.66.34q0-.66-.2-1.15-.2-.5-.6-.78t-.99-.28-1.01.29q-.42.28-.64.75-.22.46-.22 1.02v.71q0 .73.25 1.23.25.51.7.76.45.26 1.05.26.39 0 .71-.11t.55-.34q.23-.22.35-.55l1.32.31q-.17.54-.58.96-.4.42-1 .65-.6.24-1.36.24m7.63 0q-1.05 0-1.81-.45-.76-.46-1.17-1.27-.41-.82-.41-1.93 0-1.09.41-1.92.4-.83 1.13-1.3.74-.47 1.73-.47.61 0 1.18.2.56.2 1.01.63.45.42.72 1.1.26.68.26 1.64v.5h-5.66v-1.04h4.94l-.65.34q0-.66-.21-1.15-.2-.5-.6-.78-.39-.28-.99-.28-.59 0-1.01.29-.42.28-.64.75-.21.46-.21 1.02v.71q0 .73.25 1.23.25.51.7.76.45.26 1.04.26.4 0 .72-.11.31-.11.54-.34.24-.22.36-.55l1.31.31q-.17.54-.57.96-.41.42-1.01.65-.6.24-1.36.24m7.12 0q-.77 0-1.37-.23-.6-.22-.98-.65-.38-.44-.51-1.07l1.31-.27q.15.55.55.82t1.01.27q.68 0 1.08-.29.4-.28.4-.67 0-.35-.25-.57-.24-.22-.75-.33l-1.19-.27q-.99-.22-1.48-.71-.48-.49-.48-1.25 0-.64.36-1.11.35-.48.97-.74.61-.27 1.42-.27.77 0 1.31.23.55.22.89.62t.49.93l-1.25.27q-.14-.38-.47-.66t-.96-.28q-.57 0-.96.26t-.39.66q0 .35.26.57t.84.36l1.14.25q.99.22 1.46.7.48.47.48 1.22 0 .64-.37 1.14t-1.03.78q-.66.29-1.53.29"/><path fill="#5c6370" d="M410.59 509.69q-.39 0-.66-.28-.28-.27-.28-.66t.28-.66q.27-.27.66-.27t.66.27q.28.27.28.66t-.28.66q-.27.28-.66.28"/><path fill="#e8e8ec" d="M427.61 513.24v-9.46h1.67l3.56 5.63q.18.28.4.67t.47.87q.25.49.49 1.06h-.18q-.06-.54-.08-1.07-.03-.53-.05-.99-.01-.47-.01-.79v-5.38h1.47v9.46h-1.68l-3.19-5.03-.5-.84q-.24-.41-.54-.96-.29-.55-.72-1.34h.23q.03.7.06 1.31.04.6.05 1.07.02.46.02.74v5.05Zm12.71.15q-1 0-1.74-.46-.75-.46-1.16-1.28-.42-.83-.42-1.92 0-1.1.42-1.93.41-.83 1.16-1.29.74-.46 1.74-.46t1.75.46q.74.46 1.16 1.29.41.83.41 1.93 0 1.09-.41 1.92-.42.82-1.16 1.28-.75.46-1.75.46m0-1.18q.65 0 1.07-.34t.63-.91q.2-.56.2-1.23 0-.68-.2-1.25-.21-.57-.63-.91-.42-.33-1.07-.33-.64 0-1.06.33-.42.34-.63.91-.2.56-.2 1.25 0 .67.2 1.23.21.57.63.91t1.06.34m10.28 1.03-2.56-9.46h1.52l1.37 5.42q.12.5.23 1.04t.21 1.1q.11.55.2 1.1h-.21q.1-.55.21-1.1.1-.56.22-1.1.11-.54.25-1.04l1.4-5.42h1.59l1.39 5.42q.13.5.24 1.04.12.54.23 1.1.11.55.21 1.1h-.23q.11-.55.21-1.1.1-.56.22-1.1.11-.54.23-1.04l1.36-5.42h1.54l-2.58 9.46h-1.67l-1.5-5.6q-.17-.67-.32-1.44t-.3-1.7h.33q-.16.89-.29 1.64-.13.76-.32 1.5l-1.5 5.6Zm14.34.16q-1.06 0-1.84-.34-.78-.33-1.22-.96-.44-.62-.48-1.49h1.45q.04.52.33.85.29.34.76.5.46.17 1 .17.6 0 1.07-.19.46-.19.74-.53.27-.35.27-.8 0-.42-.24-.68t-.64-.44q-.4-.17-.92-.31l-1.1-.3q-1.16-.31-1.81-.92t-.65-1.58q0-.82.44-1.43.44-.62 1.2-.96.76-.33 1.71-.33.97 0 1.71.33.74.34 1.16.93t.44 1.35h-1.41q-.07-.65-.6-1-.53-.36-1.33-.36-.57 0-1 .18-.42.18-.65.49-.23.32-.23.72 0 .45.27.72.28.28.68.44.39.16.76.26l.92.24q.45.11.93.31.47.19.88.5t.66.76.25 1.09q0 .8-.41 1.43-.42.63-1.2.99t-1.9.36m5.23-.16v-9.46h1.45V512h4.28v1.24Zm7.22 0v-1.05l3.21-3.32q.49-.52.82-.92t.5-.77q.18-.36.18-.78 0-.48-.22-.82t-.6-.53q-.38-.18-.86-.18-.5 0-.88.2-.37.21-.57.58-.21.38-.21.89h-1.39q0-.87.4-1.52t1.1-1.01q.69-.35 1.58-.35.9 0 1.58.35.68.36 1.07.96.39.61.39 1.38 0 .52-.2 1.01-.19.5-.68 1.12-.48.62-1.36 1.51l-1.86 1.94v.07h4.24v1.24Z"/></svg>