<svg xmlns="http://www.w3.org/2000/svg" width="1280" height="640" aria-label="winsmux — Governance for AI agents on Windows." viewBox="0 0 1280 640"><defs><radialGradient id="b" cx="50%" cy="50%" r="60%"><stop offset="55%" stop-opacity="0"/><stop offset="100%" stop-opacity=".4"/></radialGradient><pattern id="a" width="40" height="40" x="0" y="0" patternUnits="userSpaceOnUse"><circle cx="20" cy="20" r="1" fill="#13161b"/></pattern></defs><path fill="#0b0d10" d="M0 0h1280v640H0z"/><path fill="url(#a)" d="M0 0h1280v640H0z"/><path fill="url(#b)" d="M0 0h1280v640H0z"/><path stroke="#5eead4" d="M80 132.5h32"/><path fill="#5c6370" d="m125.39 136.14-1.13-9.49h1.08l.74 7.02q.04.29.06.59.02.31.04.58t.02.45q.02-.18.04-.45t.05-.58l.08-.59.93-7.02h1.26l.86 7.02q.04.29.07.59.04.31.07.58t.04.45q.02-.18.04-.45t.05-.58l.06-.59.76-7.02h1.03l-1.16 9.49h-1.47l-.85-7.15-.06-.59q-.02-.28-.04-.53t-.03-.4q-.02.15-.04.4t-.04.53q-.03.29-.07.59l-.92 7.15Zm9.86 0v-1.07h1.93v-7.35h-1.93v-1.07h5.06v1.07h-1.93v7.35h1.93v1.07Zm9.68 0v-9.49h1.56l2.9 8.12q-.03-.32-.06-.79-.03-.48-.05-1.01-.02-.52-.02-.99v-5.33h1.13v9.49h-1.56l-2.89-8.13q.03.32.06.79l.04 1q.02.53.02 1.01v5.33Zm12.66.13q-.91 0-1.59-.33-.68-.32-1.05-.94t-.37-1.46h1.17q0 .79.5 1.24.51.45 1.34.45.81 0 1.29-.47t.48-1.22q0-.57-.31-.99-.3-.43-.87-.58l-1.45-.41q-.89-.26-1.41-.93-.51-.67-.51-1.58 0-.75.34-1.32t.95-.89 1.4-.32q.81 0 1.42.32.62.32.97.88.35.57.35 1.31h-1.17q0-.65-.44-1.06t-1.13-.41-1.12.41-.43 1.06q0 .52.28.89t.79.51l1.48.42q.95.26 1.48.98.52.72.52 1.71 0 .83-.35 1.44-.36.61-1.02.95-.65.34-1.54.34m6.87-.13v-9.49h1.72l1.21 4.11 1.26-4.11h1.73v9.49h-1.13v-4.49q0-.63.02-1.46.02-.82.06-1.67.04-.84.09-1.52l-1.53 4.9h-1.02l-1.47-4.78q.08.63.12 1.36t.05 1.52q.02.8.02 1.65v4.49Zm12.84.13q-1.33 0-2.03-.73-.7-.74-.7-2v-6.89h1.17v6.89q0 .78.38 1.23.39.46 1.18.46.78 0 1.17-.46.39-.45.39-1.23v-6.89h1.17v6.89q0 1.27-.7 2-.69.73-2.03.73m6.5-.13 2.73-4.81-2.59-4.68h1.35l1.47 2.81q.12.22.24.47.13.26.21.4.06-.14.18-.4.13-.25.24-.47l1.5-2.81h1.29l-2.59 4.6 2.73 4.89h-1.34l-1.62-3.02q-.12-.22-.24-.47-.13-.25-.19-.41-.07.16-.19.4-.13.25-.24.47l-1.64 3.03Zm23.14-3.38q-.48 0-.77-.29-.3-.28-.3-.74 0-.48.3-.78.29-.3.77-.3t.77.3q.3.3.3.78 0 .46-.3.74-.29.29-.77.29m18.95 3.38-2.44-9.49h1.2l1.62 6.46q.17.68.28 1.25t.16.87q.05-.3.18-.88.12-.58.29-1.25l1.56-6.45h1.21l-2.46 9.49Zm10.69.13q-.87 0-1.51-.34-.65-.35-1-.98t-.35-1.48v-4.16q0-.85.35-1.48.35-.62 1-.97.64-.34 1.51-.34.88 0 1.52.34.64.35.99.97.35.63.35 1.48v4.16q0 .85-.35 1.48t-1 .98q-.64.34-1.51.34m0-1q.78 0 1.25-.5.48-.5.48-1.3v-4.16q0-.79-.48-1.29-.47-.5-1.25-.5t-1.25.5q-.48.5-.48 1.29v4.16q0 .8.48 1.3.47.5 1.25.5m0-3.16q-.35 0-.57-.2-.21-.19-.21-.55t.21-.54q.22-.19.57-.19t.57.19q.21.18.21.54t-.21.55q-.22.2-.57.2m9.88 4.16q-.48 0-.77-.29-.3-.28-.3-.74 0-.48.3-.78.29-.3.77-.3t.77.3q.3.3.3.78 0 .46-.3.74-.29.29-.77.29m7.1-.13v-1.08l3.16-3.38q.69-.73.97-1.3.29-.57.29-1.12 0-.78-.45-1.24t-1.22-.46q-.79 0-1.25.47-.46.48-.46 1.28h-1.17q.02-.85.39-1.48.36-.63 1-.97t1.49-.34q.89 0 1.52.34.64.34.99.95.35.62.35 1.47 0 .67-.37 1.43-.37.75-1.26 1.69l-2.57 2.67h4.32v1.07Zm13.96 0v-2.08h-4.29v-1.83l3.46-5.58h1.32l-3.61 5.84v.5h3.12v-2.31h1.17v5.46Zm8.58.13q-.48 0-.77-.29-.3-.28-.3-.74 0-.48.3-.78.29-.3.77-.3t.77.3q.3.3.3.78 0 .46-.3.74-.29.29-.77.29m9.8 0q-1.31 0-2.08-.73-.77-.74-.77-2h1.17q0 .78.46 1.23.45.46 1.23.46t1.24-.46q.45-.45.45-1.23v-.59q0-.78-.44-1.23-.44-.46-1.19-.46h-2.59v-4.61h5.06v1.07h-3.97l.03 2.48h1.53q1.31 0 2.03.72.71.72.71 2.03v.59q0 1.26-.77 2-.77.73-2.1.73m19.84-3.51q-.48 0-.77-.29-.3-.28-.3-.74 0-.48.3-.78.29-.3.77-.3t.77.3q.3.3.3.78 0 .46-.3.74-.29.29-.77.29m16.51 3.38 2.47-9.49h1.57l2.46 9.49h-1.18l-.63-2.52h-2.87l-.62 2.52Zm2.05-3.51h2.4l-.73-2.93q-.21-.83-.33-1.39-.11-.56-.14-.72-.03.16-.14.72-.12.56-.33 1.38Zm8.38 3.51v-9.49h3.05q.88 0 1.53.34.65.35 1.01.97.36.63.36 1.48t-.36 1.48-1.01.98q-.65.34-1.53.34h-1.88v3.9Zm1.17-4.95h1.88q.77 0 1.23-.48.46-.47.46-1.27t-.46-1.27-1.23-.47h-1.88Zm8.16 4.95 2.47-9.49h1.57l2.46 9.49h-1.18l-.63-2.52h-2.87l-.62 2.52Zm2.05-3.51h2.4l-.73-2.93q-.21-.83-.33-1.39-.11-.56-.14-.72-.03.16-.14.72-.12.56-.33 1.38Zm11.18 3.64q-.85 0-1.48-.33-.64-.32-.98-.94t-.34-1.46v-4.29q0-.86.34-1.47t.98-.94q.63-.32 1.48-.32.86 0 1.49.33.62.33.96.94t.34 1.46h-1.17q0-.81-.43-1.24-.42-.44-1.19-.44-.76 0-1.2.44-.43.43-.43 1.24v4.29q0 .81.43 1.24.44.44 1.2.44.77 0 1.19-.44.43-.43.43-1.24h1.17q0 .83-.34 1.45t-.96.95q-.63.33-1.49.33m7.09-.13v-9.49h1.17v4.06h3.04v-4.06h1.17v9.49h-1.17v-4.37h-3.04v4.37Zm9.97 0v-9.49h5.46v1.07h-4.3v2.93h3.84v1.04h-3.84v3.38h4.3v1.07Zm19.58 0v-1.08l3.16-3.38q.69-.73.97-1.3.29-.57.29-1.12 0-.78-.45-1.24t-1.22-.46q-.79 0-1.25.47-.46.48-.46 1.28h-1.17q.02-.85.39-1.48.36-.63 1-.97t1.49-.34q.89 0 1.52.34.64.34.99.95.35.62.35 1.47 0 .67-.37 1.43-.37.75-1.26 1.69l-2.57 2.67h4.32v1.07Zm12.66.13q-.48 0-.77-.29-.3-.28-.3-.74 0-.48.3-.78.29-.3.77-.3t.77.3q.3.3.3.78 0 .46-.3.74-.29.29-.77.29m9.88 0q-.87 0-1.51-.34-.65-.35-1-.98t-.35-1.48v-4.16q0-.85.35-1.48.35-.62 1-.97.64-.34 1.51-.34.88 0 1.52.34.64.35.99.97.35.63.35 1.48v4.16q0 .85-.35 1.48t-1 .98q-.64.34-1.51.34m0-1q.78 0 1.25-.5.48-.5.48-1.3v-4.16q0-.79-.48-1.29-.47-.5-1.25-.5t-1.25.5q-.48.5-.48 1.29v4.16q0 .8.48 1.3.47.5 1.25.5m0-3.16q-.35 0-.57-.2-.21-.19-.21-.55t.21-.54q.22-.19.57-.19t.57.19q.21.18.21.54t-.21.55q-.22.2-.57.2"/><path fill="#e8e8ec" d="M113.13 236.67q-8.9 0-15.64-4.17-6.75-4.16-10.57-11.6-3.83-7.43-3.83-17.23 0-10.1 3.89-17.53t10.68-11.49 15.38-4.06q5.37 0 10.1 1.61t8.4 4.57q3.67 2.97 6.08 7.03t3.05 9.04h-11.6q-.56-2.75-1.93-4.94-1.38-2.19-3.44-3.8t-4.68-2.47q-2.63-.86-5.72-.86-5.71 0-9.95 2.86-4.23 2.85-6.53 7.97-2.3 5.11-2.3 12.07 0 6.88 2.32 12.01 2.32 5.14 6.56 7.97 4.23 2.84 9.94 2.84 4.82 0 8.53-1.94 3.72-1.93 5.89-5.41t2.17-8.08l2.88.22h-17.79v-8.98h26.04v7.77q0 7.74-3.61 13.75-3.61 6.02-9.91 9.44-6.29 3.41-14.41 3.41m53.47 0q-6.7 0-11.75-2.99-5.05-2.98-7.84-8.29-2.79-5.3-2.79-12.35 0-7.09 2.79-12.46t7.84-8.36 11.75-2.99q6.71 0 11.73 2.99 5.03 2.99 7.85 8.36 2.81 5.37 2.81 12.46 0 7.05-2.81 12.35-2.82 5.31-7.85 8.29-5.02 2.99-11.73 2.99m0-9.02q3.48 0 6.04-1.79 2.56-1.78 3.95-5.07 1.4-3.28 1.4-7.79 0-4.56-1.4-7.85-1.39-3.28-3.95-5.07-2.56-1.78-6.04-1.78t-6.03 1.78q-2.56 1.79-3.96 5.07-1.39 3.29-1.39 7.85 0 4.55 1.39 7.82 1.4 3.26 3.94 5.04 2.53 1.79 6.05 1.79m38.19 7.99-17.06-45.38h11.47l8.25 23.64q1.29 3.78 2.45 7.54t2.28 7.5h-2.62q1.2-3.74 2.32-7.5t2.36-7.54l8.12-23.64h11.35l-17.1 45.38Zm49.85 1.03q-6.88 0-11.82-3.05t-7.65-8.4-2.71-12.22q0-6.97 2.78-12.29 2.77-5.33 7.67-8.4 4.89-3.08 11.25-3.08 4.9 0 8.9 1.7 3.99 1.7 6.87 4.88t4.43 7.5q1.55 4.31 1.55 9.51v2.97h-39.15v-7.48h33.73l-4.9 1.98q0-3.78-1.35-6.6-1.35-2.81-3.89-4.34-2.53-1.52-6.01-1.52t-6 1.52q-2.51 1.53-3.89 4.32-1.37 2.79-1.37 6.66v4.68q0 3.92 1.37 6.88 1.38 2.96 4 4.62 2.62 1.65 6.4 1.65 2.71 0 4.81-.83 2.11-.84 3.53-2.3t1.97-3.4l10.19-.04q-.86 4.47-3.76 7.86-2.9 3.4-7.29 5.31-4.38 1.91-9.66 1.91m25.51-1.03v-45.38h10.45v7.52h.17q1.2-3.91 3.89-5.93 2.68-2.01 7.06-2.01 1.08 0 1.98.04t1.59.08v9.63q-.6-.04-2.06-.17t-3.09-.13q-2.54 0-4.62 1.18-2.09 1.18-3.29 3.54-1.2 2.37-1.2 5.89v25.74Zm39.59-25.65v25.65h-10.87v-45.38h10.65v11.52h-2.14q2.23-6.06 6.2-9.24 3.98-3.18 9.87-3.18 4.77 0 8.42 2.04t5.71 6.04q2.07 4 2.07 9.84v28.36h-10.88V209q0-4.99-2.38-7.56-2.39-2.58-6.73-2.58-2.87 0-5.11 1.16-2.23 1.16-3.52 3.63t-1.29 6.34m50.27 26.38q-4.51 0-8.06-1.52-3.54-1.53-5.56-4.56t-2.02-7.5q0-3.91 1.44-6.44 1.44-2.54 3.93-4.04 2.49-1.51 5.71-2.28t6.75-1.12q4.17-.47 6.64-.83 2.47-.37 3.52-1.08t1.05-2.3v-.3q0-1.93-.96-3.44-.97-1.5-2.84-2.36t-4.45-.86q-2.62 0-4.62.86-1.99.86-3.15 2.34-1.16 1.49-1.34 3.42h-10.39q.25-4.51 2.68-7.89 2.43-3.37 6.77-5.24t10.27-1.87q4.42 0 7.93 1.06 3.5 1.05 5.93 3.07 2.42 2.02 3.69 4.85 1.27 2.84 1.27 6.36v30.94h-10.7v-6.4h-.13q-1.12 1.97-2.79 3.61-1.68 1.63-4.26 2.58-2.57.94-6.31.94m2.66-8.03q3.57 0 5.97-1.29 2.41-1.29 3.63-3.42 1.23-2.13 1.23-4.79v-4.9q-.52.3-1.5.6-.99.3-2.33.58-1.33.28-2.94.56t-3.24.5q-2.28.34-4.26 1.07-1.97.73-3.13 2.04t-1.16 3.37q0 1.77.94 3.03.95 1.27 2.69 1.96t4.1.69m38.91-18.35v25.65h-10.87v-45.38h10.66v11.52h-2.15q2.23-6.06 6.21-9.24 3.97-3.18 9.86-3.18 4.77 0 8.42 2.04t5.72 6.04q2.06 4 2.06 9.84v28.36h-10.87V209q0-4.99-2.39-7.56-2.38-2.58-6.72-2.58-2.88 0-5.12 1.16-2.23 1.16-3.52 3.63t-1.29 6.34m56.54 26.68q-6.66 0-11.66-3.01-5.01-3-7.78-8.33t-2.77-12.29q0-7.01 2.77-12.4t7.78-8.4q5-3.01 11.66-3.01 4.21 0 7.84 1.27 3.64 1.27 6.34 3.59 2.71 2.32 4.36 5.46 1.66 3.13 2 6.96h-10.61q-.3-1.81-1.08-3.33-.77-1.53-2.04-2.62-1.26-1.1-2.94-1.7t-3.78-.6q-3.52 0-6.08 1.82-2.56 1.83-3.89 5.12-1.33 3.28-1.33 7.8 0 4.46 1.33 7.77t3.87 5.09q2.53 1.79 6.1 1.79 2.15 0 3.78-.58t2.81-1.68q1.19-1.09 1.98-2.62.8-1.52 1.18-3.42h10.75q-.35 3.74-1.96 6.9t-4.36 5.48-6.38 3.63-7.89 1.31m44.8 0q-6.87 0-11.81-3.05-4.95-3.05-7.65-8.4-2.71-5.35-2.71-12.22 0-6.97 2.77-12.29 2.77-5.33 7.67-8.4 4.9-3.08 11.26-3.08 4.9 0 8.89 1.7 4 1.7 6.88 4.88t4.42 7.5q1.55 4.31 1.55 9.51v2.97h-39.14v-7.48h33.73l-4.9 1.98q0-3.78-1.35-6.6-1.36-2.81-3.89-4.34-2.54-1.52-6.02-1.52t-5.99 1.52q-2.52 1.53-3.89 4.32-1.38 2.79-1.38 6.66v4.68q0 3.92 1.38 6.88 1.37 2.96 3.99 4.62 2.63 1.65 6.41 1.65 2.7 0 4.81-.83 2.1-.84 3.52-2.3t1.98-3.4l10.18-.04q-.86 4.47-3.76 7.86-2.9 3.4-7.28 5.31t-9.67 1.91m66.53-46.41v8.73h-28.28v-8.73Zm-20.11 45.38v-51.99q0-3.96 1.57-6.6t4.66-4.04q3.09-1.39 7.56-1.39h6.32v8.72h-4.17q-2.75 0-3.91 1.18t-1.16 3.93v50.19Zm42.99 1.03q-6.7 0-11.75-2.99-5.05-2.98-7.84-8.29-2.8-5.3-2.8-12.35 0-7.09 2.8-12.46 2.79-5.37 7.84-8.36t11.75-2.99 11.73 2.99 7.84 8.36q2.82 5.37 2.82 12.46 0 7.05-2.82 12.35-2.81 5.31-7.84 8.29-5.03 2.99-11.73 2.99m0-9.02q3.48 0 6.04-1.79 2.55-1.78 3.95-5.07 1.4-3.28 1.4-7.79 0-4.56-1.4-7.85-1.4-3.28-3.95-5.07-2.56-1.78-6.04-1.78t-6.04 1.78q-2.55 1.79-3.95 5.07-1.4 3.29-1.4 7.85 0 4.55 1.4 7.82 1.4 3.26 3.93 5.04 2.54 1.79 6.06 1.79m26.79 7.99v-45.38h10.44v7.52h.17q1.21-3.91 3.89-5.93 2.69-2.01 7.07-2.01 1.08 0 1.98.04t1.59.08v9.63q-.6-.04-2.06-.17-1.47-.13-3.1-.13-2.53 0-4.62 1.18-2.08 1.18-3.28 3.54-1.21 2.37-1.21 5.89v25.74Z"/><path fill="#e8e8ec" d="m80.56 323.64 22.86-64.02h14.22l22.82 64.02h-12.51L116.74 290q-1.72-5.33-3.55-11.35-1.82-6.01-4.19-14.14h3.14q-2.41 8.17-4.25 14.16-1.85 6-3.57 11.33l-11.56 33.64Zm13.58-15.3v-9.32h32.78v9.32Zm60.5-48.72v64.02h-11.39v-64.02Zm37.67 64.75q-4.51 0-8.06-1.52-3.54-1.53-5.56-4.56t-2.02-7.5q0-3.91 1.44-6.44 1.44-2.54 3.93-4.04 2.49-1.51 5.71-2.28 3.23-.77 6.75-1.12 4.17-.47 6.64-.83 2.47-.37 3.52-1.08t1.05-2.3v-.3q0-1.93-.96-3.44-.97-1.5-2.84-2.36t-4.45-.86q-2.62 0-4.61.86-2 .86-3.16 2.34-1.16 1.49-1.34 3.42h-10.39q.25-4.51 2.68-7.89 2.43-3.37 6.77-5.24t10.27-1.87q4.42 0 7.93 1.06 3.5 1.05 5.93 3.07 2.42 2.02 3.69 4.85 1.27 2.84 1.27 6.36v30.94h-10.7v-6.4h-.13q-1.12 1.97-2.79 3.61-1.68 1.63-4.26 2.58-2.57.94-6.31.94m2.66-8.03q3.57 0 5.97-1.29 2.41-1.29 3.64-3.42 1.22-2.13 1.22-4.79v-4.9q-.52.3-1.5.6-.99.3-2.32.58-1.34.28-2.95.56t-3.24.5q-2.28.34-4.26 1.07-1.97.73-3.13 2.04t-1.16 3.37q0 1.77.94 3.03.95 1.27 2.69 1.96t4.1.69m48.62 25.86q-5.97 0-10.33-1.74t-6.94-4.96-3.18-7.65l10.61-.04q.52 1.97 1.89 3.31 1.38 1.33 3.4 2.02 2.02.68 4.55.68 5.07 0 7.89-2.75 2.81-2.75 2.81-7.95v-6.87h-.04q-1.42 2.58-3.5 4.3-2.09 1.71-4.64 2.55-2.56.84-5.57.84-5.88 0-10.33-2.96-4.45-2.97-6.88-8.19-2.42-5.22-2.42-12.05 0-6.92 2.47-12.18 2.47-5.27 6.87-8.23 4.41-2.97 10.21-2.97 2.96 0 5.54.82t4.68 2.51q2.11 1.7 3.57 4.32h.09v-6.75h10.69v44.18q0 7.04-2.79 11.38t-7.65 6.36q-4.85 2.02-11 2.02m-.47-27.2q3.52 0 6.15-1.78 2.62-1.78 4.08-5.03 1.46-3.24 1.46-7.58t-1.46-7.59q-1.46-3.24-4.08-5.02-2.63-1.79-6.15-1.79-3.35 0-5.89 1.68-2.53 1.68-3.95 4.88t-1.42 7.84 1.42 7.84 3.95 4.88q2.54 1.67 5.89 1.67m48.52 9.67q-6.87 0-11.81-3.05-4.95-3.05-7.65-8.4-2.71-5.35-2.71-12.22 0-6.97 2.77-12.29 2.77-5.33 7.67-8.4 4.9-3.08 11.26-3.08 4.9 0 8.89 1.7 4 1.7 6.88 4.88t4.43 7.5q1.54 4.31 1.54 9.51v2.97h-39.14v-7.48h33.73l-4.9 1.98q0-3.78-1.35-6.6-1.36-2.81-3.89-4.34-2.54-1.52-6.02-1.52t-5.99 1.52q-2.52 1.53-3.89 4.32-1.38 2.79-1.38 6.66v4.68q0 3.92 1.38 6.88 1.37 2.96 4 4.62 2.62 1.65 6.4 1.65 2.7 0 4.81-.83 2.11-.84 3.52-2.3 1.42-1.46 1.98-3.4l10.18-.04q-.86 4.47-3.76 7.86-2.9 3.4-7.28 5.31t-9.67 1.91m36.39-26.68v25.65h-10.87v-45.38h10.66v11.52h-2.15q2.23-6.06 6.21-9.24 3.97-3.18 9.86-3.18 4.77 0 8.42 2.04t5.72 6.04q2.06 4 2.06 9.84v28.36h-10.87V297q0-4.99-2.39-7.56-2.38-2.58-6.72-2.58-2.88 0-5.12 1.16-2.23 1.16-3.52 3.63t-1.29 6.34m60.41-19.73v8.73h-28.06v-8.73Zm-20.11-12.37h10.83v44.73q0 2.41.99 3.37.99.97 3.61.97 1.07 0 2.45-.02 1.37-.02 2.23-.02v8.72h-6.53q-7 0-10.29-2.81-3.29-2.82-3.29-8.66Zm40.92 58.87q-5.58 0-9.94-1.74t-7.03-5.14q-2.66-3.39-3.01-8.25l10.7-.04q.35 3.35 2.67 5.18 2.32 1.82 6.4 1.82 3.91 0 6.17-1.54 2.25-1.55 2.25-3.96 0-2.06-1.65-3.31-1.66-1.24-4.54-1.84l-7.77-1.59q-6.49-1.38-9.84-4.67-3.35-3.28-3.35-8.44 0-4.17 2.23-7.3 2.23-3.14 6.36-4.9 4.12-1.76 9.71-1.76 5.5 0 9.67 1.84 4.17 1.85 6.55 5.23 2.39 3.37 2.51 8.01l-10.18.04q-.04-3.05-2.32-5.05t-6.02-2q-3.56 0-5.65 1.62-2.08 1.61-2.08 3.93 0 2.02 1.63 3.31 1.64 1.29 4.43 1.89l8.16 1.67q6.75 1.42 9.93 4.47t3.18 7.99q0 4.47-2.45 7.72-2.45 3.24-6.79 5.02-4.34 1.79-9.93 1.79"/><path fill="#5eead4" d="M469.87 324.67q-6.71 0-11.76-2.99-5.04-2.98-7.84-8.29-2.79-5.3-2.79-12.35 0-7.09 2.79-12.46 2.8-5.37 7.84-8.36 5.05-2.99 11.76-2.99 6.7 0 11.73 2.99 5.02 2.99 7.84 8.36 2.81 5.37 2.81 12.46 0 7.05-2.81 12.35-2.82 5.31-7.84 8.29-5.03 2.99-11.73 2.99m0-9.02q3.48 0 6.03-1.79 2.56-1.78 3.96-5.07 1.39-3.28 1.39-7.79 0-4.56-1.39-7.85-1.4-3.28-3.96-5.07-2.55-1.78-6.03-1.78t-6.04 1.78q-2.56 1.79-3.95 5.07-1.4 3.29-1.4 7.85 0 4.55 1.4 7.82 1.39 3.26 3.93 5.04 2.53 1.79 6.06 1.79m37.66-17.66v25.65h-10.87v-45.38h10.65v11.52h-2.14q2.23-6.06 6.2-9.24 3.98-3.18 9.87-3.18 4.77 0 8.42 2.04t5.71 6.04q2.07 4 2.07 9.84v28.36h-10.88V297q0-4.99-2.38-7.56-2.39-2.58-6.73-2.58-2.87 0-5.11 1.16-2.23 1.16-3.52 3.63t-1.29 6.34m66.27 25.65-17.28-64.02h11.99l8.47 34.5q.86 3.7 1.65 7.37.8 3.67 1.53 7.33.73 3.65 1.37 7.34h-2.02q.73-3.69 1.48-7.34.76-3.66 1.59-7.33.84-3.67 1.74-7.37l8.81-34.5h11.95l8.76 34.5q.95 3.7 1.79 7.37.83 3.67 1.61 7.33l1.55 7.34h-2.2q.69-3.69 1.44-7.34.76-3.66 1.55-7.33.8-3.67 1.65-7.37l8.43-34.5h12.07l-17.32 64.02h-12.84l-9.8-37.04q-1.07-4-2.02-8.53t-2.11-9.9h2.93q-1.16 5.37-2.11 9.9-.94 4.53-2.02 8.53l-9.75 37.04Zm70.21 0v-45.38h10.87v45.38Zm5.37-52.12q-2.75 0-4.59-1.78-1.85-1.79-1.85-4.37 0-2.62 1.85-4.4 1.84-1.78 4.59-1.78 2.8 0 4.64 1.78 1.85 1.78 1.85 4.36 0 2.62-1.85 4.41-1.84 1.78-4.64 1.78m22.88 26.47v25.65h-10.87v-45.38h10.65v11.52h-2.15q2.24-6.06 6.21-9.24 3.98-3.18 9.86-3.18 4.77 0 8.43 2.04 3.65 2.04 5.71 6.04t2.06 9.84v28.36h-10.87V297q0-4.99-2.38-7.56-2.39-2.58-6.73-2.58-2.88 0-5.11 1.16-2.24 1.16-3.52 3.63-1.29 2.47-1.29 6.34m53.96 26.55q-5.93 0-10.36-2.94-4.42-2.94-6.85-8.27t-2.43-12.42q0-6.96 2.47-12.29t6.9-8.29q4.43-2.97 10.18-2.97 3.01 0 5.57.82t4.62 2.41 3.48 4.08h.08v-25.05h10.88v64.02h-10.7v-6.92h-.09q-1.42 2.62-3.52 4.36-2.11 1.74-4.69 2.6t-5.54.86m2.58-9.06q3.52 0 6.14-1.79 2.62-1.78 4.08-5.07 1.47-3.28 1.47-7.71t-1.44-7.67-4.09-5.07q-2.64-1.83-6.16-1.83-3.35 0-5.89 1.7-2.53 1.7-3.95 4.94-1.42 3.25-1.42 7.93t1.42 7.93q1.42 3.24 3.95 4.94 2.54 1.7 5.89 1.7m48.73 9.19q-6.7 0-11.75-2.99-5.05-2.98-7.84-8.29-2.79-5.3-2.79-12.35 0-7.09 2.79-12.46t7.84-8.36 11.75-2.99q6.71 0 11.74 2.99 5.02 2.99 7.84 8.36 2.81 5.37 2.81 12.46 0 7.05-2.81 12.35-2.82 5.31-7.84 8.29-5.03 2.99-11.74 2.99m0-9.02q3.49 0 6.04-1.79 2.56-1.78 3.96-5.07 1.39-3.28 1.39-7.79 0-4.56-1.39-7.85-1.4-3.28-3.96-5.07-2.55-1.78-6.04-1.78-3.48 0-6.03 1.78-2.56 1.79-3.96 5.07-1.39 3.29-1.39 7.85 0 4.55 1.39 7.82 1.4 3.26 3.94 5.04 2.53 1.79 6.05 1.79m35.44 7.99-14.01-45.38h11.39l4.68 17.19q1.25 4.81 2.41 9.91 1.16 5.09 2.36 9.99h-1.46q1.2-4.94 2.47-10.01 1.27-5.08 2.6-9.89l4.81-17.19h10.01l4.77 17.19q1.34 4.81 2.56 9.91 1.22 5.09 2.47 9.99h-1.5q1.16-4.94 2.34-9.99t2.43-9.91l4.68-17.19h11.52l-14.01 45.38h-11.3l-5.5-18.86q-.82-2.84-1.57-5.74t-1.48-5.84q-.73-2.95-1.51-5.78h2.19q-.77 2.88-1.52 5.8t-1.48 5.84-1.59 5.72l-5.59 18.86Zm74.85 1.12q-5.58 0-9.95-1.74-4.36-1.74-7.02-5.14-2.67-3.39-3.01-8.25l10.7-.04q.34 3.35 2.66 5.18 2.32 1.82 6.41 1.82 3.91 0 6.16-1.54 2.26-1.55 2.26-3.96 0-2.06-1.66-3.31-1.65-1.24-4.53-1.84l-7.78-1.59q-6.48-1.38-9.84-4.67-3.35-3.28-3.35-8.44 0-4.17 2.24-7.3 2.23-3.14 6.36-4.9 4.12-1.76 9.71-1.76 5.5 0 9.66 1.84 4.17 1.85 6.56 5.23 2.38 3.37 2.51 8.01l-10.18.04q-.05-3.05-2.32-5.05-2.28-2-6.02-2-3.56 0-5.65 1.62-2.08 1.61-2.08 3.93 0 2.02 1.63 3.31t4.43 1.89l8.16 1.67q6.75 1.42 9.93 4.47t3.18 7.99q0 4.47-2.45 7.72-2.45 3.24-6.79 5.02-4.34 1.79-9.93 1.79m29.1-.35q-2.75 0-4.7-1.95-1.96-1.96-1.96-4.75 0-2.75 1.96-4.68 1.95-1.94 4.7-1.94 2.79 0 4.73 1.94 1.93 1.93 1.93 4.68 0 2.79-1.93 4.75-1.94 1.95-4.73 1.95"/><path fill="#9ba1ab" d="M81.78 396.16v-16.01h5.59q1.78 0 3 .64 1.21.64 1.83 1.77.63 1.13.63 2.58 0 1.46-.63 2.59t-1.86 1.78q-1.22.65-3 .65H83.1v-1.77h4.19q1.21 0 1.99-.41.79-.41 1.17-1.15.39-.74.39-1.69 0-.96-.39-1.68-.38-.73-1.17-1.14-.78-.4-2-.4h-3.51v14.24Zm18.09.26q-1.71 0-2.93-.77-1.23-.77-1.88-2.13-.66-1.37-.66-3.15 0-1.79.66-3.17t1.86-2.17q1.19-.78 2.77-.78 1.05 0 1.99.36.94.37 1.66 1.11.72.75 1.13 1.87.42 1.13.42 2.64v.67h-9.33v-1.6h8.29l-.85.58q0-1.18-.39-2.07t-1.13-1.38q-.74-.5-1.79-.5t-1.82.5q-.76.5-1.17 1.36-.41.85-.41 1.91v.95q0 1.26.44 2.17.43.92 1.24 1.42.8.49 1.9.49.75 0 1.35-.22.59-.23 1.01-.66.41-.43.61-1.04l1.85.29q-.25.99-.93 1.73-.67.75-1.66 1.17t-2.23.42m7.48-.26v-11.71h1.81v1.82h.09q.32-.91 1.1-1.45.77-.54 1.85-.54.22 0 .48.01t.4.03v1.89q-.09-.02-.42-.07-.32-.05-.72-.05-.75 0-1.37.33t-.98.95q-.36.63-.36 1.51v7.28Zm7.94 0v-11.71h1.84v2.51h-.18q.29-.9.83-1.5.53-.61 1.24-.92.7-.3 1.47-.3 1.32 0 2.19.78.86.78 1.1 1.97h-.31q.22-.82.77-1.44t1.35-.96q.79-.35 1.75-.35 1.04 0 1.9.45t1.36 1.36q.51.91.51 2.31v7.8h-1.88v-7.78q0-1.3-.74-1.86-.74-.57-1.7-.57-.82 0-1.41.34t-.91.94q-.32.59-.32 1.37v7.56h-1.9v-7.97q0-1.01-.67-1.62-.67-.62-1.7-.62-.7 0-1.32.33t-1 .99q-.39.65-.39 1.62v7.27Zm18.91 0v-11.71h1.88v11.71Zm.95-13.79q-.53 0-.92-.37-.38-.37-.38-.89 0-.53.38-.9.39-.37.92-.37.55 0 .93.37t.38.9q0 .52-.38.89t-.93.37m8.05 14.05q-1.23 0-2.2-.38-.97-.37-1.59-1.13t-.77-1.88l1.82-.24q.19 1 .89 1.49t1.82.49q1.22 0 1.94-.51.72-.52.72-1.27 0-.62-.45-1.02-.46-.41-1.29-.6l-1.93-.45q-1.6-.39-2.4-1.19-.81-.81-.81-2.07 0-1 .56-1.77.55-.77 1.52-1.21.97-.43 2.23-.43 1.2 0 2.11.4.9.4 1.44 1.13.54.72.71 1.7l-1.77.25q-.14-.77-.75-1.32t-1.74-.55q-1.06 0-1.74.5-.67.5-.67 1.24 0 .65.48 1.05t1.42.62l1.83.43q1.63.39 2.41 1.18.77.79.77 2.03 0 1.05-.58 1.84-.59.79-1.62 1.23t-2.36.44m11.09 0q-1.23 0-2.2-.38-.97-.37-1.59-1.13t-.77-1.88l1.82-.24q.19 1 .89 1.49t1.83.49q1.21 0 1.93-.51.72-.52.72-1.27 0-.62-.45-1.02-.45-.41-1.29-.6l-1.92-.45q-1.6-.39-2.41-1.19-.81-.81-.81-2.07 0-1 .56-1.77.55-.77 1.52-1.21.97-.43 2.23-.43 1.2 0 2.11.4.9.4 1.44 1.13.54.72.72 1.7l-1.78.25q-.14-.77-.75-1.32t-1.74-.55q-1.06 0-1.73.5t-.67 1.24q0 .65.47 1.05.48.4 1.43.62l1.82.43q1.64.39 2.41 1.18t.77 2.03q0 1.05-.58 1.84-.59.79-1.62 1.23t-2.36.44m7.07-.26v-11.71h1.88v11.71Zm.95-13.79q-.53 0-.92-.37-.38-.37-.38-.89 0-.53.38-.9.39-.37.92-.37.54 0 .93.37.38.37.38.9 0 .52-.38.89-.39.37-.93.37m8.82 14.05q-1.6 0-2.81-.77t-1.89-2.13q-.67-1.37-.67-3.16 0-1.83.67-3.2.68-1.38 1.89-2.15 1.21-.76 2.81-.76 1.62 0 2.83.76 1.21.77 1.88 2.15.68 1.37.68 3.2 0 1.79-.68 3.16-.67 1.36-1.88 2.13t-2.83.77m0-1.7q1.16 0 1.93-.58t1.16-1.57.39-2.21q0-1.25-.39-2.25-.39-.99-1.16-1.58t-1.93-.59q-1.14 0-1.91.59t-1.16 1.58q-.39 1-.39 2.25 0 1.22.39 2.21t1.16 1.57 1.91.58m9.78-5.51v6.95h-1.88v-11.71h1.83v2.84h-.38q.55-1.61 1.56-2.32 1.01-.7 2.36-.7 1.18 0 2.11.5t1.46 1.5q.54 1 .54 2.52v7.37h-1.88v-7.22q0-1.43-.72-2.2-.72-.76-1.98-.76-.85 0-1.53.36t-1.09 1.07q-.4.71-.4 1.8m14.71 7.21q-1.23 0-2.2-.38-.97-.37-1.59-1.13t-.77-1.88l1.82-.24q.19 1 .89 1.49t1.83.49q1.21 0 1.93-.51.72-.52.72-1.27 0-.62-.45-1.02-.45-.41-1.29-.6l-1.92-.45q-1.6-.39-2.41-1.19-.81-.81-.81-2.07 0-1 .56-1.77.55-.77 1.52-1.21.97-.43 2.23-.43 1.2 0 2.11.4.9.4 1.44 1.13.54.72.72 1.7l-1.78.25q-.14-.77-.75-1.32t-1.74-.55q-1.06 0-1.73.5t-.67 1.24q0 .65.47 1.05.48.4 1.43.62l1.82.43q1.64.39 2.41 1.18t.77 2.03q0 1.05-.58 1.84-.59.79-1.62 1.23t-2.36.44m6.56 3.22.94-5.71h2.11l-1.64 5.71Zm15.47-3.24q-1.14 0-2.05-.42-.92-.41-1.45-1.21t-.53-1.96q0-1.01.39-1.64t1.06-.99 1.48-.54q.82-.18 1.67-.29 1.07-.15 1.73-.23.65-.07.95-.25t.3-.61v-.08q0-.7-.29-1.2t-.85-.78q-.55-.28-1.37-.28-.83 0-1.44.27t-.98.69q-.37.43-.5.91l-1.86-.34q.28-1.07.98-1.77t1.67-1.06q.98-.35 2.1-.35.77 0 1.55.2t1.43.65q.65.46 1.04 1.24t.39 1.93v7.87h-1.86v-1.62h-.08q-.21.41-.64.84-.43.44-1.12.73-.7.29-1.72.29m.3-1.68q1.08 0 1.81-.41.72-.42 1.08-1.08t.36-1.39v-1.56q-.11.12-.46.22-.35.11-.82.19-.47.09-.95.15-.47.07-.84.11-.68.09-1.28.3-.6.2-.96.6-.37.39-.37 1.07 0 .58.31.98.3.4.85.61t1.27.21m8.22 5.93v-16.2h1.82v1.81h.13q.28-.47.73-.92.45-.46 1.14-.77.69-.3 1.67-.3 1.49 0 2.62.74 1.12.75 1.76 2.12.63 1.36.63 3.19t-.63 3.2q-.64 1.37-1.76 2.12-1.13.76-2.62.76-.96 0-1.64-.32-.67-.31-1.13-.77-.46-.47-.75-.94h-.09v6.28Zm5.21-5.94q1.06 0 1.81-.55.75-.56 1.16-1.54.4-.99.4-2.31t-.4-2.29q-.4-.98-1.15-1.52-.76-.55-1.82-.55-1.09 0-1.85.55-.76.54-1.16 1.52-.4.97-.4 2.29 0 1.31.4 2.3.41.99 1.17 1.55.76.55 1.84.55m7.8 5.94v-16.2h1.83v1.81h.12q.28-.47.73-.92.46-.46 1.14-.77.69-.3 1.67-.3 1.49 0 2.62.74 1.13.75 1.76 2.12.63 1.36.63 3.19t-.63 3.2-1.76 2.12q-1.13.76-2.62.76-.96 0-1.63-.32-.68-.31-1.14-.77-.45-.47-.74-.94h-.1v6.28Zm5.21-5.94q1.06 0 1.81-.55.76-.56 1.16-1.54.4-.99.4-2.31t-.4-2.29q-.39-.98-1.15-1.52-.76-.55-1.82-.55-1.09 0-1.85.55-.76.54-1.16 1.52-.4.97-.4 2.29 0 1.31.41 2.3.4.99 1.16 1.55.76.55 1.84.55m7.8 1.45v-11.71H254v1.82h.09q.32-.91 1.1-1.45.77-.54 1.85-.54.22 0 .48.01t.4.03v1.89q-.09-.02-.42-.07-.32-.05-.72-.05-.75 0-1.37.33t-.98.95q-.36.63-.36 1.51v7.28Zm12.25.26q-1.6 0-2.81-.77t-1.89-2.13q-.67-1.37-.67-3.16 0-1.83.67-3.2.68-1.38 1.89-2.15 1.21-.76 2.81-.76 1.62 0 2.83.76 1.21.77 1.88 2.15.68 1.37.68 3.2 0 1.79-.68 3.16-.67 1.36-1.88 2.13t-2.83.77m0-1.7q1.16 0 1.93-.58t1.16-1.57.39-2.21q0-1.25-.39-2.25-.39-.99-1.16-1.58t-1.93-.59q-1.14 0-1.91.59t-1.16 1.58q-.39 1-.39 2.25 0 1.22.39 2.21t1.16 1.57 1.91.58m10.89 1.44-4.5-11.71h2.06l2.5 6.85q.37.98.65 1.96.29.98.58 1.91h-.6q.31-.93.58-1.91.28-.98.64-1.96l2.49-6.85h2.04l-4.5 11.71Zm11.66.24q-1.14 0-2.06-.42-.91-.41-1.44-1.21t-.53-1.96q0-1.01.39-1.64t1.06-.99q.66-.36 1.48-.54t1.66-.29q1.08-.15 1.73-.23.66-.07.96-.25t.3-.61v-.08q0-.7-.29-1.2t-.85-.78-1.37-.28q-.83 0-1.44.27t-.99.69q-.37.43-.49.91l-1.86-.34q.28-1.07.97-1.77.7-.7 1.68-1.06.98-.35 2.1-.35.77 0 1.55.2t1.43.65q.65.46 1.04 1.24t.39 1.93v7.87h-1.86v-1.62h-.08q-.21.41-.64.84-.43.44-1.13.73-.69.29-1.71.29m.3-1.68q1.08 0 1.81-.41.72-.42 1.08-1.08t.36-1.39v-1.56q-.12.12-.47.22-.35.11-.81.19-.47.09-.95.15-.48.07-.84.11-.68.09-1.28.3-.6.2-.97.6-.36.39-.36 1.07 0 .58.3.98.31.4.86.61t1.27.21m10.09-14.57v16.01h-1.88v-16.01Zm11.58 16.01-3.59-11.71h1.99l1.45 5.13q.31 1.1.64 2.39t.65 2.76h-.29q.31-1.43.63-2.72.32-1.3.65-2.43l1.44-5.13h1.95l1.42 5.13q.31 1.12.63 2.41.31 1.29.64 2.74h-.33q.34-1.44.67-2.73.32-1.29.65-2.42l1.46-5.13h1.98l-3.58 11.71h-1.92l-1.53-5.31q-.23-.8-.44-1.63-.22-.84-.43-1.69-.22-.86-.43-1.73h.45q-.22.86-.43 1.72-.22.86-.44 1.7t-.44 1.63l-1.55 5.31Zm19.15.26q-1.6 0-2.81-.77t-1.89-2.13q-.67-1.37-.67-3.16 0-1.83.67-3.2.68-1.38 1.89-2.15 1.21-.76 2.81-.76 1.62 0 2.83.76 1.21.77 1.88 2.15.68 1.37.68 3.2 0 1.79-.68 3.16-.67 1.36-1.88 2.13t-2.83.77m0-1.7q1.16 0 1.93-.58.78-.58 1.16-1.57.39-.99.39-2.21 0-1.25-.39-2.25-.38-.99-1.16-1.58-.77-.59-1.93-.59-1.14 0-1.91.59t-1.16 1.58q-.39 1-.39 2.25 0 1.22.39 2.21t1.16 1.57 1.91.58m7.9 1.44v-11.71h1.81v1.82h.09q.33-.91 1.1-1.45t1.85-.54q.22 0 .48.01t.4.03v1.89q-.09-.02-.42-.07-.32-.05-.72-.05-.75 0-1.37.33t-.98.95q-.36.63-.36 1.51v7.28Zm9.61-4.21v-2.29h.26l5.2-5.21h2.38l-5.54 5.55h-.19Zm-1.76 4.21v-16.01h1.88v16.01Zm7.56 0-4.61-5.74 1.35-1.32 5.67 7.06Zm9.42-11.71v1.61h-6.66v-1.61Zm-4.45 11.71v-13.5q0-.94.43-1.59.43-.66 1.16-1 .74-.33 1.63-.33.55 0 .95.06.39.06.55.12l-.3 1.61q-.11-.03-.4-.07-.28-.03-.6-.03-.81 0-1.18.39-.36.4-.36 1.2v13.14Zm8.54-16.01v16.01h-1.88v-16.01Zm7.88 16.27q-1.6 0-2.81-.77t-1.88-2.13q-.68-1.37-.68-3.16 0-1.83.68-3.2.67-1.38 1.88-2.15 1.21-.76 2.81-.76 1.62 0 2.83.76 1.21.77 1.89 2.15.67 1.37.67 3.2 0 1.79-.67 3.16-.68 1.36-1.89 2.13t-2.83.77m0-1.7q1.16 0 1.94-.58.77-.58 1.16-1.57.38-.99.38-2.21 0-1.25-.38-2.25-.39-.99-1.16-1.58-.78-.59-1.94-.59-1.14 0-1.9.59-.77.59-1.17 1.58-.39 1-.39 2.25 0 1.22.39 2.21.4.99 1.17 1.57.76.58 1.9.58m10.11 1.44-3.59-11.71h1.99l1.45 5.13q.31 1.1.64 2.39.32 1.29.65 2.76h-.29q.31-1.43.63-2.72.32-1.3.64-2.43l1.44-5.13h1.96l1.42 5.13q.31 1.12.63 2.41.31 1.29.63 2.74h-.32q.34-1.44.66-2.73.33-1.29.65-2.42l1.46-5.13h1.99l-3.59 11.71h-1.91l-1.53-5.31q-.23-.8-.45-1.63-.21-.84-.42-1.69-.22-.86-.43-1.73h.45q-.22.86-.43 1.72-.22.86-.44 1.7t-.44 1.63l-1.55 5.31Zm18.77.26q-1.22 0-2.2-.38-.97-.37-1.59-1.13-.61-.76-.76-1.88l1.81-.24q.19 1 .89 1.49t1.83.49q1.21 0 1.93-.51.72-.52.72-1.27 0-.62-.45-1.02-.45-.41-1.29-.6l-1.92-.45q-1.6-.39-2.41-1.19-.8-.81-.8-2.07 0-1 .55-1.77t1.53-1.21q.97-.43 2.22-.43 1.21 0 2.11.4t1.45 1.13q.54.72.71 1.7l-1.77.25q-.14-.77-.75-1.32-.62-.55-1.75-.55-1.06 0-1.73.5t-.67 1.24q0 .65.48 1.05.47.4 1.42.62l1.83.43q1.63.39 2.4 1.18.78.79.78 2.03 0 1.05-.59 1.84t-1.62 1.23-2.36.44m6.56 3.22.94-5.71h2.11l-1.63 5.71Zm15.47-3.24q-1.14 0-2.05-.42-.91-.41-1.45-1.21-.53-.8-.53-1.96 0-1.01.4-1.64.39-.63 1.05-.99.67-.36 1.49-.54.81-.18 1.66-.29 1.07-.15 1.73-.23.66-.07.96-.25t.3-.61v-.08q0-.7-.29-1.2t-.85-.78-1.38-.28-1.44.27q-.61.27-.98.69-.37.43-.5.91l-1.86-.34q.28-1.07.98-1.77t1.68-1.06q.97-.35 2.09-.35.77 0 1.55.2t1.43.65q.65.46 1.04 1.24.4.78.4 1.93v7.87h-1.86v-1.62h-.09q-.2.41-.63.84-.43.44-1.13.73t-1.72.29m.3-1.68q1.09 0 1.81-.41.73-.42 1.09-1.08t.36-1.39v-1.56q-.12.12-.47.22-.35.11-.82.19-.46.09-.94.15-.48.07-.85.11-.67.09-1.27.3-.61.2-.97.6-.37.39-.37 1.07 0 .58.31.98t.85.61q.55.21 1.27.21m10.1-5.51v6.95h-1.88v-11.71h1.83v2.84h-.38q.55-1.61 1.56-2.32 1.01-.7 2.36-.7 1.18 0 2.11.5t1.46 1.5.53 2.52v7.37h-1.88v-7.22q0-1.43-.72-2.2-.71-.76-1.97-.76-.85 0-1.53.36t-1.09 1.07q-.4.71-.4 1.8m15.11 7.19q-1.48 0-2.61-.76-1.13-.75-1.76-2.12t-.63-3.2.63-3.19q.64-1.37 1.77-2.12 1.13-.74 2.61-.74.98 0 1.66.3.69.31 1.13.77.45.45.72.92h.09v-6.11h1.89v16.01h-1.83v-1.79h-.13q-.29.47-.75.94-.45.46-1.14.77-.68.32-1.65.32m.29-1.69q1.08 0 1.84-.55.76-.56 1.16-1.55t.4-2.3q0-1.32-.4-2.29-.4-.98-1.16-1.52-.76-.55-1.84-.55-1.07 0-1.83.55-.75.54-1.15 1.52-.4.97-.4 2.29t.4 2.31q.41.98 1.16 1.54.76.55 1.82.55m17.59 1.69q-1.14 0-2.05-.42-.92-.41-1.45-1.21t-.53-1.96q0-1.01.39-1.64t1.06-.99 1.48-.54q.82-.18 1.67-.29 1.07-.15 1.73-.23.65-.07.95-.25t.3-.61v-.08q0-.7-.29-1.2t-.85-.78q-.55-.28-1.37-.28-.83 0-1.44.27t-.98.69q-.37.43-.5.91l-1.86-.34q.28-1.07.98-1.77t1.67-1.06q.98-.35 2.1-.35.77 0 1.55.2t1.43.65q.65.46 1.04 1.24t.39 1.93v7.87h-1.86v-1.62h-.08q-.21.41-.64.84-.43.44-1.12.73-.7.29-1.72.29m.3-1.68q1.08 0 1.81-.41.72-.42 1.08-1.08t.36-1.39v-1.56q-.11.12-.46.22-.35.11-.82.19-.47.09-.95.15-.47.07-.84.11-.68.09-1.28.3-.6.2-.96.6-.37.39-.37 1.07 0 .58.31.98.3.4.85.61t1.27.21m12.33 1.62q-1.18 0-2.12-.5-.93-.5-1.46-1.51t-.53-2.51v-7.37h1.88v7.22q0 1.42.72 2.19.73.76 1.98.76.85 0 1.53-.35.68-.36 1.08-1.08.4-.73.4-1.8v-6.94h1.89v11.71h-1.84v-2.84h.38q-.56 1.62-1.57 2.32t-2.34.7m12.89.06q-1.49 0-2.62-.76-1.13-.75-1.76-2.12t-.63-3.2.63-3.19q.64-1.37 1.77-2.12 1.13-.74 2.62-.74.97 0 1.66.3.68.31 1.12.77.45.45.72.92h.1v-6.11h1.89v16.01h-1.84v-1.79h-.13q-.29.47-.75.94-.45.46-1.13.77-.69.32-1.65.32m.29-1.69q1.07 0 1.83-.55.77-.56 1.16-1.55.4-.99.4-2.3 0-1.32-.4-2.29-.39-.98-1.16-1.52-.76-.55-1.83-.55-1.08 0-1.83.55-.76.54-1.16 1.52-.4.97-.4 2.29t.41 2.31q.4.98 1.16 1.54.75.55 1.82.55m8.29 1.45v-11.71h1.88v11.71Zm.95-13.79q-.53 0-.91-.37-.39-.37-.39-.89 0-.53.39-.9.38-.37.91-.37.55 0 .93.37t.38.9q0 .52-.38.89t-.93.37m8.95 2.08v1.61h-6.18v-1.61Zm-4.28-2.96h1.88v11.72q0 .74.31 1.06.3.32 1.03.32.22 0 .5-.02.29-.02.52-.05l.22 1.61q-.29.05-.65.08-.36.04-.69.04-1.52 0-2.32-.75-.8-.74-.8-2.12Zm14.25-1.34v16.01h-1.87v-16.01Zm7.89 16.27q-1.6 0-2.81-.77t-1.88-2.13q-.68-1.37-.68-3.16 0-1.83.68-3.2.67-1.38 1.88-2.15 1.21-.76 2.81-.76 1.62 0 2.83.76 1.21.77 1.89 2.15.67 1.37.67 3.2 0 1.79-.67 3.16-.68 1.36-1.89 2.13t-2.83.77m0-1.7q1.16 0 1.93-.58.78-.58 1.16-1.57.39-.99.39-2.21 0-1.25-.39-2.25-.38-.99-1.16-1.58-.77-.59-1.93-.59-1.14 0-1.91.59-.76.59-1.16 1.58-.39 1-.39 2.25 0 1.22.39 2.21.4.99 1.16 1.57.77.58 1.91.58m12.72 6.15q-1.31 0-2.31-.37-.99-.37-1.64-1.02t-.92-1.5l1.7-.57q.21.47.61.88t1.02.66q.62.26 1.54.26 1.46 0 2.35-.74.89-.73.89-2.19v-2.11h-.11q-.3.49-.74.94-.45.45-1.13.74-.67.3-1.65.3-1.46 0-2.59-.71-1.14-.71-1.78-2.03t-.64-3.14q0-1.81.64-3.16.63-1.35 1.77-2.1 1.14-.74 2.62-.74.97 0 1.66.3.68.3 1.14.77.46.48.75.96h.1v-1.85h1.84v11.88q0 1.6-.7 2.61-.7 1-1.86 1.46-1.17.47-2.56.47m-.09-6.41q1.08 0 1.84-.51t1.16-1.46.4-2.24-.4-2.25-1.16-1.5q-.75-.55-1.84-.55-1.07 0-1.83.54t-1.16 1.51q-.4.96-.4 2.25 0 1.3.4 2.25.4.94 1.17 1.45.76.51 1.82.51m13.11 6.41q-1.31 0-2.3-.37-1-.37-1.65-1.02t-.91-1.5l1.69-.57q.22.47.61.88.4.41 1.03.66.62.26 1.53.26 1.46 0 2.35-.74.9-.73.9-2.19v-2.11h-.11q-.3.49-.75.94-.44.45-1.12.74-.68.3-1.66.3-1.46 0-2.59-.71t-1.77-2.03-.64-3.14q0-1.81.63-3.16.64-1.35 1.78-2.1 1.13-.74 2.62-.74.96 0 1.65.3t1.14.77q.46.48.75.96h.11v-1.85h1.84v11.88q0 1.6-.7 2.61-.7 1-1.87 1.46-1.16.47-2.56.47m-.08-6.41q1.07 0 1.83-.51.77-.51 1.16-1.46.4-.95.4-2.24t-.4-2.25q-.39-.96-1.15-1.5-.76-.55-1.84-.55t-1.84.54q-.75.54-1.16 1.51-.4.96-.4 2.25 0 1.3.4 2.25.41.94 1.17 1.45t1.83.51m8.29 1.7v-11.71h1.88v11.71Zm.95-13.79q-.53 0-.91-.37-.39-.37-.39-.89 0-.53.39-.9.38-.37.91-.37.55 0 .93.37t.38.9q0 .52-.38.89t-.93.37m5.91 6.84v6.95h-1.88v-11.71h1.82v2.84h-.37q.55-1.61 1.56-2.32 1.01-.7 2.36-.7 1.18 0 2.11.5t1.46 1.5.53 2.52v7.37h-1.88v-7.22q0-1.43-.72-2.2-.72-.76-1.97-.76-.85 0-1.53.36-.69.36-1.09 1.07t-.4 1.8m15.5 11.66q-1.31 0-2.31-.37-.99-.37-1.64-1.02t-.92-1.5l1.7-.57q.21.47.61.88t1.02.66q.63.26 1.54.26 1.46 0 2.35-.74.89-.73.89-2.19v-2.11h-.1q-.3.49-.75.94t-1.12.74q-.68.3-1.66.3-1.46 0-2.59-.71-1.14-.71-1.77-2.03-.64-1.32-.64-3.14 0-1.81.63-3.16t1.77-2.1q1.14-.74 2.62-.74.97 0 1.66.3t1.14.77q.46.48.75.96h.11v-1.85h1.83v11.88q0 1.6-.7 2.61-.69 1-1.86 1.46-1.16.47-2.56.47m-.09-6.41q1.08 0 1.84-.51t1.16-1.46.4-2.24-.4-2.25-1.15-1.5q-.76-.55-1.85-.55-1.07 0-1.83.54T582.2 388q-.4.96-.4 2.25 0 1.3.4 2.25.4.94 1.17 1.45.76.51 1.82.51m9.59 1.86q-.58 0-.99-.41-.42-.42-.42-1t.42-.98q.41-.41.99-.41.59 0 .99.41.41.4.41.98t-.41 1q-.4.41-.99.41m13.48-.16-4.36-16.01h2.02l2.57 9.9q.2.78.39 1.58.18.79.35 1.6.17.8.32 1.63h-.23q.16-.83.33-1.63.17-.81.36-1.6.19-.8.39-1.58l2.61-9.9h2.29l2.59 9.9q.21.78.4 1.58.19.79.37 1.6.19.8.35 1.63h-.28q.16-.83.33-1.63.17-.81.37-1.6.19-.8.38-1.58l2.56-9.9h2.04l-4.38 16.01h-2.32l-2.77-10.22q-.28-1.03-.53-2.15-.24-1.12-.47-2.44h.42q-.23 1.26-.46 2.38-.23 1.11-.53 2.21l-2.77 10.22Zm18.11 0v-11.71h1.88v11.71Zm.94-13.79q-.52 0-.91-.37t-.39-.89q0-.53.39-.9t.91-.37q.55 0 .93.37t.38.9q0 .52-.38.89t-.93.37m5.91 6.84v6.95h-1.88v-11.71h1.83v2.84h-.38q.55-1.61 1.56-2.32 1.01-.7 2.36-.7 1.18 0 2.11.5t1.46 1.5q.54 1 .54 2.52v7.37h-1.88v-7.22q0-1.43-.72-2.2-.72-.76-1.98-.76-.85 0-1.53.36t-1.09 1.07q-.4.71-.4 1.8m15.12 7.19q-1.49 0-2.62-.76-1.13-.75-1.76-2.12t-.63-3.2.63-3.19q.64-1.37 1.77-2.12 1.13-.74 2.62-.74.97 0 1.66.3.68.31 1.12.77.45.45.72.92h.1v-6.11h1.89v16.01H652v-1.79h-.13q-.29.47-.75.94-.45.46-1.14.77-.68.32-1.64.32m.29-1.69q1.07 0 1.83-.55.77-.56 1.16-1.55.4-.99.4-2.3 0-1.32-.4-2.29-.39-.98-1.16-1.52-.76-.55-1.83-.55-1.08 0-1.84.55-.75.54-1.15 1.52-.4.97-.4 2.29t.4 2.31q.41.98 1.16 1.54.76.55 1.83.55m13.08 1.71q-1.6 0-2.81-.77-1.2-.77-1.88-2.13-.68-1.37-.68-3.16 0-1.83.68-3.2.68-1.38 1.88-2.15 1.21-.76 2.81-.76 1.63 0 2.83.76 1.21.77 1.89 2.15.68 1.37.68 3.2 0 1.79-.68 3.16-.68 1.36-1.89 2.13-1.2.77-2.83.77m0-1.7q1.16 0 1.94-.58.77-.58 1.16-1.57.38-.99.38-2.21 0-1.25-.38-2.25-.39-.99-1.16-1.58-.78-.59-1.94-.59-1.14 0-1.9.59-.77.59-1.16 1.58-.4 1-.4 2.25 0 1.22.4 2.21.39.99 1.16 1.57.76.58 1.9.58m10.11 1.44-3.59-11.71h1.99l1.45 5.13q.31 1.1.64 2.39t.65 2.76h-.29q.31-1.43.63-2.72.32-1.3.65-2.43l1.44-5.13h1.95l1.42 5.13q.31 1.12.63 2.41.31 1.29.64 2.74h-.33q.34-1.44.66-2.73.33-1.29.65-2.42l1.47-5.13h1.98l-3.58 11.71h-1.92l-1.53-5.31q-.23-.8-.44-1.63-.22-.84-.43-1.69-.22-.86-.43-1.73h.45q-.22.86-.43 1.72-.22.86-.44 1.7t-.44 1.63l-1.55 5.31Zm18.77.26q-1.22 0-2.19-.38-.98-.37-1.59-1.13-.62-.76-.77-1.88l1.81-.24q.2 1 .89 1.49.7.49 1.83.49 1.21 0 1.93-.51.72-.52.72-1.27 0-.62-.45-1.02-.45-.41-1.29-.6l-1.92-.45q-1.6-.39-2.41-1.19-.8-.81-.8-2.07 0-1 .55-1.77.56-.77 1.53-1.21.97-.43 2.23-.43 1.2 0 2.1.4t1.45 1.13q.54.72.71 1.7l-1.77.25q-.14-.77-.75-1.32-.62-.55-1.74-.55-1.07 0-1.74.5t-.67 1.24q0 .65.48 1.05t1.42.62l1.83.43q1.63.39 2.4 1.18.78.79.78 2.03 0 1.05-.59 1.84-.58.79-1.61 1.23-1.04.44-2.37.44m13.94-7.83v1.75h-7.01v-1.75Zm4.83.62v6.95h-1.88v-11.71h1.83v2.84h-.38q.55-1.61 1.56-2.32 1.01-.7 2.36-.7 1.18 0 2.11.5t1.46 1.5.53 2.52v7.37h-1.88v-7.22q0-1.43-.72-2.2-.71-.76-1.97-.76-.85 0-1.53.36t-1.09 1.07q-.4.71-.4 1.8m14.09 7.19q-1.14 0-2.05-.42-.91-.41-1.44-1.21t-.53-1.96q0-1.01.39-1.64t1.06-.99q.66-.36 1.48-.54.81-.18 1.66-.29 1.08-.15 1.73-.23.66-.07.96-.25t.3-.61v-.08q0-.7-.29-1.2t-.85-.78-1.37-.28q-.83 0-1.44.27-.62.27-.99.69-.37.43-.5.91l-1.85-.34q.27-1.07.97-1.77t1.68-1.06q.98-.35 2.09-.35.78 0 1.56.2.77.2 1.42.65.65.46 1.05 1.24.39.78.39 1.93v7.87h-1.86v-1.62h-.09q-.2.41-.63.84-.43.44-1.13.73t-1.72.29m.3-1.68q1.09 0 1.81-.41.73-.42 1.09-1.08t.36-1.39v-1.56q-.12.12-.47.22-.35.11-.81.19-.47.09-.95.15-.48.07-.84.11-.68.09-1.28.3-.6.2-.97.6-.36.39-.36 1.07 0 .58.3.98.31.4.86.61.54.21 1.26.21m13.05-10.27v1.61h-6.18v-1.61Zm-4.28-2.96h1.88v11.72q0 .74.31 1.06.3.32 1.03.32.22 0 .5-.02.29-.02.52-.05l.22 1.61q-.29.05-.65.08-.36.04-.69.04-1.52 0-2.32-.75-.8-.74-.8-2.12Zm6.49 14.67v-11.71h1.88v11.71Zm.95-13.79q-.53 0-.92-.37-.38-.37-.38-.89 0-.53.38-.9.39-.37.92-.37.54 0 .93.37.38.37.38.9 0 .52-.38.89-.39.37-.93.37m7.44 13.79-4.5-11.71h2.06l2.51 6.85q.36.98.65 1.96.28.98.57 1.91h-.59q.3-.93.58-1.91t.63-1.96l2.5-6.85h2.04l-4.5 11.71Zm12.92.26q-1.71 0-2.94-.77-1.22-.77-1.88-2.13-.65-1.37-.65-3.15 0-1.79.66-3.17t1.85-2.17q1.2-.78 2.77-.78 1.06 0 2 .36.94.37 1.66 1.11.72.75 1.13 1.87.41 1.13.41 2.64v.67h-9.32v-1.6h8.28l-.85.58q0-1.18-.38-2.07-.39-.89-1.13-1.38-.74-.5-1.8-.5-1.05 0-1.81.5t-1.17 1.36q-.41.85-.41 1.91v.95q0 1.26.43 2.17.44.92 1.25 1.42.8.49 1.9.49.75 0 1.35-.22.59-.23 1-.66.42-.43.61-1.04l1.86.29q-.26.99-.93 1.73-.67.75-1.66 1.17-1 .42-2.23.42"/><path fill="#9ba1ab" d="M102 421.59v1.75H80v-1.75Zm9.31.62v6.95h-1.88v-11.71h1.82v2.84h-.37q.55-1.61 1.56-2.32 1.01-.7 2.36-.7 1.18 0 2.11.5t1.46 1.5.53 2.52v7.37h-1.88v-7.22q0-1.43-.72-2.2-.72-.76-1.97-.76-.85 0-1.53.36-.69.36-1.09 1.07t-.4 1.8m15.48 7.21q-1.6 0-2.81-.77t-1.89-2.13q-.67-1.37-.67-3.16 0-1.83.67-3.2.68-1.38 1.89-2.15 1.21-.76 2.81-.76 1.62 0 2.83.76 1.21.77 1.88 2.15.68 1.37.68 3.2 0 1.79-.68 3.16-.67 1.36-1.88 2.13t-2.83.77m0-1.7q1.16 0 1.93-.58.78-.58 1.16-1.57.39-.99.39-2.21 0-1.25-.39-2.25-.38-.99-1.16-1.58-.77-.59-1.93-.59-1.14 0-1.91.59t-1.16 1.58q-.39 1-.39 2.25 0 1.22.39 2.21t1.16 1.57 1.91.58m17.01 1.44-4.36-16.01h2.01l2.57 9.9q.21.78.39 1.58.18.79.35 1.6.18.8.33 1.63h-.24q.16-.83.33-1.63.17-.81.36-1.6.19-.8.39-1.58l2.61-9.9h2.29l2.59 9.9q.22.78.4 1.58.19.79.38 1.6.18.8.34 1.63h-.28q.16-.83.33-1.63.17-.81.37-1.6.19-.8.38-1.58l2.56-9.9h2.04l-4.38 16.01h-2.32l-2.77-10.22q-.28-1.03-.52-2.15-.25-1.12-.48-2.44h.42q-.23 1.26-.46 2.38-.23 1.11-.53 2.21l-2.77 10.22Zm23.52.27q-1.77 0-3.08-.6t-2.04-1.71q-.73-1.1-.78-2.58h2.04q.05 1.01.55 1.7.51.69 1.37 1.04t1.94.35q1.13 0 2-.34.86-.35 1.35-.99.5-.64.5-1.5 0-.72-.38-1.21t-1.09-.83q-.7-.34-1.7-.59l-1.87-.51q-2.16-.57-3.24-1.58-1.08-1.02-1.08-2.63 0-1.36.71-2.38t1.96-1.59q1.24-.56 2.84-.56 1.61 0 2.84.58 1.22.58 1.92 1.61.69 1.03.73 2.38h-1.95q-.12-1.31-1.1-2.04-.99-.74-2.5-.74-1.03 0-1.82.34t-1.23.94-.44 1.36q0 .75.43 1.23.43.49 1.14.81.7.32 1.54.54l1.7.44q.88.23 1.7.58.81.35 1.46.86.64.52 1.02 1.25.37.73.37 1.72 0 1.34-.7 2.39-.7 1.06-2 1.66t-3.11.6m8.66-.27v-16.01h1.99v14.25h7.55v1.76Zm11.68 0v-1.54l5.49-5.52q.95-.94 1.56-1.67.61-.72.91-1.39t.3-1.44q0-.9-.39-1.56-.4-.66-1.1-1.02-.7-.35-1.63-.35-.99 0-1.7.41-.72.41-1.1 1.15-.39.74-.39 1.75h-1.89q0-1.5.65-2.64.66-1.14 1.81-1.78t2.64-.64q1.47 0 2.59.6 1.13.61 1.77 1.66t.64 2.38q0 .93-.35 1.8-.34.86-1.12 1.85-.77.98-2.08 2.29l-3.88 3.82v.08h7.62v1.76Zm12.65 3.48.95-5.71h2.1l-1.63 5.71Zm13.95-10.43v6.95h-1.88v-11.71h1.83v2.84h-.38q.55-1.61 1.56-2.32 1.01-.7 2.36-.7 1.18 0 2.11.5t1.46 1.5q.54 1 .54 2.52v7.37h-1.88v-7.22q0-1.43-.72-2.2-.72-.76-1.98-.76-.85 0-1.53.36t-1.09 1.07q-.4.71-.4 1.8m15.48 7.21q-1.6 0-2.81-.77t-1.88-2.13q-.68-1.37-.68-3.16 0-1.83.68-3.2.67-1.38 1.88-2.15 1.21-.76 2.81-.76 1.62 0 2.83.76 1.21.77 1.89 2.15.67 1.37.67 3.2 0 1.79-.67 3.16-.68 1.36-1.89 2.13t-2.83.77m0-1.7q1.16 0 1.93-.58.78-.58 1.16-1.57.39-.99.39-2.21 0-1.25-.39-2.25-.38-.99-1.16-1.58-.77-.59-1.93-.59-1.14 0-1.91.59-.76.59-1.16 1.58-.39 1-.39 2.25 0 1.22.39 2.21.4.99 1.16 1.57.77.58 1.91.58m18.58 1.7q-1.6 0-2.81-.77t-1.89-2.13q-.67-1.37-.67-3.16 0-1.83.67-3.2.68-1.38 1.89-2.15 1.21-.76 2.81-.76.91 0 1.7.25.8.26 1.43.74.64.47 1.07 1.13.44.66.63 1.48l-1.86.3q-.1-.49-.36-.89t-.64-.7q-.37-.29-.87-.45-.49-.17-1.1-.17-1.14 0-1.91.59t-1.16 1.58q-.39 1-.39 2.25 0 1.22.39 2.21t1.16 1.57 1.91.58q.62 0 1.11-.16.5-.16.87-.46t.63-.72q.26-.41.38-.9l1.86.29q-.18.81-.62 1.48-.43.67-1.07 1.16-.64.48-1.44.74-.81.27-1.72.27m9.18-7.21v6.95h-1.88v-16.01h1.88v7.14h-.43q.55-1.61 1.56-2.32 1.01-.7 2.36-.7 1.18 0 2.11.5t1.47 1.5.54 2.52v7.37h-1.89v-7.22q0-1.43-.72-2.2-.72-.76-1.98-.76-.85 0-1.53.36t-1.09 1.07q-.4.71-.4 1.8m14.1 7.19q-1.14 0-2.05-.42-.91-.41-1.45-1.21-.53-.8-.53-1.96 0-1.01.4-1.64.39-.63 1.05-.99.67-.36 1.49-.54.81-.18 1.66-.29 1.07-.15 1.73-.23.66-.07.96-.25t.3-.61v-.08q0-.7-.29-1.2t-.85-.78-1.38-.28-1.44.27q-.61.27-.98.69-.37.43-.5.91l-1.86-.34q.28-1.07.98-1.77t1.68-1.06q.97-.35 2.09-.35.77 0 1.55.2t1.43.65q.65.46 1.04 1.24.4.78.4 1.93v7.87h-1.86v-1.62h-.09q-.2.41-.63.84-.43.44-1.13.73t-1.72.29m.3-1.68q1.09 0 1.81-.41.73-.42 1.09-1.08t.36-1.39v-1.56q-.12.12-.47.22-.35.11-.82.19-.46.09-.94.15-.48.07-.85.11-.67.09-1.27.3-.61.2-.97.6-.37.39-.37 1.07 0 .58.31.98t.85.61q.55.21 1.27.21m13.04-10.27v1.61h-6.17v-1.61Zm-4.27-2.96h1.88v11.72q0 .74.3 1.06.31.32 1.04.32.22 0 .5-.02t.52-.05l.22 1.61q-.29.05-.65.08-.36.04-.7.04-1.51 0-2.31-.75-.8-.74-.8-2.12Zm11.98 14.91q-.96 0-1.64-.32-.68-.31-1.14-.77-.45-.47-.76-.94h-.12v1.79h-1.83v-16.01h1.88v6.11h.1q.28-.47.72-.92.45-.46 1.13-.77.68-.3 1.66-.3 1.49 0 2.62.74 1.13.75 1.76 2.12.64 1.36.64 3.19t-.64 3.2q-.63 1.37-1.76 2.12-1.13.76-2.62.76m-.28-1.69q1.06 0 1.81-.55.76-.56 1.16-1.54.4-.99.4-2.31t-.39-2.29q-.4-.98-1.16-1.52-.76-.55-1.82-.55-1.09 0-1.85.55-.76.54-1.16 1.52-.4.97-.4 2.29 0 1.31.41 2.3.4.99 1.16 1.55.77.55 1.84.55m12.59 1.71q-1.6 0-2.81-.77-1.2-.77-1.88-2.13-.68-1.37-.68-3.16 0-1.83.68-3.2.68-1.38 1.88-2.15 1.21-.76 2.81-.76 1.62 0 2.83.76 1.21.77 1.89 2.15.68 1.37.68 3.2 0 1.79-.68 3.16-.68 1.36-1.89 2.13t-2.83.77m0-1.7q1.16 0 1.94-.58.77-.58 1.16-1.57.38-.99.38-2.21 0-1.25-.38-2.25-.39-.99-1.16-1.58-.78-.59-1.94-.59-1.14 0-1.9.59-.77.59-1.16 1.58-.4 1-.4 2.25 0 1.22.4 2.21.39.99 1.16 1.57.76.58 1.9.58m12.73-10.27v1.61h-6.18v-1.61Zm-4.28-2.96h1.88v11.72q0 .74.31 1.06t1.04.32q.21 0 .5-.02.28-.02.52-.05l.21 1.61q-.29.05-.65.08-.36.04-.69.04-1.51 0-2.32-.75-.8-.74-.8-2.12Zm14.98 14.67-3.59-11.71h1.99l1.45 5.13q.31 1.1.64 2.39.32 1.29.65 2.76h-.29q.31-1.43.63-2.72.32-1.3.64-2.43l1.44-5.13h1.96l1.42 5.13q.31 1.12.63 2.41.31 1.29.64 2.74h-.33q.34-1.44.66-2.73.33-1.29.65-2.42l1.46-5.13h1.99l-3.59 11.71h-1.91l-1.53-5.31q-.23-.8-.44-1.63-.22-.84-.43-1.69-.22-.86-.43-1.73h.45q-.22.86-.43 1.72-.22.86-.44 1.7t-.44 1.63l-1.55 5.31Zm14.75 0v-11.71h1.81v1.82h.09q.33-.91 1.1-1.45t1.85-.54q.22 0 .48.01t.4.03v1.89q-.09-.02-.41-.07-.33-.05-.73-.05-.75 0-1.37.33t-.98.95q-.36.63-.36 1.51v7.28Zm11.01.24q-1.14 0-2.05-.42-.92-.41-1.45-1.21t-.53-1.96q0-1.01.39-1.64t1.06-.99 1.48-.54q.82-.18 1.67-.29 1.07-.15 1.73-.23.65-.07.95-.25t.3-.61v-.08q0-.7-.29-1.2t-.85-.78q-.55-.28-1.37-.28-.83 0-1.44.27t-.98.69q-.37.43-.5.91l-1.86-.34q.28-1.07.98-1.77t1.67-1.06q.98-.35 2.1-.35.77 0 1.55.2t1.43.65q.65.46 1.04 1.24t.39 1.93v7.87h-1.86v-1.62h-.08q-.21.41-.64.84-.43.44-1.12.73-.7.29-1.72.29m.3-1.68q1.08 0 1.81-.41.72-.42 1.08-1.08t.36-1.39v-1.56q-.11.12-.46.22-.35.11-.82.19-.47.09-.95.15-.47.07-.84.11-.68.09-1.28.3-.6.2-.96.6-.37.39-.37 1.07 0 .58.31.98.3.4.85.61t1.27.21m8.22 5.93v-16.2h1.82v1.81h.13q.28-.47.73-.92.45-.46 1.14-.77.69-.3 1.67-.3 1.49 0 2.62.74 1.12.75 1.76 2.12.63 1.36.63 3.19t-.63 3.2q-.64 1.37-1.76 2.12-1.13.76-2.62.76-.96 0-1.64-.32-.67-.31-1.13-.77-.46-.47-.75-.94h-.09v6.28Zm5.21-5.94q1.06 0 1.81-.55.75-.56 1.16-1.54.4-.99.4-2.31t-.4-2.29q-.4-.98-1.15-1.52-.76-.55-1.82-.55-1.09 0-1.85.55-.76.54-1.16 1.52-.4.97-.4 2.29 0 1.31.4 2.3.41.99 1.17 1.55.76.55 1.84.55m7.8 5.94v-16.2h1.82v1.81h.13q.28-.47.73-.92.46-.46 1.14-.77.69-.3 1.67-.3 1.49 0 2.62.74 1.13.75 1.76 2.12.63 1.36.63 3.19t-.63 3.2-1.76 2.12q-1.13.76-2.62.76-.96 0-1.63-.32-.68-.31-1.14-.77-.45-.47-.74-.94h-.1v6.28Zm5.21-5.94q1.06 0 1.81-.55.76-.56 1.16-1.54.4-.99.4-2.31t-.4-2.29q-.39-.98-1.15-1.52-.76-.55-1.82-.55-1.09 0-1.85.55-.76.54-1.16 1.52-.4.97-.4 2.29 0 1.31.41 2.3.4.99 1.16 1.55.76.55 1.84.55m12.69 1.71q-1.71 0-2.93-.77-1.23-.77-1.88-2.13-.66-1.37-.66-3.15 0-1.79.66-3.17t1.85-2.17q1.2-.78 2.78-.78 1.05 0 1.99.36.94.37 1.66 1.11.72.75 1.13 1.87.42 1.13.42 2.64v.67h-9.33v-1.6h8.28l-.85.58q0-1.18-.38-2.07-.39-.89-1.13-1.38-.74-.5-1.79-.5-1.06 0-1.82.5t-1.17 1.36q-.41.85-.41 1.91v.95q0 1.26.44 2.17.43.92 1.24 1.42.8.49 1.9.49.75 0 1.35-.22.59-.23 1.01-.66.41-.43.6-1.04l1.86.29q-.26.99-.93 1.73-.67.75-1.66 1.17-1 .42-2.23.42m7.48-.26v-11.71h1.8v1.82h.1q.32-.91 1.1-1.45.77-.54 1.84-.54.23 0 .49.01.25.01.39.03v1.89q-.08-.02-.41-.07t-.72-.05q-.76 0-1.37.33-.62.33-.98.95-.36.63-.36 1.51v7.28Zm5.86 3.48.95-5.71h2.1l-1.63 5.71Zm13.95-10.43v6.95h-1.88v-11.71h1.82v2.84h-.37q.55-1.61 1.56-2.32 1.01-.7 2.36-.7 1.18 0 2.11.5t1.46 1.5.53 2.52v7.37h-1.88v-7.22q0-1.43-.72-2.2-.72-.76-1.97-.76-.85 0-1.53.36-.69.36-1.09 1.07t-.4 1.8m15.48 7.21q-1.6 0-2.81-.77t-1.89-2.13q-.67-1.37-.67-3.16 0-1.83.67-3.2.68-1.38 1.89-2.15 1.21-.76 2.81-.76 1.62 0 2.83.76 1.21.77 1.88 2.15.68 1.37.68 3.2 0 1.79-.68 3.16-.67 1.36-1.88 2.13t-2.83.77m0-1.7q1.16 0 1.93-.58t1.16-1.57.39-2.21q0-1.25-.39-2.25-.39-.99-1.16-1.58t-1.93-.59q-1.14 0-1.91.59t-1.16 1.58q-.39 1-.39 2.25 0 1.22.39 2.21t1.16 1.57 1.91.58m18.61-10.27v1.61h-6.18v-1.61Zm-4.28-2.96h1.88v11.72q0 .74.31 1.06.3.32 1.03.32.22 0 .5-.02.29-.02.52-.05l.22 1.61q-.29.05-.65.08-.36.04-.69.04-1.52 0-2.32-.75-.8-.74-.8-2.12Zm11.17 14.93q-1.71 0-2.94-.77-1.22-.77-1.88-2.13-.65-1.37-.65-3.15 0-1.79.66-3.17t1.85-2.17q1.19-.78 2.77-.78 1.06 0 2 .36.94.37 1.66 1.11.71.75 1.13 1.87.41 1.13.41 2.64v.67h-9.32v-1.6h8.28l-.85.58q0-1.18-.39-2.07-.38-.89-1.12-1.38-.74-.5-1.8-.5-1.05 0-1.81.5-.77.5-1.17 1.36-.41.85-.41 1.91v.95q0 1.26.43 2.17.44.92 1.24 1.42.81.49 1.91.49.75 0 1.34-.22.6-.23 1.01-.66.42-.43.61-1.04l1.86.29q-.26.99-.93 1.73-.67.75-1.67 1.17-.99.42-2.22.42m9.36-16.27v16.01h-1.88v-16.01Zm7.98 16.27q-1.71 0-2.93-.77-1.23-.77-1.88-2.13-.66-1.37-.66-3.15 0-1.79.66-3.17t1.85-2.17q1.2-.78 2.78-.78 1.05 0 1.99.36.94.37 1.66 1.11.72.75 1.13 1.87.41 1.13.41 2.64v.67h-9.32v-1.6h8.28l-.85.58q0-1.18-.38-2.07-.39-.89-1.13-1.38-.74-.5-1.79-.5-1.06 0-1.82.5t-1.17 1.36q-.41.85-.41 1.91v.95q0 1.26.44 2.17.43.92 1.24 1.42.8.49 1.9.49.75 0 1.35-.22.59-.23 1.01-.66.41-.43.6-1.04l1.86.29q-.26.99-.93 1.73-.67.75-1.66 1.17-1 .42-2.23.42m7.48-.26v-11.71h1.84v2.51h-.19q.29-.9.83-1.5.54-.61 1.24-.92.7-.3 1.48-.3 1.32 0 2.18.78.87.78 1.1 1.97h-.31q.23-.82.78-1.44.54-.62 1.34-.96.79-.35 1.75-.35 1.04 0 1.9.45t1.37 1.36q.5.91.5 2.31v7.8h-1.88v-7.78q0-1.3-.74-1.86-.73-.57-1.7-.57-.81 0-1.4.34-.6.34-.92.94-.32.59-.32 1.37v7.56h-1.89v-7.97q0-1.01-.67-1.62-.67-.62-1.7-.62-.7 0-1.33.33-.62.33-1 .99-.38.65-.38 1.62v7.27Zm23.79.26q-1.7 0-2.93-.77-1.22-.77-1.88-2.13-.65-1.37-.65-3.15 0-1.79.66-3.17t1.85-2.17q1.19-.78 2.77-.78 1.05 0 1.99.36.94.37 1.66 1.11.72.75 1.14 1.87.41 1.13.41 2.64v.67h-9.32v-1.6h8.28l-.85.58q0-1.18-.39-2.07-.38-.89-1.12-1.38-.75-.5-1.8-.5t-1.81.5q-.77.5-1.17 1.36-.41.85-.41 1.91v.95q0 1.26.43 2.17.44.92 1.24 1.42.81.49 1.9.49.76 0 1.35-.22.6-.23 1.01-.66.42-.43.61-1.04l1.86.29q-.26.99-.93 1.73-.67.75-1.67 1.17-.99.42-2.23.42m12.31-11.97v1.61h-6.18v-1.61Zm-4.28-2.96h1.88v11.72q0 .74.31 1.06.3.32 1.04.32.21 0 .49-.02.29-.02.53-.05l.21 1.61q-.29.05-.65.08-.36.04-.69.04-1.52 0-2.32-.75-.8-.74-.8-2.12Zm6.49 14.67v-11.71h1.81v1.82h.1q.32-.91 1.09-1.45t1.85-.54q.22 0 .48.01t.4.03v1.89q-.09-.02-.41-.07-.33-.05-.73-.05-.75 0-1.37.33t-.98.95q-.36.63-.36 1.51v7.28Zm7.95 4.42.28-1.66.62.03q.48.09.87-.01.39-.11.7-.47.32-.35.56-1.04l.46-1.28-4.5-11.7h2.07l2.5 6.85q.36.99.65 1.96.28.98.57 1.91h-.6q.29-.93.58-1.91t.65-1.96l2.5-6.85h2.03l-5.25 13.64q-.35.87-.84 1.45-.48.58-1.12.87-.64.28-1.44.28-.41 0-.74-.03-.33-.04-.55-.08m12.08-4.26q-.58 0-.99-.41-.41-.42-.41-1t.41-.98q.41-.41.99-.41.59 0 1 .41.4.4.4.98t-.4 1q-.41.41-1 .41"/><path fill="#e8e8ec" d="M81.05 511.14v-9.46h3.39q1.09 0 1.82.38t1.09 1.05.36 1.54q0 .88-.36 1.54-.37.65-1.1 1.01-.73.37-1.83.37h-2.54v-1.24h2.4q.7 0 1.13-.2t.63-.58q.21-.37.21-.9t-.21-.92q-.2-.38-.63-.6-.43-.21-1.14-.21h-1.78v8.22Zm5.37 0-2.29-4.27h1.61l2.33 4.27Zm5.82.15q-1.04 0-1.81-.45-.76-.46-1.17-1.27-.41-.82-.41-1.93 0-1.09.41-1.92.4-.83 1.14-1.3.73-.47 1.72-.47.61 0 1.18.2.56.2 1.01.63.45.42.72 1.1.26.68.26 1.64v.5h-5.66v-1.04h4.94l-.65.34q0-.66-.2-1.15-.21-.5-.6-.78-.4-.28-1-.28-.59 0-1.01.29-.42.28-.63.75-.22.46-.22 1.02v.71q0 .73.25 1.23.25.51.7.76.45.26 1.05.26.39 0 .71-.11.31-.11.55-.34.23-.22.35-.55l1.31.31q-.17.54-.57.96-.41.42-1.01.65-.59.24-1.36.24m6.69.01q-.67 0-1.22-.25-.54-.25-.86-.74-.32-.48-.32-1.18 0-.6.23-.99.24-.38.63-.61.4-.23.88-.34.49-.12.99-.18.63-.07 1.02-.12.4-.05.58-.16.19-.11.19-.36v-.04q0-.4-.15-.67t-.45-.42q-.31-.15-.76-.15-.46 0-.79.14-.34.15-.54.37-.21.22-.31.46l-1.31-.34q.24-.64.69-1.02.45-.39 1.03-.57.59-.18 1.21-.18.43 0 .91.11.48.1.91.36.42.27.69.75.27.49.27 1.26v4.71h-1.35v-.97h-.07q-.14.27-.42.53-.27.26-.69.43-.41.17-.99.17m.31-1.12q.57 0 .98-.23.41-.22.62-.59.22-.37.22-.78v-.91q-.08.08-.29.14t-.49.11q-.27.05-.52.08l-.42.05q-.4.05-.72.17-.33.12-.52.34-.2.23-.2.59 0 .34.18.57.17.23.47.34.3.12.69.12m7.73 1.1q-.87 0-1.54-.44t-1.05-1.26q-.38-.83-.38-1.97 0-1.15.38-1.97.39-.82 1.06-1.25.68-.44 1.53-.44.66 0 1.06.22t.63.51q.23.3.35.52h.08v-3.52h1.39v9.46h-1.35v-1.11h-.12q-.12.23-.35.52-.24.29-.65.51-.4.22-1.04.22m.3-1.19q.6 0 1.01-.31.41-.32.62-.88.21-.57.21-1.3 0-.74-.21-1.29t-.62-.86q-.4-.31-1.01-.31t-1.02.33q-.41.32-.62.87-.21.56-.21 1.26t.21 1.27q.21.56.63.89.41.33 1.01.33m12.64 1.18q-1.28 0-2.25-.59t-1.51-1.68-.54-2.58q0-1.51.55-2.6.54-1.09 1.5-1.68.96-.58 2.19-.58.76 0 1.42.22.67.23 1.19.64.52.42.86.99.34.58.46 1.26h-1.49q-.13-.41-.35-.74-.22-.34-.53-.57-.31-.24-.7-.36t-.85-.12q-.8 0-1.44.4-.64.41-1.01 1.2t-.37 1.93.37 1.93 1.02 1.2 1.49.41q.76 0 1.33-.31.56-.31.88-.88.31-.57.31-1.34l.38.06h-2.69v-1.19h3.73v1.09q0 1.19-.51 2.06t-1.4 1.35-2.04.48m8.06-.04q-.73 0-1.27-.31-.55-.3-.85-.9-.3-.59-.3-1.47v-4.51h1.39v4.34q0 .77.41 1.2.4.43 1.09.43.48 0 .85-.21.37-.2.59-.6.21-.4.21-.95v-4.21h1.4v7.1h-1.33l-.01-1.74h.13q-.31.97-.91 1.4-.59.43-1.4.43m7.39.07q-.68 0-1.22-.25-.55-.25-.86-.74-.32-.48-.32-1.18 0-.6.23-.99.23-.38.63-.61.39-.23.88-.34.49-.12.99-.18.63-.07 1.02-.12t.58-.16.19-.36v-.04q0-.4-.16-.67-.15-.27-.45-.42t-.75-.15q-.46 0-.8.14-.33.15-.54.37-.2.22-.31.46l-1.31-.34q.24-.64.69-1.02.45-.39 1.04-.57.58-.18 1.2-.18.44 0 .92.11.48.1.91.36.42.27.69.75.26.49.26 1.26v4.71h-1.35v-.97h-.07q-.14.27-.41.53t-.69.43-.99.17m.31-1.12q.57 0 .98-.23.4-.22.62-.59.21-.37.21-.78v-.91q-.07.08-.29.14-.21.06-.48.11t-.53.08l-.42.05q-.39.05-.72.17-.32.12-.52.34-.19.23-.19.59 0 .34.17.57.18.23.48.34.29.12.69.12m5.08.96v-7.1h1.35v1.15h.08q.2-.59.69-.92.48-.33 1.11-.33.13 0 .3.01t.29.03v1.33q-.08-.02-.29-.05-.22-.02-.44-.02-.49 0-.87.2-.39.2-.61.56-.21.36-.21.83v4.31Zm7.42.14q-.86 0-1.54-.44-.67-.44-1.05-1.26-.38-.83-.38-1.97 0-1.15.39-1.97.38-.82 1.06-1.25.67-.44 1.52-.44.66 0 1.06.22.41.22.64.51.22.3.34.52h.08v-3.52h1.4v9.46h-1.36v-1.11h-.12q-.12.23-.35.52-.24.29-.64.51-.41.22-1.05.22m.31-1.19q.59 0 1-.31.41-.32.62-.88.22-.57.22-1.3 0-.74-.21-1.29t-.62-.86-1.01-.31q-.62 0-1.03.33-.41.32-.62.87-.2.56-.2 1.26t.21 1.27q.21.56.62.89t1.02.33"/><path fill="#e8e8ec" d="M185.68 511.14v-9.46h1.44v8.22h4.29v1.24Zm10.49.13q-1.1 0-1.87-.57-.78-.58-1.19-1.66t-.41-2.62.41-2.62q.41-1.09 1.19-1.67.78-.57 1.87-.57 1.1 0 1.88.57.78.58 1.19 1.67.41 1.08.41 2.62 0 1.53-.41 2.62-.41 1.08-1.18 1.66-.78.57-1.89.57m0-1.24q.66 0 1.12-.43.45-.43.69-1.23.24-.81.24-1.95 0-1.15-.24-1.96-.24-.82-.69-1.25-.46-.42-1.12-.42-.65 0-1.11.43-.45.43-.69 1.24-.25.81-.25 1.96 0 1.14.25 1.95.24.8.69 1.23.46.43 1.11.43m12.21-8.79-3.04 11.32h-1.25l3.04-11.32Zm4.77 9.9v-9.46h1.45v8.22h4.28v1.24Zm10.06-9.46v9.46h-1.43V503h-.07l-2.25 1.63v-1.45l2.07-1.5Zm9.06-.44-3.05 11.32h-1.25l3.05-11.32Zm4.77 9.9v-9.46h1.44v8.22h4.29v1.24Zm7.21 0v-1.05l3.22-3.32q.49-.52.82-.92t.5-.77q.17-.36.17-.78 0-.48-.21-.82-.22-.34-.6-.53-.38-.18-.86-.18-.5 0-.88.2-.37.21-.57.58-.21.38-.21.89h-1.39q0-.87.4-1.52t1.09-1.01q.7-.35 1.58-.35.91 0 1.59.35.68.36 1.07.96.38.61.38 1.38 0 .52-.19 1.01-.19.5-.68 1.12-.48.62-1.37 1.51l-1.85 1.94v.07h4.24v1.24Zm13.5.16q-.68 0-1.22-.25-.55-.25-.87-.74-.31-.48-.31-1.18 0-.6.23-.99.23-.38.63-.61.39-.23.88-.34.48-.12.99-.18.62-.07 1.02-.12.39-.05.58-.16t.19-.36v-.04q0-.4-.16-.67-.15-.27-.45-.42t-.75-.15q-.47 0-.8.14-.33.15-.54.37t-.31.46l-1.31-.34q.24-.64.69-1.02.45-.39 1.04-.57.58-.18 1.2-.18.43 0 .92.11.48.1.9.36.43.27.7.75.26.49.26 1.26v4.71h-1.35v-.97h-.07q-.14.27-.41.53-.28.26-.69.43-.42.17-.99.17m.31-1.12q.57 0 .97-.23.41-.22.63-.59.21-.37.21-.78v-.91q-.07.08-.29.14-.21.06-.48.11-.28.05-.53.08l-.42.05q-.39.05-.72.17t-.52.34q-.19.23-.19.59 0 .34.17.57.18.23.47.34.3.12.7.12m5.08 3.61v-9.75h1.36v1.16h.11q.13-.22.36-.52.22-.29.62-.51.41-.22 1.07-.22.85 0 1.52.44.67.43 1.06 1.25t.39 1.97q0 1.14-.38 1.97-.38.82-1.05 1.26t-1.54.44q-.64 0-1.05-.22t-.64-.51-.36-.52h-.07v3.76Zm3.21-3.7q.61 0 1.02-.33.42-.33.62-.89.21-.57.21-1.27t-.21-1.26q-.2-.55-.61-.87-.41-.33-1.03-.33-.59 0-1.01.31-.41.31-.62.86t-.21 1.29q0 .73.21 1.3.22.56.63.88.41.31 1 .31m4.83 3.7v-9.75h1.36v1.16h.11q.13-.22.35-.52.23-.29.63-.51t1.07-.22q.85 0 1.52.44.67.43 1.06 1.25t.39 1.97q0 1.14-.39 1.97-.38.82-1.05 1.26t-1.53.44q-.64 0-1.05-.22t-.64-.51-.36-.52h-.08v3.76Zm3.21-3.7q.61 0 1.02-.33t.62-.89q.21-.57.21-1.27t-.21-1.26q-.21-.55-.61-.87-.41-.33-1.03-.33-.6 0-1.01.31t-.62.86-.21 1.29q0 .73.21 1.3.21.56.63.88.41.31 1 .31m4.83 1.05v-7.1h1.35v1.15h.07q.2-.59.69-.92t1.11-.33q.13 0 .3.01.18.01.29.03v1.33q-.08-.02-.29-.05-.22-.02-.44-.02-.48 0-.87.2t-.6.56q-.22.36-.22.83v4.31Zm7.76.15q-1 0-1.75-.46-.74-.46-1.15-1.28-.42-.83-.42-1.92 0-1.1.42-1.93.41-.83 1.15-1.29.75-.46 1.75-.46t1.75.46q.74.46 1.15 1.29.42.83.42 1.93 0 1.09-.42 1.92-.41.82-1.15 1.28-.75.46-1.75.46m0-1.18q.64 0 1.07-.34.42-.34.62-.91.21-.56.21-1.23 0-.68-.21-1.25-.2-.57-.62-.91-.43-.33-1.07-.33t-1.06.33q-.42.34-.63.91-.2.56-.2 1.25 0 .67.2 1.23.21.57.63.91t1.06.34m6.65 1.03-2.68-7.1h1.51l1.41 4.03q.23.67.4 1.34.16.67.35 1.33h-.42q.17-.66.34-1.33.16-.67.39-1.34l1.41-4.03h1.49l-2.67 7.1Zm7.34.16q-.67 0-1.22-.25-.54-.25-.86-.74-.32-.48-.32-1.18 0-.6.23-.99.24-.38.63-.61.4-.23.88-.34.49-.12.99-.18.63-.07 1.02-.12.4-.05.58-.16.19-.11.19-.36v-.04q0-.4-.15-.67t-.45-.42q-.31-.15-.76-.15-.46 0-.79.14-.34.15-.54.37-.21.22-.31.46l-1.31-.34q.24-.64.69-1.02.45-.39 1.03-.57.59-.18 1.21-.18.43 0 .91.11.48.1.91.36.43.27.69.75.27.49.27 1.26v4.71h-1.35v-.97h-.07q-.14.27-.42.53-.27.26-.68.43-.42.17-1 .17m.31-1.12q.57 0 .98-.23.41-.22.62-.59.22-.37.22-.78v-.91q-.08.08-.29.14t-.49.11q-.27.05-.52.08l-.42.05q-.4.05-.72.17-.33.12-.52.34-.2.23-.2.59 0 .34.18.57.17.23.47.34.3.12.69.12m6.48-8.5v9.46h-1.39v-9.46Zm4.43 9.61q-.77 0-1.37-.23-.6-.22-.99-.65-.38-.44-.51-1.07l1.32-.27q.14.55.54.82t1.02.27q.67 0 1.07-.29.4-.28.4-.67 0-.35-.24-.57-.25-.22-.75-.33l-1.2-.27q-.99-.22-1.47-.71t-.48-1.25q0-.64.35-1.11.36-.48.97-.74.62-.27 1.43-.27.76 0 1.31.23.55.22.88.62.34.4.49.93l-1.25.27q-.13-.38-.46-.66t-.96-.28q-.58 0-.97.26-.38.26-.38.66 0 .35.25.57.26.22.84.36l1.15.25q.98.22 1.46.7.47.47.47 1.22 0 .64-.37 1.14t-1.03.78q-.65.29-1.52.29"/><path fill="#e8e8ec" d="M351.82 511.14h-2.33v-1.27h2.26q1.07 0 1.78-.4t1.07-1.18q.35-.77.35-1.89 0-1.11-.35-1.88t-1.05-1.17q-.69-.4-1.73-.4h-2.38v-1.27h2.48q1.4 0 2.39.57 1 .56 1.53 1.62t.53 2.53q0 1.48-.53 2.54-.54 1.06-1.56 1.63t-2.46.57m-1.62-9.46v9.46h-1.45v-9.46Zm7.94 9.46v-9.46h3.39q1.09 0 1.82.41.73.4 1.09 1.1.36.69.36 1.56 0 .88-.36 1.58-.37.69-1.1 1.09-.73.41-1.83.41h-2.31v-1.23h2.17q.7 0 1.13-.24t.63-.66.2-.95-.2-.94q-.2-.42-.63-.66-.44-.23-1.14-.23h-1.78v8.22Zm6.62 0 3.36-9.46h1.78l3.43 9.46h-1.57l-1.84-5.26q-.22-.64-.48-1.51-.25-.87-.59-2.09h.29q-.32 1.23-.58 2.11-.25.88-.45 1.49l-1.78 5.26Zm1.82-2.49v-1.21h4.92v1.21Zm8.12 2.49v-9.46h3.39q1.09 0 1.82.41.73.4 1.09 1.1.36.69.36 1.56 0 .88-.36 1.58-.37.69-1.1 1.09-.73.41-1.83.41h-2.31v-1.23h2.17q.7 0 1.13-.24t.63-.66.2-.95-.2-.94q-.2-.42-.63-.66-.44-.23-1.14-.23h-1.78v8.22Zm9.79-9.46v9.46h-1.45v-9.46Zm7.48 9.46-2.68-7.1h1.51l1.41 4.03q.23.67.4 1.34.16.67.34 1.33h-.41q.17-.66.34-1.33.16-.67.39-1.34l1.41-4.03h1.49l-2.68 7.1Zm7.34.16q-.67 0-1.22-.25-.54-.25-.86-.74-.32-.48-.32-1.18 0-.6.23-.99.23-.38.63-.61t.88-.34q.49-.12.99-.18.63-.07 1.02-.12.4-.05.58-.16.19-.11.19-.36v-.04q0-.4-.15-.67t-.46-.42q-.3-.15-.75-.15-.46 0-.79.14-.34.15-.54.37-.21.22-.31.46l-1.32-.34q.25-.64.7-1.02.45-.39 1.03-.57.59-.18 1.21-.18.43 0 .91.11.48.1.91.36.42.27.69.75.27.49.27 1.26v4.71h-1.35v-.97h-.07q-.14.27-.42.53-.27.26-.69.43-.41.17-.99.17m.31-1.12q.57 0 .98-.23.41-.22.62-.59.22-.37.22-.78v-.91q-.08.08-.29.14t-.49.11q-.27.05-.52.08l-.42.05q-.4.05-.72.17-.33.12-.52.34-.2.23-.2.59 0 .34.18.57.17.23.47.34.3.12.69.12m7.5 1.05q-.72 0-1.26-.31-.55-.3-.85-.9-.3-.59-.3-1.47v-4.51h1.39v4.34q0 .77.41 1.2.4.43 1.09.43.48 0 .85-.21.37-.2.59-.6.21-.4.21-.95v-4.21h1.4v7.1h-1.34v-1.74h.13q-.31.97-.91 1.4-.59.43-1.41.43m6.81-9.55v9.46h-1.4v-9.46Zm5.1 2.36v1.14h-3.85v-1.14Zm-2.81-1.69h1.39v6.87q0 .43.18.63t.6.2q.1 0 .28-.03.18-.02.31-.05l.24 1.12q-.22.08-.47.11-.26.04-.5.04-.97 0-1.5-.5t-.53-1.4Z"/><path fill="#e8e8ec" d="m451.8 511.14 3.36-9.46h1.78l3.43 9.46h-1.57l-1.84-5.26q-.22-.64-.47-1.51-.26-.87-.6-2.09h.3q-.33 1.23-.58 2.11-.26.88-.46 1.49l-1.78 5.26Zm1.82-2.49v-1.21h4.92v1.21Zm10.43 2.58q-.72 0-1.27-.31-.55-.3-.85-.9-.3-.59-.3-1.47v-4.51h1.4v4.34q0 .77.4 1.2t1.1.43q.47 0 .84-.21.37-.2.59-.6t.22-.95v-4.21h1.39v7.1h-1.33l-.01-1.74h.14q-.32.97-.91 1.4-.6.43-1.41.43m8.04.05q-.86 0-1.53-.44t-1.06-1.26q-.38-.83-.38-1.97 0-1.15.39-1.97t1.06-1.25q.67-.44 1.52-.44.66 0 1.07.22.4.22.63.51.23.3.35.52h.07v-3.52h1.4v9.46h-1.36v-1.11h-.11q-.12.23-.36.52-.23.29-.64.51-.4.22-1.05.22m.31-1.19q.6 0 1-.31.41-.32.63-.88.21-.57.21-1.3 0-.74-.21-1.29t-.62-.86-1.01-.31q-.62 0-1.03.33-.41.32-.61.87-.21.56-.21 1.26t.21 1.27q.21.56.62.89.42.33 1.02.33m5.09 1.05v-7.1h1.4v7.1Zm.71-8.18q-.37 0-.62-.24-.26-.24-.26-.59t.26-.59q.25-.24.62-.24.36 0 .62.24t.26.59-.26.59-.62.24m5.6 1.08v1.14h-3.85v-1.14Zm-2.81-1.69h1.39v6.87q0 .43.18.63.19.2.6.2.11 0 .28-.03.18-.02.31-.05l.25 1.12q-.23.08-.48.11-.25.04-.5.04-.97 0-1.5-.5t-.53-1.4Zm10.7 1.69v1.14h-3.85v-1.14Zm-2.82-1.69h1.4v6.87q0 .43.18.63t.59.2q.11 0 .29-.03.18-.02.3-.05l.25 1.12q-.22.08-.47.11-.26.04-.51.04-.96 0-1.49-.5-.54-.5-.54-1.4Zm4.2 8.79v-7.1h1.36v1.15h.07q.2-.59.69-.92t1.11-.33q.13 0 .3.01t.29.03v1.33q-.08-.02-.29-.05-.22-.02-.44-.02-.48 0-.87.2t-.6.56q-.22.36-.22.83v4.31Zm6.96.16q-.67 0-1.22-.25t-.86-.74q-.32-.48-.32-1.18 0-.6.23-.99.23-.38.63-.61t.88-.34q.49-.12.99-.18.63-.07 1.02-.12t.58-.16.19-.36v-.04q0-.4-.15-.67-.16-.27-.46-.42t-.75-.15q-.46 0-.8.14-.33.15-.54.37-.2.22-.3.46l-1.32-.34q.24-.64.69-1.02.45-.39 1.04-.57.58-.18 1.2-.18.44 0 .92.11.48.1.91.36.42.27.69.75.27.49.27 1.26v4.71h-1.36v-.97h-.07q-.14.27-.41.53t-.69.43q-.41.17-.99.17m.31-1.12q.57 0 .98-.23.4-.22.62-.59t.22-.78v-.91q-.08.08-.29.14-.22.06-.49.11t-.53.08l-.42.05q-.39.05-.72.17-.32.12-.52.34-.19.23-.19.59 0 .34.17.57.18.23.48.34.3.12.69.12m5.08.96v-7.1h1.4v7.1Zm.71-8.18q-.36 0-.62-.24t-.26-.59.26-.59.62-.24.62.24.26.59-.26.59-.62.24m3.96-1.28v9.46h-1.39v-9.46Z"/></svg>